<?xml version="1.0" encoding="UTF-8"?>
<svg version="1.1" xmlns="http://www.w3.org/2000/svg" width="602" height="186">
<path d="M0 0 C198.66 0 397.32 0 602 0 C602 61.38 602 122.76 602 186 C403.34 186 204.68 186 0 186 C0 124.62 0 63.24 0 0 Z " fill="#FCFCFD" transform="translate(0,0)"/>
<path d="M0 0 C61.17717206 0 61.17717206 0 75.7109375 12.29296875 C88.0357386 25.17054332 89.62430899 40.5356282 89.3125 57.56640625 C88.72205156 71.77899227 83.03162688 85.18323852 72.625 94.9921875 C51.98020343 110.78299916 24.12821596 105 0 105 C0 70.35 0 35.7 0 0 Z " fill="#4A1DAA" transform="translate(116,2)"/>
<path d="M0 0 C1.84112114 0.00636726 1.84112114 0.00636726 3.71943665 0.01286316 C7.60095092 0.02952056 11.48192658 0.06714926 15.36328125 0.10546875 C18.01106016 0.12053227 20.65884728 0.13421774 23.30664062 0.14648438 C29.76320147 0.17938165 36.21945286 0.22945066 42.67578125 0.29296875 C42.76878507 10.92477126 42.83969976 21.55647573 42.88302994 32.1886034 C42.90383459 37.12645227 42.93202097 42.06402119 42.97753906 47.00170898 C43.0212523 51.77390451 43.04497182 56.5458321 43.05529022 61.31821251 C43.06263612 63.13174337 43.0769801 64.94526088 43.09870148 66.75867653 C43.35610369 89.15472954 43.35610369 89.15472954 35.67578125 98.10546875 C22.79560035 109.50579908 6.19831216 110.12396043 -10.14013672 109.4453125 C-21.18401048 108.67498194 -31.24891208 104.38263035 -38.81640625 96.234375 C-43.91308669 89.67206883 -44.93696965 83.44595983 -44.32421875 75.29296875 C-42.2431319 74.61932214 -40.15925165 73.95430077 -38.07421875 73.29296875 C-36.9140625 72.92171875 -35.75390625 72.55046875 -34.55859375 72.16796875 C-31.32421875 71.29296875 -31.32421875 71.29296875 -27.32421875 71.29296875 C-27.09347656 72.10121094 -26.86273437 72.90945312 -26.625 73.7421875 C-24.46898402 80.80676159 -22.92358497 85.56237855 -16.34375 89.46875 C-7.61737621 93.72230908 3.67783225 93.80971052 12.92578125 91.04296875 C16.97873211 89.41095991 19.69772226 87.24908673 21.67578125 83.29296875 C22.15424422 80.21021365 22.19968974 77.37226762 21.67578125 74.29296875 C16.07837251 67.09630037 5.57590273 66.00239802 -2.86328125 63.921875 C-31.47326614 56.8156221 -31.47326614 56.8156221 -39.51171875 46.48046875 C-43.58693354 39.3137117 -44.3580462 31.96962131 -42.89453125 23.93359375 C-40.48447676 15.30500361 -34.40346378 9.22446465 -26.87324524 4.64070129 C-18.3706382 0.14516535 -9.41867217 -0.12484392 0 0 Z " fill="#4B1EAB" transform="translate(559.32421875,-0.29296875)"/>
<path d="M0 0 C8.91 0 17.82 0 27 0 C34.18872914 8.16583796 34.18872914 8.16583796 35.76171875 12.046875 C37.96320112 17.07039181 40.74288266 21.48842386 43.75 26.0625 C44.75780055 27.65248622 45.76160104 29.24501376 46.76171875 30.83984375 C47.28169434 31.66726074 47.80166992 32.49467773 48.33740234 33.34716797 C50.13126287 36.20944234 51.91983145 39.07496838 53.70703125 41.94140625 C54.66754395 43.48139282 54.66754395 43.48139282 55.64746094 45.05249023 C56.86961961 47.01333507 58.09045947 48.97500294 59.30957031 50.93774414 C64.76755617 59.69888848 70.38916135 68.32870391 76 77 C76.33 51.59 76.66 26.18 77 0 C83.27 0 89.54 0 96 0 C96 34.65 96 69.3 96 105 C87.75 105 79.5 105 71 105 C63.88519867 96.14137482 63.88519867 96.14137482 62.25390625 92.0625 C60.15248641 87.18417089 57.53614941 82.94932255 54.5625 78.5625 C53.64014677 77.15305401 52.72089971 75.74157068 51.8046875 74.328125 C51.34416992 73.61978516 50.88365234 72.91144531 50.40917969 72.18164062 C47.47234382 67.63493839 44.59479434 63.05060385 41.71362305 58.46850586 C38.89697124 53.99226144 36.06048151 49.52992221 33.19921875 45.08203125 C32.56282471 44.09033936 31.92643066 43.09864746 31.27075195 42.0769043 C30.03183804 40.14777253 28.78962465 38.22075468 27.54370117 36.29614258 C26.98013916 35.41724365 26.41657715 34.53834473 25.8359375 33.6328125 C25.33626465 32.85824707 24.8365918 32.08368164 24.32177734 31.28564453 C22.95485129 28.92192793 21.95139829 26.55607125 21 24 C20.34 24 19.68 24 19 24 C19.03029297 24.96147949 19.06058594 25.92295898 19.09179688 26.91357422 C19.89756188 52.94920983 20.11715342 78.95289022 20 105 C13.4 105 6.8 105 0 105 C0 70.35 0 35.7 0 0 Z " fill="#4A1EAB" transform="translate(346,2)"/>
<path d="M0 0 C9.57 0 19.14 0 29 0 C32.05002921 7.3200701 34.96463489 14.45299833 37.4609375 21.94140625 C37.76871124 22.85206345 38.07648499 23.76272064 38.39358521 24.70097351 C39.39101075 27.65360837 40.38297939 30.60804536 41.375 33.5625 C42.78629312 37.74703228 44.20109382 41.9303713 45.6171875 46.11328125 C45.97629211 47.1746933 46.33539673 48.23610535 46.7053833 49.3296814 C49.22141507 56.74945643 51.78593872 64.15112448 54.3828125 71.54296875 C54.73185638 72.5372438 55.08090027 73.53151886 55.44052124 74.55592346 C57.1131883 79.31638138 58.79220712 84.07450747 60.47802734 88.83032227 C61.07923776 90.53787523 61.68031933 92.24547357 62.28125 93.953125 C62.55856964 94.72903488 62.83588928 95.50494476 63.12161255 96.30436707 C64.18245865 99.3290707 65 101.76951912 65 105 C57.74 105 50.48 105 43 105 C42.01 101.74125 41.02 98.4825 40 95.125 C39.68675781 94.09906738 39.37351562 93.07313477 39.05078125 92.01611328 C38.80714844 91.20899902 38.56351562 90.40188477 38.3125 89.5703125 C38.06113281 88.74289551 37.80976562 87.91547852 37.55078125 87.06298828 C37 85 37 85 37 83 C22.48 83.33 7.96 83.66 -7 84 C-8.65 88.95 -10.3 93.9 -12 99 C-12.66 100.98 -13.32 102.96 -14 105 C-21.26 105 -28.52 105 -36 105 C-33.97079549 97.27222507 -31.63847098 89.73751032 -29.0078125 82.1953125 C-28.43368622 80.53563194 -28.43368622 80.53563194 -27.84796143 78.84242249 C-26.61058661 75.26868414 -25.36796955 71.6967959 -24.125 68.125 C-23.27012932 65.66063798 -22.41547581 63.19620061 -21.56103516 60.73168945 C-19.04699718 53.48559159 -16.52515041 46.24223203 -14 39 C-13.63624268 37.95660461 -13.27248535 36.91320923 -12.89770508 35.8381958 C-10.72881026 29.6194211 -8.55464272 23.40251544 -6.375 17.1875 C-6.10173889 16.40755676 -5.82847778 15.62761353 -5.54693604 14.82403564 C-4.79068662 12.6672859 -4.03249538 10.51123142 -3.2734375 8.35546875 C-2.85497559 7.16590576 -2.43651367 5.97634277 -2.00537109 4.75073242 C-1 2 -1 2 0 0 Z " fill="#4A1EAB" transform="translate(36,2)"/>
<path d="M0 0 C31.78763298 0 31.78763298 0 40.20703125 7.8984375 C49.21650262 18.45855863 48.73497257 31.09649859 48.23095703 44.21777344 C47.5480549 52.4443619 44.14743633 60.42441822 38 66 C25.21376785 73.73705207 17.97935745 71 0 71 C0 47.57 0 24.14 0 0 Z " fill="#FDFDFE" transform="translate(136,19)"/>
<path d="M0 0 C6.6 0 13.2 0 20 0 C20 34.65 20 69.3 20 105 C13.4 105 6.8 105 0 105 C0 70.35 0 35.7 0 0 Z " fill="#481BAA" transform="translate(472,2)"/>
<path d="M0 0 C12.21 0 24.42 0 37 0 C37 24.09 37 48.18 37 73 C36.67 73 36.34 73 36 73 C35.84144531 72.41992188 35.68289063 71.83984375 35.51953125 71.2421875 C35.16955078 70.07042969 35.16955078 70.07042969 34.8125 68.875 C34.59207031 68.10929687 34.37164063 67.34359375 34.14453125 66.5546875 C30.2110469 57.77482823 22.42318705 54.49975911 14 51 C7.63749984 48.63634282 1.15667016 47.01810169 -5.45922852 45.55737305 C-22.49723759 41.77343042 -22.49723759 41.77343042 -27.71875 36.1484375 C-30.0305729 32.2719052 -29.9649166 28.33870301 -29 24 C-25.97599497 19.84940485 -21.8351193 17.53594246 -17 16 C-7.62363238 15.04322779 1.23175615 14.96818713 9 21 C14.00588658 25.79633784 14.08336158 28.66689266 15 36 C20.61 34.68 26.22 33.36 32 32 C32 23.2422677 29.80214025 17.03131147 23.8125 10.5625 C17.07759714 4.75654926 8.50083269 2.79656773 0 1 C0 0.67 0 0.34 0 0 Z " fill="#FCFBFD" transform="translate(565,0)"/>
<path d="M0 0 C0.66 0 1.32 0 2 0 C6.49611288 13.2887843 10.95175139 26.58614935 15.0625 40 C15.36099854 40.96558838 15.65949707 41.93117676 15.96704102 42.92602539 C16.23701904 43.81668701 16.50699707 44.70734863 16.78515625 45.625 C17.02113525 46.40101562 17.25711426 47.17703125 17.50024414 47.9765625 C18 50 18 50 18 53 C6.78 53 -4.44 53 -16 53 C-15.30389364 47.43114914 -14.67743359 43.39878921 -13 38.25 C-12.79213867 37.60603271 -12.58427734 36.96206543 -12.37011719 36.29858398 C-11.88155661 34.78592527 -11.39010538 33.27419852 -10.89648438 31.76318359 C-9.81721229 28.43660367 -8.76018456 25.10323499 -7.703125 21.76953125 C-7.09083518 19.84411837 -6.47796326 17.91889214 -5.86474609 15.99377441 C-5.45483407 14.70600274 -5.04565454 13.41799767 -4.63720703 12.12976074 C-4.05807371 10.30558472 -3.47444136 8.48283889 -2.890625 6.66015625 C-2.55063477 5.59418213 -2.21064453 4.52820801 -1.86035156 3.42993164 C-1 1 -1 1 0 0 Z " fill="#FAF9FD" transform="translate(50,18)"/>
<path d="M0 0 C2.52090778 -0.0272367 5.04151457 -0.04695207 7.5625 -0.0625 C8.61920898 -0.07506836 8.61920898 -0.07506836 9.69726562 -0.08789062 C10.39658203 -0.09111328 11.09589844 -0.09433594 11.81640625 -0.09765625 C12.45006104 -0.10289307 13.08371582 -0.10812988 13.73657227 -0.11352539 C16.84270581 0.04226709 19.92121937 0.5601742 23 1 C23 12.22 23 23.44 23 35 C11.93290295 28.35974177 3.89125373 18.47820308 0 6 C-0.125 2.67578125 -0.125 2.67578125 0 0 Z " fill="#098E4C" transform="translate(224,61)"/>
<path d="M0 0 C3.20436097 2.64981712 4.3594469 5.76949124 5.91796875 9.56640625 C6.31113029 10.51845192 6.31113029 10.51845192 6.7122345 11.48973083 C7.26280537 12.82722517 7.80974643 14.16621875 8.35327148 15.5065918 C9.18730663 17.56202346 10.03309692 19.61230668 10.88085938 21.66210938 C15 31.70072431 15 31.70072431 15 34 C3.615 33.505 3.615 33.505 -8 33 C-8.30299293 19.81980768 -6.26317492 11.6400515 0 0 Z " fill="#0C8F4E" transform="translate(231,25)"/>
<path d="M0 0 C6.54206845 4.07817254 12.87284597 8.29019746 19.07421875 12.8671875 C24.3090344 16.68322133 29.66038837 20.33273096 35 24 C31.93680455 27.06319545 28.36009391 26.42479124 24.25 26.4375 C23.40268311 26.44136719 22.55536621 26.44523437 21.68237305 26.44921875 C13.53075 26.3018309 7.46181889 24.20938447 0 21 C0 14.07 0 7.14 0 0 Z " fill="#088D4C" transform="translate(250,78)"/>
<path d="M0 0 C1.65 0 3.3 0 5 0 C8.44419134 11.52164009 8.44419134 11.52164009 8 17 C8.66 17 9.32 17 10 17 C10.13277344 16.19175781 10.26554687 15.38351563 10.40234375 14.55078125 C10.57894531 13.48214844 10.75554687 12.41351563 10.9375 11.3125 C11.11152344 10.25675781 11.28554688 9.20101562 11.46484375 8.11328125 C11.93167121 5.39750396 12.44422616 2.69875765 13 0 C15.31 0 17.62 0 20 0 C20.48066535 1.89545392 20.95946743 3.79138039 21.4375 5.6875 C21.70433594 6.74324219 21.97117187 7.79898438 22.24609375 8.88671875 C22.89897932 11.5828317 23.47941193 14.2757576 24 17 C24.20496094 16.10796875 24.40992188 15.2159375 24.62109375 14.296875 C24.89050781 13.12640625 25.15992188 11.9559375 25.4375 10.75 C25.70433594 9.58984375 25.97117187 8.4296875 26.24609375 7.234375 C26.80968 4.81650239 27.38669951 2.40556696 28 0 C29.65 0 31.3 0 33 0 C31.66908213 20.33091787 31.66908213 20.33091787 28 24 C25.66702567 24.04092937 23.33294775 24.04241723 21 24 C18.90551698 18.46458058 17.97217245 12.81235021 17 7 C14.90551698 12.53541942 13.97217245 18.18764979 13 24 C10.36 24 7.72 24 5 24 C3.56020335 19.84962966 2.37491211 15.71490182 1.375 11.4375 C0.98441406 9.79587891 0.98441406 9.79587891 0.5859375 8.12109375 C0.05926347 5.31567677 -0.11644755 2.84237891 0 0 Z " fill="#5C32B8" transform="translate(417,152)"/>
<path d="M0 0 C3.01333109 1.62256289 5.26132782 3.10074691 7.4375 5.75 C8.32901591 9.31606365 8.03867575 12.5262831 7 16 C4.94389138 19.08416293 3.54428932 20.68386831 -0.15625 21.44140625 C-4.16365941 21.64845574 -6.44731434 21.32925954 -9.9375 19.25 C-13.10961473 15.7895112 -14.02454958 14.35022674 -13.9375 9.5625 C-12.82940237 5.35172899 -11.31363542 3.74789278 -8 1 C-5.13391871 -0.43304064 -3.18699217 -0.30644155 0 0 Z " fill="#0B8E4E" transform="translate(316,19)"/>
<path d="M0 0 C4.47187381 0.36654703 6.40039034 1.45585005 9.8125 4.3125 C12.16215355 7.51657303 12.35811533 10.41524765 11.8125 14.3125 C9.98702064 17.23733867 7.94391589 19.74679205 4.8125 21.3125 C-2.2380676 21.89041538 -2.2380676 21.89041538 -6.0625 19.5625 C-9.30681699 16.12734084 -10.21247233 14.68597797 -10.125 9.875 C-9.02093994 5.67957178 -7.45024431 4.08583266 -4.1875 1.3125 C-3.1875 0.3125 -3.1875 0.3125 0 0 Z " fill="#0A8E4D" transform="translate(264.1875,0.6875)"/>
<path d="M0 0 C1.65 0 3.3 0 5 0 C5 8.58 5 17.16 5 26 C3.68 26 2.36 26 1 26 C0.67 25.01 0.34 24.02 0 23 C-0.5259375 23.7425 -0.5259375 23.7425 -1.0625 24.5 C-4.02552179 26.79395236 -6.37042697 26.38888282 -10 26 C-12.61593153 24.16884793 -12.96989455 23.09031634 -14 20 C-14.36646277 15.45586168 -14.54833483 13.05280288 -12.4375 9 C-10 7 -10 7 -6.4375 6.5 C-3 7 -3 7 0 10 C0 6.7 0 3.4 0 0 Z " fill="#5B31B8" transform="translate(193,150)"/>
<path d="M0 0 C-7.42234317 7.23804119 -15.99164559 14.66388186 -26 18 C-28.52873936 16.47804628 -30.82683409 14.93728146 -33.1875 13.1875 C-34.16879883 12.49043945 -34.16879883 12.49043945 -35.16992188 11.77929688 C-36.8235999 10.57740575 -38.41742075 9.29407735 -40 8 C-40 7.34 -40 6.68 -40 6 C-35.85621897 5.16129106 -31.71191948 4.32520566 -27.56713867 3.49145508 C-26.15976986 3.2079807 -24.75254041 2.92381347 -23.34545898 2.63891602 C-21.31270796 2.22746588 -19.27945418 1.81858273 -17.24609375 1.41015625 C-15.41582642 1.04096069 -15.41582642 1.04096069 -13.54858398 0.66430664 C-3.5963521 -1.19878403 -3.5963521 -1.19878403 0 0 Z " fill="#0D8F4F" transform="translate(315,84)"/>
<path d="M0 0 C2.41796875 0.4765625 2.41796875 0.4765625 5.54296875 2.4765625 C7.94773789 6.32419312 8.25769101 9.05462083 7.41796875 13.4765625 C5.27907986 18.04600694 5.27907986 18.04600694 2.41796875 19.4765625 C-2.34579536 20.05750934 -6.25171735 20.45846085 -10.20703125 17.5390625 C-12.0779402 13.37203802 -12.3455119 9.96810294 -11.58203125 5.4765625 C-9.09901052 -0.05380186 -5.59403875 -0.31399331 0 0 Z " fill="#5A2FB7" transform="translate(148.58203125,156.5234375)"/>
<path d="M0 0 C3.0625 1.9375 3.0625 1.9375 5 5 C6.03945854 9.75058323 5.669717 12.94141507 3.0625 17.0625 C-1.05858493 19.669717 -4.24941677 20.03945854 -9 19 C-12.0625 17.0625 -12.0625 17.0625 -14 14 C-15.03945854 9.24941677 -14.669717 6.05858493 -12.0625 1.9375 C-7.94141507 -0.669717 -4.75058323 -1.03945854 0 0 Z " fill="#592EB7" transform="translate(172,157)"/>
<path d="M0 0 C1.65 0 3.3 0 5 0 C5 3.3 5 6.6 5 10 C8.3 10 11.6 10 15 10 C15 6.7 15 3.4 15 0 C16.98 0 18.96 0 21 0 C21 7.92 21 15.84 21 24 C19.02 24 17.04 24 15 24 C15 20.7 15 17.4 15 14 C11.7 14 8.4 14 5 14 C5 17.3 5 20.6 5 24 C3.35 24 1.7 24 0 24 C0 16.08 0 8.16 0 0 Z " fill="#5E34B9" transform="translate(210,152)"/>
<path d="M0 0 C3.125 1.8125 3.125 1.8125 5 4 C5 4.99 5 5.98 5 7 C3.35 7.33 1.7 7.66 0 8 C-0.66 7.01 -1.32 6.02 -2 5 C-5 4.5 -5 4.5 -8 5 C-10.46751239 8.70126859 -10.30721156 10.62223532 -10 15 C-9.11935073 17.35369807 -9.11935073 17.35369807 -8 19 C-5.69 19 -3.38 19 -1 19 C-0.34 17.68 0.32 16.36 1 15 C-0.65 15 -2.3 15 -4 15 C-4 14.01 -4 13.02 -4 12 C-0.7 12 2.6 12 6 12 C6 15.96 6 19.92 6 24 C4.68 24 3.36 24 2 24 C1.67 23.01 1.34 22.02 1 21 C0.59523437 21.48339844 0.19046875 21.96679688 -0.2265625 22.46484375 C-2.95777065 24.8290834 -5.27286252 24.61104439 -8.76953125 24.45703125 C-11.70466492 23.85561157 -13.48591698 22.58884821 -15.1875 20.11328125 C-16.94786799 15.53463182 -16.7439202 10.7852164 -16 6 C-12.08205834 -0.66050083 -7.2230657 -0.83910025 0 0 Z " fill="#592EB7" transform="translate(129,152)"/>
<path d="M0 0 C1.65 0 3.3 0 5 0 C5.33 3.3 5.66 6.6 6 10 C6.99 9.01 7.98 8.02 9 7 C12.5 6.5 12.5 6.5 16 7 C19.272408 10.9763127 19.32843528 14.28580832 19.1875 19.3125 C19.16042969 20.56675781 19.13335937 21.82101563 19.10546875 23.11328125 C19.07066406 24.06589844 19.03585937 25.01851562 19 26 C17.02 26 15.04 26 13 26 C12.67 21.38 12.34 16.76 12 12 C10.35 12.33 8.7 12.66 7 13 C6.67 17.29 6.34 21.58 6 26 C4.02 26 2.04 26 0 26 C0 17.42 0 8.84 0 0 Z " fill="#623ABB" transform="translate(296,150)"/>
<path d="M0 0 C-0.87765833 6.86994627 -2.23893578 13.64172069 -3.5625 20.4375 C-3.79646484 21.64599609 -4.03042969 22.85449219 -4.27148438 24.09960938 C-4.84613906 27.06670398 -5.4223557 30.03348623 -6 33 C-6.66 33 -7.32 33 -8 33 C-9.54074107 30.26070622 -11.05392858 27.50712161 -12.5625 24.75 C-13.21895508 23.58404297 -13.21895508 23.58404297 -13.88867188 22.39453125 C-14.29794922 21.64042969 -14.70722656 20.88632812 -15.12890625 20.109375 C-15.51119385 19.41811523 -15.89348145 18.72685547 -16.28735352 18.01464844 C-17.1574683 15.55483781 -16.92779948 14.40988514 -16 12 C-12.46486688 7.6802192 -6.04234805 0 0 0 Z " fill="#098D4C" transform="translate(251,8)"/>
<path d="M0 0 C1.31291016 -0.02513672 1.31291016 -0.02513672 2.65234375 -0.05078125 C5.50296353 0.37889077 6.32114141 1.06893141 8.0625 3.3125 C9.56406874 6.31563748 9.15531204 9.10317522 9.125 12.4375 C9.11597656 13.71882812 9.10695313 15.00015625 9.09765625 16.3203125 C9.08605469 17.30773437 9.07445312 18.29515625 9.0625 19.3125 C7.4125 19.3125 5.7625 19.3125 4.0625 19.3125 C3.7325 18.3225 3.4025 17.3325 3.0625 16.3125 C2.5365625 17.055 2.5365625 17.055 2 17.8125 C-0.93185344 20.08232201 -3.34645535 19.6389586 -6.9375 19.3125 C-8.9375 17.3125 -8.9375 17.3125 -9.375 14.375 C-8.9375 11.3125 -8.9375 11.3125 -6.875 9.4375 C-3.39531172 8.10485342 -0.63378969 8.09507119 3.0625 8.3125 C3.0625 6.9925 3.0625 5.6725 3.0625 4.3125 C1.0825 4.3125 -0.8975 4.3125 -2.9375 4.3125 C-3.2675 5.3025 -3.5975 6.2925 -3.9375 7.3125 C-5.2575 6.9825 -6.5775 6.6525 -7.9375 6.3125 C-6.90116027 1.13080134 -5.2110106 0.02295599 0 0 Z " fill="#5F35B9" transform="translate(356.9375,156.6875)"/>
<path d="M0 0 C0.85464844 -0.01675781 1.70929688 -0.03351563 2.58984375 -0.05078125 C5.5046356 0.37745831 6.87576679 1.38959539 9.0625 3.3125 C8.7325 4.9625 8.4025 6.6125 8.0625 8.3125 C6.7425 7.9825 5.4225 7.6525 4.0625 7.3125 C4.0625 6.6525 4.0625 5.9925 4.0625 5.3125 C-0.04395548 4.99014442 -0.04395548 4.99014442 -3.8125 6.375 C-5.88349746 9.94171785 -5.24084662 13.83368524 -4.4375 17.75 C-4.2725 18.265625 -4.1075 18.78125 -3.9375 19.3125 C-1.2975 19.3125 1.3425 19.3125 4.0625 19.3125 C4.7225 17.9925 5.3825 16.6725 6.0625 15.3125 C7.3825 15.3125 8.7025 15.3125 10.0625 15.3125 C9.75 18.6875 9.75 18.6875 9.0625 22.3125 C4.61389766 25.2782349 0.28106465 24.95337636 -4.9375 24.3125 C-7.93947464 22.51131522 -9.38916366 21.40917268 -10.9375 18.3125 C-11.35001687 13.38609656 -11.5901414 8.83532992 -9.625 4.25 C-6.62815762 0.80918097 -4.41680634 0.01992544 0 0 Z " fill="#5A2FB7" transform="translate(335.9375,151.6875)"/>
<path d="M0 0 C1.31291016 -0.02513672 1.31291016 -0.02513672 2.65234375 -0.05078125 C5.0625 0.3125 5.0625 0.3125 6.8671875 1.3203125 C8.78607309 4.51845514 8.3729749 7.88958304 8.25 11.5 C8.22969727 12.62438477 8.22969727 12.62438477 8.20898438 13.77148438 C8.17368539 15.61879767 8.11987917 17.46574066 8.0625 19.3125 C6.7425 19.3125 5.4225 19.3125 4.0625 19.3125 C3.7325 18.3225 3.4025 17.3325 3.0625 16.3125 C2.5365625 17.055 2.5365625 17.055 2 17.8125 C-0.93185344 20.08232201 -3.34645535 19.6389586 -6.9375 19.3125 C-8.9375 17.3125 -8.9375 17.3125 -9.0625 14.1875 C-9.02125 13.23875 -8.98 12.29 -8.9375 11.3125 C-2.35234716 8.39983624 -2.35234716 8.39983624 0.4375 7.8125 C0.97375 7.6475 1.51 7.4825 2.0625 7.3125 C2.3925 6.3225 2.7225 5.3325 3.0625 4.3125 C1.45375 4.8075 1.45375 4.8075 -0.1875 5.3125 C-3.9375 6.3125 -3.9375 6.3125 -7.9375 6.3125 C-6.90116027 1.13080134 -5.2110106 0.02295599 0 0 Z " fill="#572CB6" transform="translate(458.9375,156.6875)"/>
<path d="M0 0 C1.31291016 -0.02513672 1.31291016 -0.02513672 2.65234375 -0.05078125 C5.0625 0.3125 5.0625 0.3125 6.8671875 1.3203125 C8.78607309 4.51845514 8.3729749 7.88958304 8.25 11.5 C8.22969727 12.62438477 8.22969727 12.62438477 8.20898438 13.77148438 C8.17368539 15.61879767 8.11987917 17.46574066 8.0625 19.3125 C6.7425 19.3125 5.4225 19.3125 4.0625 19.3125 C3.7325 18.3225 3.4025 17.3325 3.0625 16.3125 C2.5365625 17.055 2.5365625 17.055 2 17.8125 C-0.93185344 20.08232201 -3.34645535 19.6389586 -6.9375 19.3125 C-8.9375 17.3125 -8.9375 17.3125 -9.0625 14.1875 C-9.02125 13.23875 -8.98 12.29 -8.9375 11.3125 C-2.35234716 8.39983624 -2.35234716 8.39983624 0.4375 7.8125 C0.97375 7.6475 1.51 7.4825 2.0625 7.3125 C2.3925 6.3225 2.7225 5.3325 3.0625 4.3125 C1.45375 4.8075 1.45375 4.8075 -0.1875 5.3125 C-3.9375 6.3125 -3.9375 6.3125 -7.9375 6.3125 C-6.90116027 1.13080134 -5.2110106 0.02295599 0 0 Z " fill="#582CB6" transform="translate(261.9375,156.6875)"/>
<path d="M0 0 C2.09375 0.48828125 2.09375 0.48828125 4.65625 2.67578125 C6.09375 5.48828125 6.09375 5.48828125 6.09375 10.48828125 C1.80375 10.48828125 -2.48625 10.48828125 -6.90625 10.48828125 C-6.57625 11.80828125 -6.24625 13.12828125 -5.90625 14.48828125 C-3.59625 14.81828125 -1.28625 15.14828125 1.09375 15.48828125 C1.09375 14.82828125 1.09375 14.16828125 1.09375 13.48828125 C2.74375 13.48828125 4.39375 13.48828125 6.09375 13.48828125 C4.34375 18.36328125 4.34375 18.36328125 2.09375 19.48828125 C-2.67001411 20.06922809 -6.5759361 20.4701796 -10.53125 17.55078125 C-12.3979695 13.39308783 -12.81338097 9.96724039 -11.90625 5.48828125 C-8.78245196 0.550665 -5.5671003 -0.32474752 0 0 Z " fill="#592EB7" transform="translate(244.90625,156.51171875)"/>
<path d="M0 0 C3.48326597 0.85529699 4.97293913 2.60978164 6.97265625 5.484375 C7.68501311 9.2836116 7.28529613 10.92162321 5.41015625 14.296875 C2.20268782 17.17537231 0.25772285 17.55955161 -4.02734375 17.484375 C-6.82923821 15.71796328 -8.54259286 14.45387678 -10.02734375 11.484375 C-10.43350604 7.82891435 -10.24168628 5.89519818 -8.52734375 2.609375 C-5.667774 0.17874072 -3.74624162 -0.25208355 0 0 Z " fill="#098D4C" transform="translate(323.02734375,41.515625)"/>
<path d="M0 0 C1.32 0 2.64 0 4 0 C4.33 1.32 4.66 2.64 5 4 C5.350625 3.34 5.70125 2.68 6.0625 2 C8 0 8 0 11.5 -0.4375 C15 0 15 0 16.70703125 1.015625 C18.76774713 4.17829469 18.31149275 7.5472 18.1875 11.1875 C18.16719727 12.31188477 18.16719727 12.31188477 18.14648438 13.45898438 C18.11118539 15.30629767 18.05737917 17.15324066 18 19 C16.35 19 14.7 19 13 19 C12.67 14.05 12.34 9.1 12 4 C7.4158037 5.45288986 7.4158037 5.45288986 6 7 C5.76572222 9.01594582 5.58663876 11.038474 5.4375 13.0625 C5.35371094 14.16722656 5.26992188 15.27195313 5.18359375 16.41015625 C5.12300781 17.26480469 5.06242187 18.11945313 5 19 C3.35 19 1.7 19 0 19 C0 12.73 0 6.46 0 0 Z " fill="#562AB5" transform="translate(369,157)"/>
<path d="M0 0 C3.4375 0.9375 3.4375 0.9375 5.375 2.0625 C7.1087306 5.12202459 6.85895216 7.50567525 6.4375 10.9375 C4.8125 13.375 4.8125 13.375 2.4375 14.9375 C-1.19882575 15.54355429 -2.84564769 15.40911336 -5.9375 13.375 C-8.18590519 10.00239221 -8.13033945 7.91237617 -7.5625 3.9375 C-5.29401339 0.30792142 -4.30870043 -0.07559124 0 0 Z " fill="#0A8E4D" transform="translate(302.5625,4.0625)"/>
<path d="M0 0 C1.32 0 2.64 0 4 0 C4 1.32 4 2.64 4 4 C5.32 4 6.64 4 8 4 C8 5.32 8 6.64 8 8 C6.68 8 5.36 8 4 8 C4 11.3 4 14.6 4 18 C5.65 18 7.3 18 9 18 C9 19.65 9 21.3 9 23 C2.9453125 23.1953125 2.9453125 23.1953125 1 23 C-1 21 -1 21 -1.1953125 17.9609375 C-1.16050781 16.18589844 -1.16050781 16.18589844 -1.125 14.375 C-1.10695313 13.18648437 -1.08890625 11.99796875 -1.0703125 10.7734375 C-1.04710937 9.85820312 -1.02390625 8.94296875 -1 8 C-1.99 8 -2.98 8 -4 8 C-4 6.68 -4 5.36 -4 4 C-2.68 4 -1.36 4 0 4 C0 2.68 0 1.36 0 0 Z " fill="#5E34B9" transform="translate(482,153)"/>
<path d="M0 0 C1.32 0 2.64 0 4 0 C4 1.32 4 2.64 4 4 C5.32 4 6.64 4 8 4 C8 5.32 8 6.64 8 8 C6.68 8 5.36 8 4 8 C4 11.3 4 14.6 4 18 C5.65 18 7.3 18 9 18 C9 19.65 9 21.3 9 23 C2.9453125 23.1953125 2.9453125 23.1953125 1 23 C-1 21 -1 21 -1.1953125 17.9609375 C-1.16050781 16.18589844 -1.16050781 16.18589844 -1.125 14.375 C-1.10695313 13.18648437 -1.08890625 11.99796875 -1.0703125 10.7734375 C-1.04710937 9.85820312 -1.02390625 8.94296875 -1 8 C-1.99 8 -2.98 8 -4 8 C-4 6.68 -4 5.36 -4 4 C-2.68 4 -1.36 4 0 4 C0 2.68 0 1.36 0 0 Z " fill="#5D33B8" transform="translate(285,153)"/>
<path d="M0 0 C1.32 0 2.64 0 4 0 C4 1.32 4 2.64 4 4 C5.32 4 6.64 4 8 4 C8 5.32 8 6.64 8 8 C6.68 8 5.36 8 4 8 C4.33 11.3 4.66 14.6 5 18 C5.99 18.33 6.98 18.66 8 19 C8 20.32 8 21.64 8 23 C4.625 23.125 4.625 23.125 1 23 C-1 21 -1 21 -1.1953125 17.9609375 C-1.16050781 16.18589844 -1.16050781 16.18589844 -1.125 14.375 C-1.10695313 13.18648437 -1.08890625 11.99796875 -1.0703125 10.7734375 C-1.04710937 9.85820312 -1.02390625 8.94296875 -1 8 C-1.99 8 -2.98 8 -4 8 C-4 6.68 -4 5.36 -4 4 C-2.68 4 -1.36 4 0 4 C0 2.68 0 1.36 0 0 Z " fill="#5A2FB7" transform="translate(399,153)"/>
<path d="M0 0 C1.65 0 3.3 0 5 0 C5 8.58 5 17.16 5 26 C3.35 26 1.7 26 0 26 C0 17.42 0 8.84 0 0 Z " fill="#5226B4" transform="translate(274,150)"/>
<path d="M0 0 C1.65 0 3.3 0 5 0 C5 8.58 5 17.16 5 26 C3.68 26 2.36 26 1 26 C0.20354316 17.31008699 -0.12852505 8.72542301 0 0 Z " fill="#5428B5" transform="translate(193,150)"/>
<path d="M0 0 C2 3 2 3 1.8125 5.5 C0.91748958 8.25387823 0.46683286 9.46886237 -2 11 C-5.0625 10.875 -5.0625 10.875 -8 10 C-10.15502531 6.76746204 -10.46856135 5.74849077 -10 2 C-7.59684073 -2.24086929 -4.21511384 -1.07293807 0 0 Z " fill="#149354" transform="translate(288,1)"/>
<path d="M0 0 C2.125 1.5 2.125 1.5 3.1875 3.875 C3.125 6.5 3.125 6.5 1.625 8.8125 C-1.71903288 11.06972219 -3.92033228 10.93940752 -7.875 10.5 C-9.875 8.5 -9.875 8.5 -10 5.375 C-9.95875 4.42625 -9.9175 3.4775 -9.875 2.5 C-3.70667082 -0.6446384 -3.70667082 -0.6446384 0 0 Z " fill="#5E34B9" transform="translate(459.875,165.5)"/>
<path d="M0 0 C2.125 1.5 2.125 1.5 3.1875 3.875 C3.125 6.5 3.125 6.5 1.625 8.8125 C-1.71903288 11.06972219 -3.92033228 10.93940752 -7.875 10.5 C-9.875 8.5 -9.875 8.5 -10 5.375 C-9.95875 4.42625 -9.9175 3.4775 -9.875 2.5 C-3.70667082 -0.6446384 -3.70667082 -0.6446384 0 0 Z " fill="#5E34B9" transform="translate(262.875,165.5)"/>
<path d="M0 0 C2.9375 0.8125 2.9375 0.8125 4.9375 3.8125 C4.6133631 7.13490324 4.32973697 8.42026303 1.9375 10.8125 C-1.0625 11.0625 -1.0625 11.0625 -4.0625 10.8125 C-6.0625 8.8125 -6.0625 8.8125 -6.375 5.3125 C-6.271875 4.1575 -6.16875 3.0025 -6.0625 1.8125 C-3.0625 -0.1875 -3.0625 -0.1875 0 0 Z " fill="#119152" transform="translate(314.0625,70.1875)"/>
<path d="M0 0 C1.65 0 3.3 0 5 0 C5 6.27 5 12.54 5 19 C3.35 19 1.7 19 0 19 C0 12.73 0 6.46 0 0 Z " fill="#5225B4" transform="translate(471,157)"/>
<path d="M0 0 C2.5 0.25 2.5 0.25 4.5 2.25 C5.05555556 8.36111111 5.05555556 8.36111111 3.25 11.25 C1.5 12.25 1.5 12.25 -0.5625 12.125 C-2.5 11.25 -2.5 11.25 -4.5 8.25 C-4.75 5.1875 -4.75 5.1875 -4.5 2.25 C-2.5 0.25 -2.5 0.25 0 0 Z " fill="#F6F3FB" transform="translate(167.5,160.75)"/>
<path d="M0 0 C1.2375 0.1546875 1.2375 0.1546875 2.5 0.3125 C4.81282587 3.78173881 4.92478586 5.23455575 4.5 9.3125 C3.25 11.25 3.25 11.25 1.5 12.3125 C-1.47397616 12.04213853 -2.35446026 11.45803974 -4.5 9.3125 C-4.75 5.8125 -4.75 5.8125 -4.5 2.3125 C-2.5 0.3125 -2.5 0.3125 0 0 Z " fill="#F5F3FB" transform="translate(146.5,160.6875)"/>
<path d="M0 0 C1.2684375 0.12375 1.2684375 0.12375 2.5625 0.25 C4.5625 3.25 4.5625 3.25 4.25 6.875 C3.5625 10.25 3.5625 10.25 2.5625 11.25 C0.0625 11.375 0.0625 11.375 -2.4375 11.25 C-3.4375 10.25 -3.4375 10.25 -3.5703125 8.21875 C-3.56773437 7.4040625 -3.56515625 6.589375 -3.5625 5.75 C-3.56507813 4.9353125 -3.56765625 4.120625 -3.5703125 3.28125 C-3.37460887 0.2881356 -2.9962985 0.30731267 0 0 Z " fill="#F7F5FB" transform="translate(188.4375,160.75)"/>
<path d="M0 0 C-0.99 0.8971875 -0.99 0.8971875 -2 1.8125 C-4.3373846 3.87501834 -4.3373846 3.87501834 -4 7 C-2.35 7 -0.7 7 1 7 C0.34 8.32 -0.32 9.64 -1 11 C-4.375 11.125 -4.375 11.125 -8 11 C-10 9 -10 9 -10.4375 6.0625 C-10 3 -10 3 -7.8125 1.125 C-4.94481501 -0.022074 -3.05159307 -0.26156512 0 0 Z " fill="#5C32B8" transform="translate(358,165)"/>
<path d="M0 0 C2.5625 0.1875 2.5625 0.1875 4.5625 2.1875 C4.8125 4.6875 4.8125 4.6875 4.5625 7.1875 C3.9025 7.8475 3.2425 8.5075 2.5625 9.1875 C-0.73464793 8.85778521 -2.0601839 8.5648161 -4.4375 6.1875 C-3.71780303 0.28598485 -3.71780303 0.28598485 0 0 Z " fill="#129253" transform="translate(322.4375,61.8125)"/>
<path d="M0 0 C4.29 0 8.58 0 13 0 C12.01 0.33 11.02 0.66 10 1 C10 1.66 10 2.32 10 3 C9.34 3 8.68 3 8 3 C8 3.66 8 4.32 8 5 C5.6875 5.625 5.6875 5.625 3 6 C2.01 5.34 1.02 4.68 0 4 C0 2.68 0 1.36 0 0 Z " fill="#DFD7F1" transform="translate(238,167)"/>
<path d="M0 0 C1.65 0 3.3 0 5 0 C5.25 5.625 5.25 5.625 3 9 C2.01 9 1.02 9 0 9 C0 6.03 0 3.06 0 0 Z " fill="#5D33B8" transform="translate(389,150)"/>
<path d="M0 0 C1.65 0 3.3 0 5 0 C5.625 2.375 5.625 2.375 6 5 C5.34 5.66 4.68 6.32 4 7 C1.875 6.625 1.875 6.625 0 6 C-1.125 2.25 -1.125 2.25 0 0 Z " fill="#1B9659" transform="translate(285,14)"/>
<path d="M0 0 C-0.3125 1.875 -0.3125 1.875 -1 4 C-4 6 -4 6 -6.1875 5.625 C-6.785625 5.41875 -7.38375 5.2125 -8 5 C-7.625 3.0625 -7.625 3.0625 -7 1 C-4.53721199 -0.231394 -2.7204945 -0.07159196 0 0 Z " fill="#E2DBF2" transform="translate(361,167)"/>
<path d="M0 0 C-0.33 1.32 -0.66 2.64 -1 4 C-3.31 4.33 -5.62 4.66 -8 5 C-8.33 4.01 -8.66 3.02 -9 2 C-5.5647952 -0.29013653 -4.014669 -0.17842973 0 0 Z " fill="#EAE5F6" transform="translate(462,161)"/>
<path d="M0 0 C-0.33 1.32 -0.66 2.64 -1 4 C-3.31 4.33 -5.62 4.66 -8 5 C-8.33 4.01 -8.66 3.02 -9 2 C-5.5647952 -0.29013653 -4.014669 -0.17842973 0 0 Z " fill="#EAE5F6" transform="translate(265,161)"/>
<path d="M0 0 C1.65 0.33 3.3 0.66 5 1 C4.67 2.65 4.34 4.3 4 6 C2.35 5.67 0.7 5.34 -1 5 C-0.67 3.35 -0.34 1.7 0 0 Z " fill="#119152" transform="translate(311,60)"/>
<path d="M0 0 C1.2065625 0.0309375 1.2065625 0.0309375 2.4375 0.0625 C3 2 3 2 3.4375 4.0625 C2.4375 5.0625 2.4375 5.0625 -0.125 5.125 C-1.3315625 5.0940625 -1.3315625 5.0940625 -2.5625 5.0625 C-3.125 3.125 -3.125 3.125 -3.5625 1.0625 C-2.5625 0.0625 -2.5625 0.0625 0 0 Z " fill="#6F4AC0" transform="translate(473.5625,148.9375)"/>
<path d="M0 0 C-0.57344937 2.86724686 -0.8614515 3.8614515 -3 6 C-5.125 5.625 -5.125 5.625 -7 5 C-6.67 3.68 -6.34 2.36 -6 1 C-3.92446352 0.4465236 -2.15634036 0 0 0 Z " fill="#F4F1FA" transform="translate(462,167)"/>
<path d="M0 0 C-0.57344937 2.86724686 -0.8614515 3.8614515 -3 6 C-5.125 5.625 -5.125 5.625 -7 5 C-6.67 3.68 -6.34 2.36 -6 1 C-3.92446352 0.4465236 -2.15634036 0 0 0 Z " fill="#F3F0FA" transform="translate(265,167)"/>
<path d="M0 0 C1.65 0 3.3 0 5 0 C5.33 1.32 5.66 2.64 6 4 C3.36 4 0.72 4 -2 4 C-1.34 2.68 -0.68 1.36 0 0 Z " fill="#E9E3F5" transform="translate(240,161)"/>
<path d="M0 0 C1.98 0 3.96 0 6 0 C6 1.32 6 2.64 6 4 C3.69 4 1.38 4 -1 4 C-0.67 2.68 -0.34 1.36 0 0 Z " fill="#F2EFF9" transform="translate(354,161)"/>
</svg>
