<?xml version="1.0" encoding="UTF-8"?>
<svg version="1.1" xmlns="http://www.w3.org/2000/svg" width="600" height="600">
<path d="M0 0 C0.69496582 0.49580566 1.38993164 0.99161133 2.10595703 1.50244141 C16.06248782 11.56294587 28.84775078 22.88284608 40 36 C40.51949219 36.60255615 41.03898437 37.2051123 41.57421875 37.82592773 C50.49226645 48.23553029 58.03541364 59.20273701 65 71 C65.37463379 71.62664551 65.74926758 72.25329102 66.13525391 72.89892578 C76.93046628 91.17125381 89 116.46328563 89 138 C89.99966797 138.20302734 89.99966797 138.20302734 91.01953125 138.41015625 C104.42348459 141.54086983 114.50970608 149.10302973 121.75 160.6875 C127.97073041 171.91277307 129.86734478 184.02315046 126.875 196.5625 C122.40687929 210.93909209 113.90267526 220.42610596 100.8046875 227.625 C96.0641279 229.94906264 92.34476778 231 87 231 C86.88897949 231.61093506 86.77795898 232.22187012 86.66357422 232.85131836 C82.15874666 256.60053285 71.62375257 280.08836162 58 300 C57.62697754 300.55123535 57.25395508 301.1024707 56.86962891 301.67041016 C49.36022966 312.71183767 41.10990473 323.2712417 31.4609375 332.53515625 C29.78283475 334.15928429 29.78283475 334.15928429 27.75 336.875 C24.64807564 340.69665191 20.77125412 343.59859546 16.9375 346.65234375 C15.08061717 348.13636846 13.24403551 349.64648793 11.4375 351.19140625 C-19.04668475 377.168021 -58.53113632 392.78738645 -98 398 C-98.70068604 398.09571289 -99.40137207 398.19142578 -100.12329102 398.29003906 C-121.43320251 400.82460809 -145.01903533 400.48820636 -166 396 C-167.46687256 395.69400879 -167.46687256 395.69400879 -168.96337891 395.38183594 C-183.35587509 392.31637481 -197.30536878 388.3935423 -211 383 C-211.74233887 382.70931641 -212.48467773 382.41863281 -213.24951172 382.11914062 C-231.10369821 374.9884847 -248.04962818 365.08157972 -263 353 C-263.79535156 352.39414062 -264.59070313 351.78828125 -265.41015625 351.1640625 C-281.72695539 338.58818804 -295.89551643 323.62992611 -308 307 C-308.39654785 306.45988281 -308.7930957 305.91976563 -309.20166016 305.36328125 C-320.45992971 289.84226125 -338 264.79538299 -338 245 C-330.74 245 -323.48 245 -316 245 C-315.38253906 246.4746875 -314.76507813 247.949375 -314.12890625 249.46875 C-299.7367639 283.46309341 -279.61068885 313.32130632 -249.76318359 335.67675781 C-248.08730314 336.93448034 -246.42850494 338.2123063 -244.76953125 339.4921875 C-202.55529316 371.4410233 -148.24973741 382.83547339 -96.39453125 375.96875 C-57.19608036 370.29783378 -20.57523166 352.67511475 8.25390625 325.5546875 C10.51333948 323.45273966 12.81192836 321.46631474 15.1875 319.5 C20.11038574 315.21658189 23.98895393 310.12076882 28 305 C28.7940625 304.03320312 29.588125 303.06640625 30.40625 302.0703125 C44.26492233 284.8346852 65 253.94985177 65 231 C64.00033203 230.70609375 64.00033203 230.70609375 62.98046875 230.40625 C49.48645806 226.0277738 38.67595146 217.16299487 32.06640625 204.5546875 C26.49738795 191.21352278 27.1163389 178.50546886 31.9375 165.125 C36.58029126 154.52851171 45.4138391 145.66666662 56 141 C58.09204318 140.40023839 60.19880332 139.84976828 62.31640625 139.34765625 C63.3844751 139.09121338 64.45254395 138.83477051 65.55297852 138.57055664 C66.36049561 138.38227295 67.1680127 138.19398926 68 138 C63.83485839 122.41581848 58.93536133 107.57817095 52 93 C51.64180176 92.24638184 51.28360352 91.49276367 50.91455078 90.71630859 C28.31821338 44.02410567 -13.95717753 9.39356692 -62.28515625 -8.109375 C-82.72447845 -15.12612536 -103.64488487 -18.41698747 -125.1875 -18.3125 C-126.33445343 -18.31026428 -126.33445343 -18.31026428 -127.50457764 -18.3079834 C-139.56575098 -18.26583896 -151.17917453 -17.54506284 -163 -15 C-163.71671875 -14.85546387 -164.4334375 -14.71092773 -165.171875 -14.56201172 C-170.16507658 -13.54832893 -175.08834141 -12.35363382 -180 -11 C-180.68674805 -10.81131348 -181.37349609 -10.62262695 -182.08105469 -10.42822266 C-213.80426279 -1.41611537 -241.34364378 16.44875823 -265 39 C-266.09248047 40.03060547 -266.09248047 40.03060547 -267.20703125 41.08203125 C-280.54908366 54.00303269 -291.28602055 69.66678423 -300 86 C-300.32709961 86.60505371 -300.65419922 87.21010742 -300.99121094 87.83349609 C-307.07724003 99.17726056 -311.55067596 110.92326331 -316 123 C-323.26 123 -330.52 123 -338 123 C-329.44218101 84.48981455 -307.89048888 52.16529724 -281 24 C-280.36707031 23.32582031 -279.73414063 22.65164062 -279.08203125 21.95703125 C-216.57984984 -42.92052998 -112.31785867 -55.47250715 0 0 Z M57.47265625 167.03125 C52.8047457 173.2716397 51.26893043 179.21755209 51.546875 187 C52.64721048 194.28497975 56.35389334 200.31786277 62 205 C69.38516787 210.42583762 75.94586491 210.88663765 85 210 C92.89563558 207.76435733 97.82438043 202.92773246 102 196 C105.10111499 189.6312672 105.05529645 182.20854752 103.34765625 175.3984375 C100.48818359 168.25589207 95.58337379 163.05864473 88.75 159.5625 C77.61216345 155.19435018 65.42745026 158.15497867 57.47265625 167.03125 Z " fill="#EC2238" transform="translate(436,120)"/>
<path d="M0 0 C7.693125 -0.061875 15.38625 -0.12375 23.3125 -0.1875 C25.71829346 -0.21481201 28.12408691 -0.24212402 30.6027832 -0.27026367 C32.54377747 -0.27903858 34.48477733 -0.28668013 36.42578125 -0.29296875 C37.89597717 -0.3159906 37.89597717 -0.3159906 39.39587402 -0.33947754 C50.32090151 -0.34354746 60.28246938 2.22479638 69 9 C76.4231462 16.56409201 78.50668053 24.65009838 78.41967773 34.99389648 C78.08836651 44.10548768 75.40395839 50.32703784 68.87890625 56.625 C66.70140653 58.21851331 64.53294362 59.09630828 62 60 C66.71352483 67.68437323 71.79408853 75.04121459 77.08691406 82.33569336 C77.59319336 83.04089111 78.09947266 83.74608887 78.62109375 84.47265625 C79.0792749 85.10437744 79.53745605 85.73609863 80.00952148 86.38696289 C81 88 81 88 81 90 C59.87272097 92.37180162 59.87272097 92.37180162 53.83300781 88.67285156 C49.87595092 84.79614101 47.33880008 79.97379687 45 75 C42.72129603 69.94513714 42.72129603 69.94513714 39 66 C33.41497695 64.91417797 28.81290264 64.95235326 23 65 C23 73.25 23 81.5 23 90 C15.41 90 7.82 90 0 90 C0 60.3 0 30.6 0 0 Z M23 19 C23 27.91 23 36.82 23 46 C26.485625 46.0825 29.97125 46.165 33.5625 46.25 C34.64732666 46.28641602 35.73215332 46.32283203 36.84985352 46.36035156 C43.14348484 46.43213983 46.90886489 45.78413672 52 42 C54.9741633 37.68266618 55.6486549 34.18923924 55 29 C52.71645754 24.60206636 50.47668358 22.1264247 46 20 C43.08470394 19.11529813 40.4935769 18.88180016 37.453125 18.90234375 C36.69161133 18.90484131 35.93009766 18.90733887 35.14550781 18.90991211 C34.18999023 18.91901611 33.23447266 18.92812012 32.25 18.9375 C29.1975 18.958125 26.145 18.97875 23 19 Z " fill="#EC2238" transform="translate(377,260)"/>
<path d="M0 0 C7.59 0 15.18 0 23 0 C23 11.22 23 22.44 23 34 C35.21 34 47.42 34 60 34 C60 22.78 60 11.56 60 0 C67.59 0 75.18 0 83 0 C83 29.7 83 59.4 83 90 C75.41 90 67.82 90 60 90 C60 78.12 60 66.24 60 54 C47.79 54 35.58 54 23 54 C23 65.88 23 77.76 23 90 C15.41 90 7.82 90 0 90 C0 60.3 0 30.6 0 0 Z " fill="#EC2337" transform="translate(36,260)"/>
<path d="M0 0 C23.1 0 46.2 0 70 0 C70 6.27 70 12.54 70 19 C54.49 19 38.98 19 23 19 C23 24.28 23 29.56 23 35 C36.2 35 49.4 35 63 35 C63 40.94 63 46.88 63 53 C49.8 53 36.6 53 23 53 C23 58.61 23 64.22 23 70 C38.51 70 54.02 70 70 70 C70 76.6 70 83.2 70 90 C46.9 90 23.8 90 0 90 C0 60.3 0 30.6 0 0 Z " fill="#EC2338" transform="translate(130,260)"/>
<path d="M0 0 C22.77 0 45.54 0 69 0 C69 6.27 69 12.54 69 19 C53.82 19 38.64 19 23 19 C23 24.28 23 29.56 23 35 C36.2 35 49.4 35 63 35 C63 40.94 63 46.88 63 53 C49.8 53 36.6 53 23 53 C23 58.61 23 64.22 23 70 C38.51 70 54.02 70 70 70 C70 76.6 70 83.2 70 90 C46.9 90 23.8 90 0 90 C0 60.3 0 30.6 0 0 Z " fill="#EC2338" transform="translate(298,260)"/>
<path d="M0 0 C25.74 0 51.48 0 78 0 C78 6.27 78 12.54 78 19 C69.09 19 60.18 19 51 19 C51 42.43 51 65.86 51 90 C43.08 90 35.16 90 27 90 C27 66.57 27 43.14 27 19 C18.09 19 9.18 19 0 19 C0 12.73 0 6.46 0 0 Z " fill="#EC2338" transform="translate(210,260)"/>
<path d="M0 0 C198 0 396 0 600 0 C600 198 600 396 600 600 C402 600 204 600 0 600 C0 402 0 204 0 0 Z M1 1 C1 198.34 1 395.68 1 599 C198.34 599 395.68 599 599 599 C599 401.66 599 204.32 599 1 C401.66 1 204.32 1 1 1 Z " fill="#FDFDFD" transform="translate(0,0)"/>
</svg>
