<?xml version="1.0" encoding="UTF-8"?>
<svg version="1.1" xmlns="http://www.w3.org/2000/svg" width="290" height="75">
<path d="M0 0 C8.94597449 5.25479877 13.8127356 12.48653939 16.6015625 22.4765625 C19.55367816 36.21795803 17.56481449 48.75629167 10.2265625 60.73828125 C8.7265625 62.6015625 8.7265625 62.6015625 5.7265625 63.6015625 C5.7265625 64.2615625 5.7265625 64.9215625 5.7265625 65.6015625 C-2.45461113 70.38677726 -8.67495252 71.41642837 -18.2734375 70.6015625 C-21.35610863 69.57995369 -23.51702348 68.36566747 -26.2734375 66.6015625 C-26.2734375 65.9415625 -26.2734375 65.2815625 -26.2734375 64.6015625 C-27.2634375 64.2715625 -28.2534375 63.9415625 -29.2734375 63.6015625 C-29.2734375 62.9415625 -29.2734375 62.2815625 -29.2734375 61.6015625 C-29.9334375 61.6015625 -30.5934375 61.6015625 -31.2734375 61.6015625 C-38.54237412 48.09231237 -41.97027531 35.95785736 -37.5234375 20.7265625 C-35.90861453 15.96860196 -34.01195701 11.80714604 -31.2734375 7.6015625 C-30.6134375 7.6015625 -29.9534375 7.6015625 -29.2734375 7.6015625 C-28.9434375 6.6115625 -28.6134375 5.6215625 -28.2734375 4.6015625 C-27.6134375 4.6015625 -26.9534375 4.6015625 -26.2734375 4.6015625 C-26.2734375 3.9415625 -26.2734375 3.2815625 -26.2734375 2.6015625 C-18.56291195 -2.43388276 -8.61029034 -3.67838179 0 0 Z M-27.2734375 9.6015625 C-27.9334375 10.5915625 -28.5934375 11.5815625 -29.2734375 12.6015625 C-27.89858218 14.14322892 -27.89858218 14.14322892 -26.2734375 15.6015625 C-25.6134375 15.6015625 -24.9534375 15.6015625 -24.2734375 15.6015625 C-24.2734375 16.2615625 -24.2734375 16.9215625 -24.2734375 17.6015625 C-23.6134375 17.6015625 -22.9534375 17.6015625 -22.2734375 17.6015625 C-22.3559375 16.6734375 -22.4384375 15.7453125 -22.5234375 14.7890625 C-22.2734375 11.6015625 -22.2734375 11.6015625 -20.4609375 9.7890625 C-15.77953779 7.24773123 -11.47767987 7.11394184 -6.2734375 7.6015625 C-2.7734375 8.7890625 -2.7734375 8.7890625 -0.2734375 10.6015625 C0.58180016 13.10618709 0.7265625 14.98250012 0.7265625 17.6015625 C3.61094029 16.30856556 5.59875671 14.94214887 7.7265625 12.6015625 C3.38476832 6.81250359 -0.50050386 3.56194561 -7.7109375 1.7265625 C-15.92591149 1.4383178 -21.33603638 4.1241009 -27.2734375 9.6015625 Z M-31.2734375 15.6015625 C-35.96783529 24.83892589 -37.62084355 34.37107642 -35.2734375 44.6015625 C-34.09599097 48.00945653 -32.74956607 51.31288536 -31.2734375 54.6015625 C-27.49309127 51.12420224 -27.49309127 51.12420224 -25.2734375 46.6015625 C-25.6034375 45.6115625 -25.9334375 44.6215625 -26.2734375 43.6015625 C-26.39642124 40.81869782 -26.45857321 38.07182862 -26.4609375 35.2890625 C-26.47318359 34.54205078 -26.48542969 33.79503906 -26.49804688 33.02539062 C-26.51000224 28.48633813 -25.99295605 24.87657108 -24.2734375 20.6015625 C-26.5834375 18.9515625 -28.8934375 17.3015625 -31.2734375 15.6015625 Z M5.0390625 19.1015625 C4.2759375 19.9265625 3.5128125 20.7515625 2.7265625 21.6015625 C3.05269531 22.436875 3.37882812 23.2721875 3.71484375 24.1328125 C4.83138212 27.96094407 4.95856012 31.12104801 4.9140625 35.1015625 C4.90761719 36.37 4.90117188 37.6384375 4.89453125 38.9453125 C4.7265625 42.6015625 4.7265625 42.6015625 4.0625 45.859375 C3.46918048 48.54849464 3.46918048 48.54849464 4.72265625 50.5 C5.19832031 50.98726562 5.67398438 51.47453125 6.1640625 51.9765625 C7.0096875 52.8428125 7.8553125 53.7090625 8.7265625 54.6015625 C14.32403047 47.98637308 14.8699312 39.54658448 14.66796875 31.171875 C14.22087791 25.89802796 12.76452289 21.47494605 10.7265625 16.6015625 C7.48090392 16.26101053 7.48090392 16.26101053 5.0390625 19.1015625 Z M-26.2734375 59.6015625 C-21.38228315 64.49271685 -18.88799196 66.58474509 -12.2734375 67.6015625 C-5.31684727 67.35728529 -0.51894666 65.048842 4.7265625 60.6015625 C4.7265625 60.2715625 4.7265625 59.9415625 4.7265625 59.6015625 C-5.5034375 59.6015625 -15.7334375 59.6015625 -26.2734375 59.6015625 Z " fill="#1F2A94" transform="translate(44.2734375,2.3984375)"/>
<path d="M0 0 C20 0 20 0 26 4 C29.33049846 8.24925666 30.34898688 12.66876163 29.78515625 18.05078125 C28.79959106 23.03492522 26.96531486 25.66078749 23 29 C25.09372792 33.6502799 28.2673356 37.48653444 31.3203125 41.5390625 C33 44 33 44 33 46 C29.36237936 46.97519192 26.61012991 47.16250107 23 46 C20.31292082 43.37613511 18.35692143 40.25512028 16.40087891 37.06787109 C13.81067686 32.68190748 13.81067686 32.68190748 9 31 C9 35.95 9 40.9 9 46 C6.03 46 3.06 46 0 46 C0 30.82 0 15.64 0 0 Z M9 8 C9 12.95 9 17.9 9 23 C14.37284459 23.34666783 14.37284459 23.34666783 19.4375 21.9375 C21.76034026 19.05717808 21.87213096 16.64426778 22 13 C21.04357118 10.20428498 20.64701022 9.32350511 18 8 C14.99525503 7.86440682 12.00931153 7.95700984 9 8 Z " fill="#002365" transform="translate(155,5)"/>
<path d="M0 0 C1.32 0.66 2.64 1.32 4 2 C4 4.97 4 7.94 4 11 C1 11 1 11 -1.1875 9.9375 C-4.9772253 8.67425823 -8.21115911 8.96937596 -12 10 C-16.02776484 12.16305889 -18.29917195 13.77112299 -20 18 C-20.72798272 22.65570345 -20.42814156 26.14371687 -18.3125 30.375 C-15.50666632 33.56000039 -13.39237172 35.64989682 -9.078125 36.28125 C-4.49129232 36.48817478 -1.79128328 35.73814904 2 33 C3.3255033 32.31789794 4.65776538 31.64855875 6 31 C6.28328215 34.70784854 6.44255373 38.301125 6 42 C3.75 44.125 3.75 44.125 1 45 C0.1028125 45.3403125 0.1028125 45.3403125 -0.8125 45.6875 C-8.39095322 46.77013617 -14.3043611 45.80204621 -21 42 C-26.3785442 37.54606927 -29.41070886 31.66522151 -30.28125 24.7734375 C-30.55501399 18.13466076 -28.78142822 12.9462082 -25.375 7.3125 C-17.8729302 0.00785309 -10.31118077 -1.21987817 0 0 Z " fill="#002365" transform="translate(227,5)"/>
<path d="M0 0 C1.11503906 -0.00515625 2.23007813 -0.0103125 3.37890625 -0.015625 C6.4375 0.25 6.4375 0.25 10.4375 2.25 C10.4375 5.55 10.4375 8.85 10.4375 12.25 C9.7775 11.940625 9.1175 11.63125 8.4375 11.3125 C3.40223445 9.52917679 -0.67565918 8.59686279 -5.8125 10.375 C-9.48361739 12.87803458 -11.89244251 14.95018976 -13.16796875 19.328125 C-13.86145579 23.36545548 -13.87219509 26.42761053 -12 30.125 C-8.95745596 34.02569749 -6.53850145 35.77383977 -1.609375 36.5625 C3.56577548 36.87853972 6.27702918 35.44291946 10.4375 32.25 C11.4275 31.92 12.4175 31.59 13.4375 31.25 C13.72078595 34.95789838 13.87465494 38.55057635 13.4375 42.25 C9.72776127 45.8537462 5.17913121 46.11602837 0.1875 46.5 C-7.50891705 45.98690553 -12.68481162 43.82615535 -18.0546875 38.26171875 C-23.29587163 31.26894717 -23.4146095 24.71299666 -22.5625 16.25 C-20.91768496 10.04278132 -16.8748354 5.71792789 -11.5625 2.25 C-7.62247986 0.29330081 -4.37895019 -0.02029641 0 0 Z " fill="#002365" transform="translate(129.5625,4.75)"/>
<path d="M0 0 C4.02971313 3.06608608 6.04030607 6.37953854 8 11 C8.36328125 14.5078125 8.36328125 14.5078125 8.3125 18.125 C8.30863281 19.32382812 8.30476563 20.52265625 8.30078125 21.7578125 C8.02185989 24.76436738 7.57769546 26.47317301 6 29 C5.236875 28.835 4.47375 28.67 3.6875 28.5 C-3.38094216 27.54156716 -10.33104709 27.11612847 -17 30 C-19.78516016 22.68895457 -21.36987865 16.90659132 -18.3125 9.375 C-14.16002021 0.71538023 -9.2075869 -2.31386499 0 0 Z " fill="#9DA2C4" transform="translate(39,19)"/>
<path d="M0 0 C2.97 0 5.94 0 9 0 C9.07457894 4.57149757 9.12880276 9.14263509 9.16479492 13.71459961 C9.17981105 15.2673968 9.20023028 16.82015209 9.22631836 18.37280273 C9.26302073 20.61452624 9.27979787 22.85568539 9.29296875 25.09765625 C9.30845261 25.78336197 9.32393646 26.46906769 9.33988953 27.17555237 C9.34179375 32.72331881 8.164422 37.42578076 4.53515625 41.7421875 C-0.93205304 45.94773311 -4.18102494 46.13113414 -11 46 C-11 43.03 -11 40.06 -11 37 C-10.36191406 36.87882812 -9.72382812 36.75765625 -9.06640625 36.6328125 C-7.82697266 36.38144531 -7.82697266 36.38144531 -6.5625 36.125 C-5.32693359 35.88136719 -5.32693359 35.88136719 -4.06640625 35.6328125 C-3.38449219 35.42398438 -2.70257813 35.21515625 -2 35 C-0.50016915 32.0003383 -0.76097945 28.88053039 -0.68359375 25.5859375 C-0.66281265 24.85629791 -0.64203156 24.12665833 -0.62062073 23.37490845 C-0.55518083 21.04170237 -0.49626632 18.70838279 -0.4375 16.375 C-0.39430947 14.79425905 -0.35069501 13.21352961 -0.30664062 11.6328125 C-0.19950519 7.75532496 -0.09822218 3.87772315 0 0 Z " fill="#002365" transform="translate(87,5)"/>
<path d="M0 0 C4.15096454 0.24417438 6.45370849 0.56544994 9.75 3.1875 C13.91475917 8.39344896 15.40628745 12.44444807 15.3125 19.125 C15.30863281 20.32382812 15.30476563 21.52265625 15.30078125 22.7578125 C15.02185989 25.76436738 14.57769546 27.47317301 13 30 C12.236875 29.835 11.47375 29.67 10.6875 29.5 C3.61905784 28.54156716 -3.33104709 28.11612847 -10 31 C-10.33 29.68 -10.66 28.36 -11 27 C-6.38 27 -1.76 27 3 27 C3 24.03 3 21.06 3 18 C3.66 17.67 4.32 17.34 5 17 C4.67 14.69 4.34 12.38 4 10 C4.99 10 5.98 10 7 10 C7 7.69 7 5.38 7 3 C4.36 2.67 1.72 2.34 -1 2 C-0.67 1.34 -0.34 0.68 0 0 Z " fill="#E1E2ED" transform="translate(32,18)"/>
<path d="M0 0 C1.7265625 1.546875 1.7265625 1.546875 4.7265625 6.546875 C-6.8234375 6.546875 -18.3734375 6.546875 -30.2734375 6.546875 C-26.88081406 0.8925026 -26.88081406 0.8925026 -23.3359375 -1.203125 C-22.66691406 -1.61046875 -21.99789063 -2.0178125 -21.30859375 -2.4375 C-13.89845762 -6.13545661 -6.71079437 -4.25293141 0 0 Z " fill="#CBCDC7" transform="translate(46.2734375,52.453125)"/>
<path d="M0 0 C1.60546875 0.9921875 1.60546875 0.9921875 2.66796875 3.5546875 C2.60546875 5.9921875 2.60546875 5.9921875 1.60546875 7.9921875 C2.22421875 7.4971875 2.84296875 7.0021875 3.48046875 6.4921875 C5.60546875 4.9921875 5.60546875 4.9921875 7.60546875 4.9921875 C7.93546875 4.3321875 8.26546875 3.6721875 8.60546875 2.9921875 C8.93546875 3.9821875 9.26546875 4.9721875 9.60546875 5.9921875 C8.75984375 6.9203125 7.91421875 7.8484375 7.04296875 8.8046875 C5.59897294 10.32260676 5.59897294 10.32260676 4.60546875 11.9921875 C5.20927346 15.05420196 5.20927346 15.05420196 6.60546875 17.9921875 C6.73046875 21.3671875 6.73046875 21.3671875 6.60546875 23.9921875 C5.94546875 23.9921875 5.28546875 23.9921875 4.60546875 23.9921875 C4.60546875 25.6421875 4.60546875 27.2921875 4.60546875 28.9921875 C4.27546875 28.9921875 3.94546875 28.9921875 3.60546875 28.9921875 C3.56808594 28.26773438 3.53070313 27.54328125 3.4921875 26.796875 C3.10793597 21.14611728 2.53700726 16.96305714 -0.39453125 11.9921875 C-0.39453125 11.3321875 -0.39453125 10.6721875 -0.39453125 9.9921875 C-3.2835775 8.37984962 -5.67057806 7.6438984 -8.95703125 7.3046875 C-10.10365234 7.17513672 -10.10365234 7.17513672 -11.2734375 7.04296875 C-13.58595608 6.86774957 -13.58595608 6.86774957 -16.39453125 7.9921875 C-17.38453125 7.6621875 -18.37453125 7.3321875 -19.39453125 6.9921875 C-19.72453125 5.3421875 -20.05453125 3.6921875 -20.39453125 1.9921875 C-13.9580476 -3.11260988 -7.45666751 -3.02882046 0 0 Z " fill="#1B2693" transform="translate(43.39453125,12.0078125)"/>
<path d="M0 0 C1.65 0 3.3 0 5 0 C5.66 0.99 6.32 1.98 7 3 C9.42099355 3.4164535 9.42099355 3.4164535 12.2265625 3.29296875 C13.2578125 3.28330078 14.2890625 3.27363281 15.3515625 3.26367188 C16.97191406 3.2259668 16.97191406 3.2259668 18.625 3.1875 C19.71296875 3.17396484 20.8009375 3.16042969 21.921875 3.14648438 C24.61507409 3.11104754 27.30729374 3.06164331 30 3 C30 5.31 30 7.62 30 10 C28.37509046 10.02698189 26.75005367 10.04638757 25.125 10.0625 C23.76761719 10.07990234 23.76761719 10.07990234 22.3828125 10.09765625 C20 10 20 10 18 9 C16.88625 9.165 15.7725 9.33 14.625 9.5 C11.40928771 9.94354652 9.9631016 9.95242551 7 9 C6.01 9 5.02 9 4 9 C3.34 9 2.68 9 2 9 C1.01 9.495 1.01 9.495 0 10 C0 6.7 0 3.4 0 0 Z M2 2 C2 2.66 2 3.32 2 4 C2.66 4 3.32 4 4 4 C4 3.34 4 2.68 4 2 C3.34 2 2.68 2 2 2 Z M5 5 C6 7 6 7 6 7 Z M12 5 C13 7 13 7 13 7 Z " fill="#434343" transform="translate(147,59)"/>
<path d="M0 0 C2.64 0.66 5.28 1.32 8 2 C7.70703125 4.05078125 7.4140625 6.1015625 7.12109375 8.15234375 C7.08113281 8.76207031 7.04117188 9.37179688 7 10 C7.33 10.33 7.66 10.66 8 11 C8.04080783 12.99958364 8.04254356 15.00045254 8 17 C5.33333333 14.33333333 2.66666667 11.66666667 0 9 C-0.66 13.29 -1.32 17.58 -2 22 C-2.66 22 -3.32 22 -4 22 C-4.33 22.66 -4.66 23.32 -5 24 C-6.96550296 15.89230028 -5.83933427 10.23027913 -2 3 C-1.34 2.01 -0.68 1.02 0 0 Z " fill="#F7F7F9" transform="translate(25,21)"/>
<path d="M0 0 C4.15096454 0.24417438 6.45370849 0.56544994 9.75 3.1875 C15.46869245 10.33586557 15.35686845 16.09150616 15 25 C11.71669856 22.07651242 11.04133067 19.24542505 10 15 C10.99 14.67 11.98 14.34 13 14 C12.34 12.68 11.68 11.36 11 10 C10.01 10 9.02 10 8 10 C8.3403125 10.99 8.3403125 10.99 8.6875 12 C9.1105296 16.06108418 8.07414739 19.47724174 6 23 C5.01 23.33 4.02 23.66 3 24 C3 22.02 3 20.04 3 18 C3.66 17.67 4.32 17.34 5 17 C4.67 14.69 4.34 12.38 4 10 C4.99 10 5.98 10 7 10 C7 7.69 7 5.38 7 3 C4.36 2.67 1.72 2.34 -1 2 C-0.67 1.34 -0.34 0.68 0 0 Z " fill="#EBEDF1" transform="translate(32,18)"/>
<path d="M0 0 C3.26008643 3.16952847 6.22237877 6.39937989 9 10 C8.525625 10.433125 8.05125 10.86625 7.5625 11.3125 C5.76313043 13.02309613 5.76313043 13.02309613 5 16 C6.98 16 8.96 16 11 16 C11 16.33 11 16.66 11 17 C6.38 17 1.76 17 -3 17 C-3 16.34 -3 15.68 -3 15 C-2.34 15 -1.68 15 -1 15 C-1.01160156 14.41992188 -1.02320312 13.83984375 -1.03515625 13.2421875 C-1.08762174 8.7001754 -0.91751063 4.47286431 0 0 Z " fill="#3B4398" transform="translate(24,28)"/>
<path d="M0 0 C1.6015625 1 1.6015625 1 2.6015625 3.6875 C2.6015625 4.450625 2.6015625 5.21375 2.6015625 6 C-0.51070945 6 -3.33995902 5.54372951 -6.3984375 5 C-6.7284375 3.35 -7.0584375 1.7 -7.3984375 0 C-8.0584375 0 -8.7184375 0 -9.3984375 0 C-10.0584375 1.32 -10.7184375 2.64 -11.3984375 4 C-13.3984375 3 -13.3984375 3 -14.3984375 1 C-16.0484375 2.65 -17.6984375 4.3 -19.3984375 6 C-19.7284375 4.68 -20.0584375 3.36 -20.3984375 2 C-13.95122697 -3.1133049 -7.47150044 -3.00013917 0 0 Z " fill="#DCDEEA" transform="translate(43.3984375,12)"/>
<path d="M0 0 C0 0.99 0 1.98 0 3 C-1.175625 3.0928125 -1.175625 3.0928125 -2.375 3.1875 C-3.24125 3.455625 -4.1075 3.72375 -5 4 C-6.31068333 6.44288628 -6.31068333 6.44288628 -7 9 C-8 10 -8 10 -10.06640625 10.09765625 C-10.89011719 10.08605469 -11.71382812 10.07445312 -12.5625 10.0625 C-13.38878906 10.05347656 -14.21507812 10.04445313 -15.06640625 10.03515625 C-15.70449219 10.02355469 -16.34257812 10.01195312 -17 10 C-13.87479342 3.16361061 -7.54819952 -0.94352494 0 0 Z " fill="#D3D5DC" transform="translate(33,49)"/>
<path d="M0 0 C3.63 0 7.26 0 11 0 C11 2.31 11 4.62 11 7 C9.37536158 7.05395478 7.75021459 7.09277195 6.125 7.125 C5.22007812 7.14820312 4.31515625 7.17140625 3.3828125 7.1953125 C1 7 1 7 -1 5 C-0.67 3.35 -0.34 1.7 0 0 Z M2 1 C2 2.32 2 3.64 2 5 C3.32 4.34 4.64 3.68 6 3 C4.68 2.34 3.36 1.68 2 1 Z " fill="#434343" transform="translate(129,62)"/>
<path d="M0 0 C0.66 0 1.32 0 2 0 C3.125 3.75 3.125 3.75 2 6 C1.77532169 7.53668865 1.59203195 9.07968054 1.4375 10.625 C1.35371094 11.44226562 1.26992188 12.25953125 1.18359375 13.1015625 C1.12300781 13.72804688 1.06242187 14.35453125 1 15 C0.34 15 -0.32 15 -1 15 C-1.33 15.66 -1.66 16.32 -2 17 C-3.26398205 11.78607404 -3.94940666 7.02827787 -1.625 2.0625 C-1.08875 1.381875 -0.5525 0.70125 0 0 Z " fill="#E1E3EE" transform="translate(22,28)"/>
<path d="M0 0 C5.2905277 -0.66131596 8.15696618 0.95446148 12.4609375 3.7109375 C12.96882813 4.13632812 13.47671875 4.56171875 14 5 C14 5.66 14 6.32 14 7 C12.35 7.33 10.7 7.66 9 8 C8.34 7.01 7.68 6.02 7 5 C6.01 5 5.02 5 4 5 C1.8125 4 1.8125 4 0 3 C0 2.01 0 1.02 0 0 Z " fill="#D2D3DA" transform="translate(34,49)"/>
<path d="M0 0 C3.625 0.3125 3.625 0.3125 5.5625 2.3125 C5.913125 2.9725 6.26375 3.6325 6.625 4.3125 C5.625 5.3125 5.625 5.3125 2.90234375 5.41015625 C1.24912109 5.39275391 1.24912109 5.39275391 -0.4375 5.375 C-1.54222656 5.36597656 -2.64695312 5.35695313 -3.78515625 5.34765625 C-5.06712891 5.33025391 -5.06712891 5.33025391 -6.375 5.3125 C-3.98287992 0.36878518 -3.98287992 0.36878518 0 0 Z " fill="#AFB481" transform="translate(33.375,53.6875)"/>
<path d="M0 0 C2.97 0 5.94 0 9 0 C9 1.98 9 3.96 9 6 C7.125 6.625 7.125 6.625 5 7 C4.34 6.34 3.68 5.68 3 5 C2.01 5.66 1.02 6.32 0 7 C0 4.69 0 2.38 0 0 Z " fill="#434343" transform="translate(224,62)"/>
<path d="M0 0 C0.99 0.66 1.98 1.32 3 2 C3 2.99 3 3.98 3 5 C2.34 5.66 1.68 6.32 1 7 C1.99 9.97 2.98 12.94 4 16 C3.34 16 2.68 16 2 16 C1.731875 15.360625 1.46375 14.72125 1.1875 14.0625 C0.11332248 11.66868314 0.11332248 11.66868314 -3 11 C-2.8864371 9.35333797 -2.75882619 7.70763918 -2.625 6.0625 C-2.55539063 5.14597656 -2.48578125 4.22945312 -2.4140625 3.28515625 C-2.27742188 2.53105469 -2.14078125 1.77695312 -2 1 C-1.34 0.67 -0.68 0.34 0 0 Z " fill="#AAB0CD" transform="translate(42,27)"/>
<path d="M0 0 C2.64 0 5.28 0 8 0 C8 2.31 8 4.62 8 7 C7.01 6.67 6.02 6.34 5 6 C3.9790625 6.2784375 3.9790625 6.2784375 2.9375 6.5625 C1.9784375 6.7790625 1.9784375 6.7790625 1 7 C0.34 6.34 -0.32 5.68 -1 5 C-0.625 2.375 -0.625 2.375 0 0 Z M2 1 C2 2.32 2 3.64 2 5 C2.66 4.67 3.32 4.34 4 4 C3.67 3.01 3.34 2.02 3 1 C2.67 1 2.34 1 2 1 Z " fill="#434343" transform="translate(80,62)"/>
<path d="M0 0 C2.97 0 5.94 0 9 0 C9 0.66 9 1.32 9 2 C8.01 2 7.02 2 6 2 C6.33 2.66 6.66 3.32 7 4 C7.66 4 8.32 4 9 4 C8.67 4.99 8.34 5.98 8 7 C7.38125 6.835 6.7625 6.67 6.125 6.5 C3.48243927 5.87822101 2.4501347 5.77493265 0 7 C0 4.69 0 2.38 0 0 Z " fill="#434343" transform="translate(178,62)"/>
<path d="M0 0 C2.64 0 5.28 0 8 0 C8 2.31 8 4.62 8 7 C6.68 7 5.36 7 4 7 C3.67 5.35 3.34 3.7 3 2 C2.34 3.65 1.68 5.3 1 7 C0.67 7 0.34 7 0 7 C0 4.69 0 2.38 0 0 Z " fill="#444444" transform="translate(119,62)"/>
<path d="M0 0 C0.94875 0.04125 1.8975 0.0825 2.875 0.125 C2.545 1.115 2.215 2.105 1.875 3.125 C0.885 2.795 -0.105 2.465 -1.125 2.125 C-1.455 3.445 -1.785 4.765 -2.125 6.125 C-0.475 6.455 1.175 6.785 2.875 7.125 C2.875 7.785 2.875 8.445 2.875 9.125 C0.5625 9.8125 0.5625 9.8125 -2.125 10.125 C-3.9375 9 -3.9375 9 -5.125 7.125 C-5.4375 4.5625 -5.4375 4.5625 -5.125 2.125 C-3.125 0.125 -3.125 0.125 0 0 Z " fill="#434343" transform="translate(202.125,58.875)"/>
<path d="M0 0 C0.94875 0.04125 1.8975 0.0825 2.875 0.125 C2.545 1.115 2.215 2.105 1.875 3.125 C0.885 2.795 -0.105 2.465 -1.125 2.125 C-1.455 3.445 -1.785 4.765 -2.125 6.125 C-0.475 6.455 1.175 6.785 2.875 7.125 C2.875 7.785 2.875 8.445 2.875 9.125 C0.5625 9.8125 0.5625 9.8125 -2.125 10.125 C-3.9375 9 -3.9375 9 -5.125 7.125 C-5.4375 4.5625 -5.4375 4.5625 -5.125 2.125 C-3.125 0.125 -3.125 0.125 0 0 Z " fill="#434343" transform="translate(108.125,58.875)"/>
<path d="M0 0 C1.32 0.66 2.64 1.32 4 2 C4 6.13537997 3.39044898 9.12137916 2 13 C1.01 13.33 0.02 13.66 -1 14 C-1 12.02 -1 10.04 -1 8 C-0.34 7.67 0.32 7.34 1 7 C0.67 4.69 0.34 2.38 0 0 Z " fill="#FDFDFC" transform="translate(36,28)"/>
<path d="M0 0 C1.32 0.33 2.64 0.66 4 1 C4 4.3 4 7.6 4 11 C2.68 11 1.36 11 0 11 C0 7.37 0 3.74 0 0 Z " fill="#434343" transform="translate(113,58)"/>
<path d="M0 0 C1.65 0.33 3.3 0.66 5 1 C5.33 2.65 5.66 4.3 6 6 C2.88772805 6 0.05847848 5.54372951 -3 5 C-2.01 3.35 -1.02 1.7 0 0 Z " fill="#9096C3" transform="translate(40,12)"/>
<path d="M0 0 C1.65 0 3.3 0 5 0 C5 1.98 5 3.96 5 6 C3.125 6.625 3.125 6.625 1 7 C0.34 6.34 -0.32 5.68 -1 5 C-0.625 2.375 -0.625 2.375 0 0 Z " fill="#434343" transform="translate(207,62)"/>
<path d="M0 0 C0.99 0.495 0.99 0.495 2 1 C2 1.99 2 2.98 2 4 C3.32 4.33 4.64 4.66 6 5 C6 6.65 6 8.3 6 10 C5.01 10.495 5.01 10.495 4 11 C3.67 9.35 3.34 7.7 3 6 C2.34 7.65 1.68 9.3 1 11 C0.67 11 0.34 11 0 11 C0 7.37 0 3.74 0 0 Z " fill="#444444" transform="translate(188,58)"/>
<path d="M0 0 C1.98 0 3.96 0 6 0 C5.01 0.33 4.02 0.66 3 1 C3.66 2.65 4.32 4.3 5 6 C3.329375 6.4021875 3.329375 6.4021875 1.625 6.8125 C-2.21840951 7.65809019 -2.21840951 7.65809019 -4 11 C-4.66 10.67 -5.32 10.34 -6 10 C-6 8 -6 8 -4 6 C-3.34 5.01 -2.68 4.02 -2 3 C-0.68 3.33 0.64 3.66 2 4 C2 3.01 2 2.02 2 1 C1.34 0.67 0.68 0.34 0 0 Z " fill="#B5B9B6" transform="translate(31,48)"/>
<path d="M0 0 C0.90105469 0.00902344 1.80210938 0.01804688 2.73046875 0.02734375 C3.41753906 0.03894531 4.10460938 0.05054688 4.8125 0.0625 C4.8125 0.7225 4.8125 1.3825 4.8125 2.0625 C4.05324219 2.19527344 3.29398438 2.32804687 2.51171875 2.46484375 C1.51785156 2.64144531 0.52398437 2.81804688 -0.5 3 C-1.48613281 3.17402344 -2.47226562 3.34804688 -3.48828125 3.52734375 C-6.26939213 4.01996847 -6.26939213 4.01996847 -9.1875 5.0625 C-8.875 3.125 -8.875 3.125 -8.1875 1.0625 C-5.17259443 0.05753148 -3.14568308 -0.04085303 0 0 Z " fill="#152192" transform="translate(33.1875,45.9375)"/>
<path d="M0 0 C0.99 0.33 1.98 0.66 3 1 C2.67 1.33 2.34 1.66 2 2 C2.33 2.66 2.66 3.32 3 4 C2.34 4 1.68 4 1 4 C1 4.99 1 5.98 1 7 C0.01 7.33 -0.98 7.66 -2 8 C-2.99 7.34 -3.98 6.68 -5 6 C-3.4198632 3.84526801 -1.89353366 1.89353366 0 0 Z " fill="#5860A9" transform="translate(29,12)"/>
<path d="M0 0 C1.66611905 -0.042721 3.33382885 -0.04063832 5 0 C6 1 6 1 6.0625 3.5625 C6.041875 4.366875 6.02125 5.17125 6 6 C5.01 6.495 5.01 6.495 4 7 C3.67 5.35 3.34 3.7 3 2 C2.34 3.65 1.68 5.3 1 7 C0.67 7 0.34 7 0 7 C0 4.69 0 2.38 0 0 Z " fill="#444444" transform="translate(213,62)"/>
<path d="M0 0 C1.66611905 -0.042721 3.33382885 -0.04063832 5 0 C6 1 6 1 6.0625 3.5625 C6.041875 4.366875 6.02125 5.17125 6 6 C5.01 6.495 5.01 6.495 4 7 C3.67 5.35 3.34 3.7 3 2 C2.34 3.65 1.68 5.3 1 7 C0.67 7 0.34 7 0 7 C0 4.69 0 2.38 0 0 Z " fill="#444444" transform="translate(90,62)"/>
<path d="M0 0 C0.99 0.33 1.98 0.66 3 1 C4.1875 3.5625 4.1875 3.5625 5 6 C2.69 6 0.38 6 -2 6 C-1.34 4.02 -0.68 2.04 0 0 Z " fill="#FAFAFB" transform="translate(40,38)"/>
<path d="M0 0 C0.66 0 1.32 0 2 0 C2 2.97 2 5.94 2 9 C0.02 9.99 0.02 9.99 -2 11 C-1.34 7.37 -0.68 3.74 0 0 Z " fill="#121E8F" transform="translate(48,36)"/>
<path d="M0 0 C2.31 0 4.62 0 7 0 C7.33 0.99 7.66 1.98 8 3 C5.03 3 2.06 3 -1 3 C-0.67 2.01 -0.34 1.02 0 0 Z " fill="#CDCF29" transform="translate(30,56)"/>
<path d="M0 0 C0.99 0.33 1.98 0.66 3 1 C3 2.32 3 3.64 3 5 C3.66 5.33 4.32 5.66 5 6 C4.34 6 3.68 6 3 6 C3 6.66 3 7.32 3 8 C1.68 7.67 0.36 7.34 -1 7 C-0.67 4.69 -0.34 2.38 0 0 Z " fill="#CACBD7" transform="translate(36,20)"/>
<path d="M0 0 C0.66 0 1.32 0 2 0 C2 2.97 2 5.94 2 9 C0.68 9.33 -0.64 9.66 -2 10 C-2.33 9.34 -2.66 8.68 -3 8 C-2.01 8 -1.02 8 0 8 C0 5.36 0 2.72 0 0 Z " fill="#434343" transform="translate(76,59)"/>
<path d="M0 0 C2.4375 0.8125 2.4375 0.8125 5 2 C5.33 2.99 5.66 3.98 6 5 C4.35 5.33 2.7 5.66 1 6 C0.34 4.35 -0.32 2.7 -1 1 C-0.67 0.67 -0.34 0.34 0 0 Z " fill="#E2E3EB" transform="translate(42,51)"/>
<path d="M0 0 C0.99 0 1.98 0 3 0 C3.33 1.65 3.66 3.3 4 5 C2.68 5.33 1.36 5.66 0 6 C-0.38218767 4.34385343 -0.71395102 2.67542976 -1 1 C-0.67 0.67 -0.34 0.34 0 0 Z " fill="#DADCE9" transform="translate(25,35)"/>
<path d="M0 0 C0.66 0.33 1.32 0.66 2 1 C2.625 3.0625 2.625 3.0625 3 5 C1.35 5 -0.3 5 -2 5 C-2 3.68 -2 2.36 -2 1 C-1.34 0.67 -0.68 0.34 0 0 Z " fill="#CACCDC" transform="translate(30,18)"/>
<path d="M0 0 C0.66 0 1.32 0 2 0 C3 6.75 3 6.75 3 9 C2.01 8.67 1.02 8.34 0 8 C-1.125 2.25 -1.125 2.25 0 0 Z " fill="#434343" transform="translate(220,60)"/>
<path d="M0 0 C0.66 0 1.32 0 2 0 C3 6.75 3 6.75 3 9 C2.01 8.67 1.02 8.34 0 8 C-1.125 2.25 -1.125 2.25 0 0 Z " fill="#434343" transform="translate(97,60)"/>
<path d="M0 0 C0.99 0.495 0.99 0.495 2 1 C2 4.3 2 7.6 2 11 C1.34 11 0.68 11 0 11 C0 7.37 0 3.74 0 0 Z " fill="#434343" transform="translate(141,58)"/>
<path d="M0 0 C0.66 0 1.32 0 2 0 C2.33 0.66 2.66 1.32 3 2 C6.02934491 2.65772428 6.02934491 2.65772428 9 3 C9 3.33 9 3.66 9 4 C5.37 4 1.74 4 -2 4 C-2 3.34 -2 2.68 -2 2 C-1.34 2 -0.68 2 0 2 C0 1.34 0 0.68 0 0 Z " fill="#050E82" transform="translate(26,41)"/>
<path d="M0 0 C6.52307692 0.49230769 6.52307692 0.49230769 8.9375 3.0625 C9.288125 3.701875 9.63875 4.34125 10 5 C9.01 5 8.02 5 7 5 C7 4.34 7 3.68 7 3 C4.36 2.67 1.72 2.34 -1 2 C-0.67 1.34 -0.34 0.68 0 0 Z " fill="#F2F4F6" transform="translate(32,18)"/>
<path d="M0 0 C0.33 0.66 0.66 1.32 1 2 C0.0625 4.125 0.0625 4.125 -1 6 C-0.01 6.33 0.98 6.66 2 7 C1.34 7.66 0.68 8.32 0 9 C-0.99 7.35 -1.98 5.7 -3 4 C-2.34 3.67 -1.68 3.34 -1 3 C-0.67 2.01 -0.34 1.02 0 0 Z " fill="#C7CADA" transform="translate(39,38)"/>
<path d="M0 0 C0.6875 1.8125 0.6875 1.8125 1 4 C-0.4375 5.75 -0.4375 5.75 -2 7 C-3.125 3.25 -3.125 3.25 -2 1 C-1.34 0.67 -0.68 0.34 0 0 Z " fill="#F0F1F4" transform="translate(38,35)"/>
<path d="M0 0 C0 1.65 0 3.3 0 5 C-1.65 5 -3.3 5 -5 5 C-3.33333333 0 -3.33333333 0 0 0 Z " fill="#F8F9F9" transform="translate(34,38)"/>
<path d="M0 0 C0.99 0.33 1.98 0.66 3 1 C2.67 2.32 2.34 3.64 2 5 C1.01 5 0.02 5 -1 5 C-0.67 3.35 -0.34 1.7 0 0 Z " fill="#6F77B1" transform="translate(34,11)"/>
<path d="M0 0 C0.33 0.66 0.66 1.32 1 2 C0.34 1.67 -0.32 1.34 -1 1 C-0.67 0.67 -0.34 0.34 0 0 Z " fill="#444444" transform="translate(126,59)"/>
<path d="M0 0 C0.33 0.66 0.66 1.32 1 2 C0.34 1.67 -0.32 1.34 -1 1 C-0.67 0.67 -0.34 0.34 0 0 Z " fill="#444444" transform="translate(87,59)"/>
</svg>
