<?xml version="1.0" encoding="UTF-8"?>
<svg version="1.1" xmlns="http://www.w3.org/2000/svg" width="583" height="414">
<path d="M0 0 C-0.68964844 0.4846875 -1.37929687 0.969375 -2.08984375 1.46875 C-12.51249915 8.90329158 -20.7960434 15.61767313 -27 27 C-27.36222656 27.65613281 -27.72445312 28.31226563 -28.09765625 28.98828125 C-31.23859871 35.81070046 -31.25722528 44.55780401 -29.23828125 51.69140625 C-21.03781932 70.84742602 -3.01791669 81.3651354 15.47314453 89.02441406 C30.15312812 94.68731574 45.57034321 98.10006747 61 101 C61.95132813 101.18079102 62.90265625 101.36158203 63.8828125 101.54785156 C94.72576863 107.07278281 129.16798809 105.96299522 160 101 C160.95471191 100.85546387 161.90942383 100.71092773 162.89306641 100.56201172 C183.43501602 97.41324572 202.69911136 91.4976689 221.95141602 83.75268555 C223.94998112 83.01837781 225.92614321 82.47548384 228 82 C224.71349695 85.80763653 220.97242105 87.72002169 216.4375 89.6875 C215.65721436 90.0263623 214.87692871 90.36522461 214.07299805 90.71435547 C149.83242478 117.86139799 65.7845903 120.51991435 0.48046875 94.87890625 C-16.96881066 87.72473913 -31.7702828 77.83443441 -40.4375 60.5 C-44.11324579 51.2614068 -43.4891683 42.19981401 -40 33 C-34.02509352 20.91777914 -24.2213165 12.14556785 -13 5 C-12.09378906 4.40703125 -11.18757813 3.8140625 -10.25390625 3.203125 C-3.40072609 -1.13357536 -3.40072609 -1.13357536 0 0 Z " fill="#E21E23" transform="translate(199,139)"/>
<path d="M0 0 C6.6 0 13.2 0 20 0 C21.33988903 3.10148421 22.67211641 6.20588046 24 9.3125 C24.3815625 10.19357422 24.763125 11.07464844 25.15625 11.98242188 C25.5171875 12.82998047 25.878125 13.67753906 26.25 14.55078125 C26.58515625 15.33106689 26.9203125 16.11135254 27.265625 16.9152832 C28 19 28 19 28 22 C28.66 22 29.32 22 30 22 C30.13921875 21.01773438 30.13921875 21.01773438 30.28125 20.015625 C31.23039464 16.03334423 32.83069319 12.47744813 34.5 8.75 C34.82097656 8.0178125 35.14195312 7.285625 35.47265625 6.53125 C37.85781769 1.14218231 37.85781769 1.14218231 39 0 C40.34267413 -0.08631874 41.68974322 -0.10706473 43.03515625 -0.09765625 C43.84404297 -0.09443359 44.65292969 -0.09121094 45.48632812 -0.08789062 C46.33646484 -0.07951172 47.18660156 -0.07113281 48.0625 -0.0625 C48.91650391 -0.05798828 49.77050781 -0.05347656 50.65039062 -0.04882812 C52.76695663 -0.03700373 54.88348685 -0.01906769 57 0 C57 0.99 57 1.98 57 3 C56.01 3.66 55.02 4.32 54 5 C53.73332461 7.83727325 53.65208766 10.45383045 53.70703125 13.2890625 C53.71339851 14.51669815 53.71339851 14.51669815 53.71989441 15.76913452 C53.73671321 18.38808836 53.77437026 21.00627802 53.8125 23.625 C53.82754274 25.3984264 53.84123186 27.17186484 53.85351562 28.9453125 C53.88662708 33.2971703 53.93843048 37.64845551 54 42 C55.32 42 56.64 42 58 42 C58 42.99 58 43.98 58 45 C50.08 45 42.16 45 34 45 C35 42 35 42 38 40 C38.4164535 37.57900645 38.4164535 37.57900645 38.29296875 34.7734375 C38.28330078 33.7421875 38.27363281 32.7109375 38.26367188 31.6484375 C38.23853516 30.56820312 38.21339844 29.48796875 38.1875 28.375 C38.17396484 27.28703125 38.16042969 26.1990625 38.14648438 25.078125 C38.11104754 22.38492591 38.06164331 19.69270626 38 17 C37.67201416 17.83772949 37.34402832 18.67545898 37.00610352 19.53857422 C35.78988851 22.64368474 34.57284093 25.7484662 33.35522461 28.85302734 C32.82819686 30.19729708 32.30150226 31.54169748 31.77514648 32.88623047 C31.01894071 34.81772684 30.26154186 36.74875162 29.50390625 38.6796875 C29.04830322 39.84226074 28.5927002 41.00483398 28.12329102 42.20263672 C27 45 27 45 26 47 C24.17480469 46.87524414 24.17480469 46.87524414 22 46 C20.53613281 43.40795898 20.53613281 43.40795898 19.203125 39.99609375 C18.71972656 38.78115234 18.23632812 37.56621094 17.73828125 36.31445312 C17.24185258 35.02226404 16.74576317 33.72994456 16.25 32.4375 C15.73970005 31.14071683 15.22799771 29.84448458 14.71484375 28.54882812 C13.46263259 25.37104697 12.22512642 22.18829983 11 19 C10.94579299 21.56278699 10.90622993 24.12441483 10.875 26.6875 C10.85824219 27.40873047 10.84148437 28.12996094 10.82421875 28.87304688 C10.78630064 33.02508025 10.95068644 36.3424503 13 40 C13.99 40.66 14.98 41.32 16 42 C16 42.99 16 43.98 16 45 C12.13276369 46.26582219 8.26848738 46.1118765 4.25 46.0625 C3.55261719 46.05798828 2.85523438 46.05347656 2.13671875 46.04882812 C0.42444197 46.0371002 -1.28779033 46.01916653 -3 46 C-2.62109375 44.05859375 -2.62109375 44.05859375 -2 42 C-1.360625 41.690625 -0.72125 41.38125 -0.0625 41.0625 C2.18044224 40.15925758 2.18044224 40.15925758 3.10791016 37.85400391 C4.68462695 32.80971839 4.37188576 27.64408715 4.37060547 22.39746094 C4.37500324 20.37350792 4.41143626 18.35169635 4.44921875 16.328125 C4.45308594 15.05195313 4.45695313 13.77578125 4.4609375 12.4609375 C4.47326416 10.70982666 4.47326416 10.70982666 4.48583984 8.92333984 C4.30446441 5.88208663 4.30446441 5.88208663 1.97119141 4.28369141 C1.32069824 3.86007324 0.67020508 3.43645508 0 3 C0 2.01 0 1.02 0 0 Z " fill="#393184" transform="translate(198,162)"/>
<path d="M0 0 C15.28265032 -2.22083724 15.28265032 -2.22083724 21.27539062 1.359375 C26.13398877 5.3431563 30.07691846 10.12106511 34 15 C35.13451825 16.33612585 36.27359161 17.66840218 37.41796875 18.99609375 C38.27003906 19.98738281 39.12210937 20.97867188 40 22 C40.05418326 19.91695462 40.09287551 17.83350232 40.125 15.75 C40.14820313 14.58984375 40.17140625 13.4296875 40.1953125 12.234375 C40.00741056 9.12271895 39.75253982 7.53015683 38 5 C37.01 4.34 36.02 3.68 35 3 C35 2.01 35 1.02 35 0 C40.94 0 46.88 0 53 0 C53 0.99 53 1.98 53 3 C51.02 3.66 49.04 4.32 47 5 C46.67 18.53 46.34 32.06 46 46 C43.525 46.495 43.525 46.495 41 47 C39.16650391 45.77172852 39.16650391 45.77172852 37.4765625 43.87890625 C36.8475 43.18990234 36.2184375 42.50089844 35.5703125 41.79101562 C34.92835938 41.05560547 34.28640625 40.32019531 33.625 39.5625 C32.99078125 38.86189453 32.3565625 38.16128906 31.703125 37.43945312 C29.7826889 35.30933676 27.88805981 33.1588357 26 31 C25.40928711 30.32694824 24.81857422 29.65389648 24.20996094 28.96044922 C22.47065668 26.97593316 20.73507336 24.98821549 19 23 C17.68769342 21.49983078 16.37519842 19.99982636 15.0625 18.5 C14.04166667 17.33333333 13.02083333 16.16666667 12 15 C11.85398386 18.54122827 11.7656944 22.08167644 11.6875 25.625 C11.64560547 26.62402344 11.60371094 27.62304688 11.56054688 28.65234375 C11.38409479 35.11552448 11.38409479 35.11552448 14.51953125 40.5234375 C15.33808594 41.34070313 16.15664063 42.15796875 17 43 C17 43.99 17 44.98 17 46 C11.06 46 5.12 46 -1 46 C-0.67 44.35 -0.34 42.7 0 41 C0.99 40.34 1.98 39.68 3 39 C4.17942085 35.46173745 4.11289189 32.65851274 4.09765625 28.92578125 C4.09553383 27.90003242 4.09553383 27.90003242 4.09336853 26.8535614 C4.08777876 24.67316278 4.07522822 22.49286749 4.0625 20.3125 C4.05748367 18.83268378 4.052921 17.35286594 4.04882812 15.87304688 C4.03781271 12.24866443 4.02055512 8.6243423 4 5 C2.68 4.34 1.36 3.68 0 3 C0 2.01 0 1.02 0 0 Z " fill="#393184" transform="translate(309,162)"/>
<path d="M0 0 C-0.30975468 1.77131561 -0.62290425 3.54203778 -0.9375 5.3125 C-1.11152344 6.29863281 -1.28554688 7.28476563 -1.46484375 8.30078125 C-2 11 -2 11 -3 14 C-4.32 14 -5.64 14 -7 14 C-7.20625 12.9275 -7.4125 11.855 -7.625 10.75 C-8.72593625 6.89185836 -8.72593625 6.89185836 -11.625 4.5 C-16.13752299 2.49443423 -18.23742283 2.80935571 -23 4 C-25.25162602 6.75471394 -25.25162602 6.75471394 -24.9375 9.5625 C-24.24260153 12.18550855 -24.24260153 12.18550855 -21.8125 13.09765625 C-18.87359879 14.04055372 -16.12196975 14.48912093 -13.0625 14.875 C-6.99692776 15.82880006 -3.51125913 17.1687968 0.625 21.83203125 C3.05383117 25.6615804 2.59315311 29.62549584 2 34 C0.63666544 38.29288083 -1.70514961 41.0867413 -5.5625 43.375 C-17.22243898 48.88697115 -29.15987549 45.14240271 -41 42 C-40.5547115 36.72684667 -39.91626837 31.98229776 -38 27 C-36.35 27 -34.7 27 -33 27 C-32.82984375 27.61488281 -32.6596875 28.22976562 -32.484375 28.86328125 C-32.24203125 29.67152344 -31.9996875 30.47976562 -31.75 31.3125 C-31.51796875 32.11300781 -31.2859375 32.91351563 -31.046875 33.73828125 C-29.76760836 36.50206999 -28.63243863 37.49241547 -26 39 C-23.56335789 39.6805973 -23.56335789 39.6805973 -21 39.875 C-19.7315625 40.02582031 -19.7315625 40.02582031 -18.4375 40.1796875 C-15.39913842 39.95570572 -14.15308165 39.11851383 -12 37 C-11.66574265 34.37374861 -11.66574265 34.37374861 -12 32 C-13.6396875 31.38125 -13.6396875 31.38125 -15.3125 30.75 C-16.03695313 30.47414062 -16.76140625 30.19828125 -17.5078125 29.9140625 C-19.26140975 29.2708936 -21.02879565 28.66471005 -22.8046875 28.0859375 C-29.8646055 25.7326315 -33.79755756 23.30366366 -38 17 C-38.73176768 12.05631368 -38.52245588 8.06426199 -36.3125 3.5625 C-26.74935847 -7.03449467 -12.25761999 -3.00624841 0 0 Z " fill="#393184" transform="translate(301,163)"/>
<path d="M0 0 C9.9 0 19.8 0 30 0 C30 10.23 30 20.46 30 31 C27.69 31 25.38 31 23 31 C23 33.97 23 36.94 23 40 C12.77 40 2.54 40 -8 40 C-8 29.44 -8 18.88 -8 8 C-5.36 8 -2.72 8 0 8 C0 5.36 0 2.72 0 0 Z M0 8 C0 15.59 0 23.18 0 31 C7.26 31 14.52 31 22 31 C22 23.41 22 15.82 22 8 C14.74 8 7.48 8 0 8 Z " fill="#E21E24" transform="translate(377,168)"/>
<path d="M0 0 C9.9 0 19.8 0 30 0 C30 10.23 30 20.46 30 31 C27.36 31 24.72 31 22 31 C22 23.41 22 15.82 22 8 C14.74 8 7.48 8 0 8 C0 5.36 0 2.72 0 0 Z " fill="#393185" transform="translate(377,168)"/>
<path d="M0 0 C1.98 0 3.96 0 6 0 C6.33 1.65 6.66 3.3 7 5 C7.66 3.35 8.32 1.7 9 0 C10.65 0 12.3 0 14 0 C14 5.61 14 11.22 14 17 C13.01 17 12.02 17 11 17 C10.67 15.35 10.34 13.7 10 12 C9.67 13.65 9.34 15.3 9 17 C8.01 17 7.02 17 6 17 C5.67 16.34 5.34 15.68 5 15 C4.67 15.66 4.34 16.32 4 17 C2.68 17 1.36 17 0 17 C0 11.39 0 5.78 0 0 Z " fill="#000000" transform="translate(333,259)"/>
<path d="M0 0 C3 0 6 0 9 0 C10.2375 -0.061875 10.2375 -0.061875 11.5 -0.125 C14 0 14 0 16 2 C16 2.99 16 3.98 16 5 C14.68 5 13.36 5 12 5 C12 5.66 12 6.32 12 7 C13.32 7 14.64 7 16 7 C15.125 11.875 15.125 11.875 14 13 C11.5625 13.25 11.5625 13.25 9 13 C6.70986347 9.5647952 6.82157027 8.014669 7 4 C6.01 4 5.02 4 4 4 C4 6.97 4 9.94 4 13 C2.68 13 1.36 13 0 13 C0 8.71 0 4.42 0 0 Z " fill="#000000" transform="translate(218,263)"/>
<path d="M0 0 C2.64 0 5.28 0 8 0 C10.78779879 2.78779879 10.29961733 4.61802327 10.3125 8.5 C10.32925781 9.6653125 10.34601563 10.830625 10.36328125 12.03125 C10.24339844 13.0109375 10.12351562 13.990625 10 15 C7 17 7 17 0 17 C0 11.39 0 5.78 0 0 Z M4 3 C4 3.99 4 4.98 4 6 C4.66 6 5.32 6 6 6 C6 5.01 6 4.02 6 3 C5.34 3 4.68 3 4 3 Z M4 9 C4 10.65 4 12.3 4 14 C4.66 13.67 5.32 13.34 6 13 C5.67 11.68 5.34 10.36 5 9 C4.67 9 4.34 9 4 9 Z " fill="#000000" transform="translate(278,259)"/>
<path d="M0 0 C8 0 8 0 10 1 C9.979375 2.155 9.95875 3.31 9.9375 4.5 C9.92992231 8.74350547 10.40025235 12.80176644 11 17 C9.68 17 8.36 17 7 17 C6.87625 16.030625 6.7525 15.06125 6.625 14.0625 C6.315625 12.5465625 6.315625 12.5465625 6 11 C5.34 10.67 4.68 10.34 4 10 C4 12.31 4 14.62 4 17 C2.68 17 1.36 17 0 17 C0 11.39 0 5.78 0 0 Z M4 3 C4 4.32 4 5.64 4 7 C4.99 6.67 5.98 6.34 7 6 C6.67 5.01 6.34 4.02 6 3 C5.34 3 4.68 3 4 3 Z " fill="#000000" transform="translate(167,259)"/>
<path d="M0 0 C0.99 0 1.98 0 3 0 C3 0.99 3 1.98 3 3 C3.66 3 4.32 3 5 3 C5 2.01 5 1.02 5 0 C6.32 0 7.64 0 9 0 C10.12862175 5.36095333 10.09688221 10.55306686 10 16 C8.35 15.67 6.7 15.34 5 15 C5 12.03 5 9.06 5 6 C4.34 6 3.68 6 3 6 C3.33 9.3 3.66 12.6 4 16 C2.68 15.67 1.36 15.34 0 15 C-0.19517554 13.06325815 -0.38087873 11.12555991 -0.5625 9.1875 C-0.66691406 8.10855469 -0.77132813 7.02960938 -0.87890625 5.91796875 C-1 3 -1 3 0 0 Z " fill="#000000" transform="translate(300,260)"/>
<path d="M0 0 C2.33294775 -0.04241723 4.66702567 -0.04092937 7 0 C8 1 8 1 8.09765625 3.72265625 C8.08605469 4.82480469 8.07445312 5.92695313 8.0625 7.0625 C8.05347656 8.16722656 8.04445312 9.27195312 8.03515625 10.41015625 C8.02355469 11.26480469 8.01195312 12.11945313 8 13 C1.84765625 13.09765625 1.84765625 13.09765625 0 13 C-1 12 -1 12 -1.1875 9.5625 C-1 7 -1 7 1 5 C0.34 4.67 -0.32 4.34 -1 4 C-0.67 2.68 -0.34 1.36 0 0 Z M3 8 C4 10 4 10 4 10 Z " fill="#000000" transform="translate(209,263)"/>
<path d="M0 0 C0.99 0 1.98 0 3 0 C3 5.61 3 11.22 3 17 C0.69 17 -1.62 17 -4 17 C-5 16 -5 16 -5.09765625 13.49609375 C-5.08605469 12.48675781 -5.07445312 11.47742188 -5.0625 10.4375 C-5.05347656 9.42558594 -5.04445313 8.41367187 -5.03515625 7.37109375 C-5.02355469 6.58863281 -5.01195312 5.80617188 -5 5 C-3.35 4.67 -1.7 4.34 0 4 C0 2.68 0 1.36 0 0 Z M-2 7 C-2 8.98 -2 10.96 -2 13 C-1.34 13 -0.68 13 0 13 C0 11.02 0 9.04 0 7 C-0.66 7 -1.32 7 -2 7 Z " fill="#000000" transform="translate(364,259)"/>
<path d="M0 0 C3.0625 0.1875 3.0625 0.1875 5.0625 2.1875 C5.1875 4.8125 5.1875 4.8125 5.0625 7.1875 C3.4125 7.5175 1.7625 7.8475 0.0625 8.1875 C0.3925 8.1875 0.7225 8.1875 1.0625 8.1875 C2.3825 8.1875 3.7025 8.1875 5.0625 8.1875 C4.1875 12.0625 4.1875 12.0625 3.0625 13.1875 C0.625 13.375 0.625 13.375 -1.9375 13.1875 C-3.9375 11.1875 -3.9375 11.1875 -4.16796875 8.83984375 C-4.15378906 7.94394531 -4.13960937 7.04804688 -4.125 6.125 C-4.11855469 5.22652344 -4.11210937 4.32804687 -4.10546875 3.40234375 C-3.84796993 0.00695232 -3.46937115 0.22144922 0 0 Z " fill="#000000" transform="translate(182.9375,262.8125)"/>
<path d="M0 0 C0.99 0 1.98 0 3 0 C3 1.32 3 2.64 3 4 C4.65 4 6.3 4 8 4 C8 8.29 8 12.58 8 17 C7.01 17 6.02 17 5 17 C4.67 14.36 4.34 11.72 4 9 C3.67 11.64 3.34 14.28 3 17 C2.01 17 1.02 17 0 17 C0 11.39 0 5.78 0 0 Z " fill="#000000" transform="translate(235,259)"/>
<path d="M0 0 C2.5 0.25 2.5 0.25 4.5 2.25 C4.625 4.875 4.625 4.875 4.5 7.25 C2.85 7.25 1.2 7.25 -0.5 7.25 C1.15 7.58 2.8 7.91 4.5 8.25 C3.625 12.125 3.625 12.125 2.5 13.25 C0.0625 13.4375 0.0625 13.4375 -2.5 13.25 C-4.5 11.25 -4.5 11.25 -4.765625 9.15625 C-4.75789062 7.96515625 -4.75789062 7.96515625 -4.75 6.75 C-4.75515625 5.9559375 -4.7603125 5.161875 -4.765625 4.34375 C-4.35119662 1.07707925 -3.20036774 0.32003677 0 0 Z " fill="#000000" transform="translate(202.5,262.75)"/>
<path d="M0 0 C2.9375 0.1875 2.9375 0.1875 3.9375 1.1875 C3.97830783 3.18708364 3.98004356 5.18795254 3.9375 7.1875 C2.2875 7.1875 0.6375 7.1875 -1.0625 7.1875 C-1.0625 8.1775 -1.0625 9.1675 -1.0625 10.1875 C-0.4025 10.1875 0.2575 10.1875 0.9375 10.1875 C0.9375 9.5275 0.9375 8.8675 0.9375 8.1875 C1.9275 8.1875 2.9175 8.1875 3.9375 8.1875 C3.9375 9.5075 3.9375 10.8275 3.9375 12.1875 C1.6275 12.5175 -0.6825 12.8475 -3.0625 13.1875 C-5.77482939 9.11900591 -5.36949887 7.02273216 -5.0625 2.1875 C-3.0625 0.1875 -3.0625 0.1875 0 0 Z " fill="#000000" transform="translate(294.0625,262.8125)"/>
<path d="M0 0 C3.0625 -0.25 3.0625 -0.25 6 0 C7 1 7 1 7.0625 4.0625 C7.041875 5.031875 7.02125 6.00125 7 7 C5.35 7 3.7 7 2 7 C2 7.99 2 8.98 2 10 C2.66 10 3.32 10 4 10 C4 9.34 4 8.68 4 8 C4.99 8 5.98 8 7 8 C7 9.32 7 10.64 7 12 C4.69 12.33 2.38 12.66 0 13 C-2.45811625 9.31282562 -2.31118164 7.35654296 -2 3 C-1.34 2.01 -0.68 1.02 0 0 Z " fill="#000000" transform="translate(400,263)"/>
<path d="M0 0 C1.010625 0.0825 2.02125 0.165 3.0625 0.25 C5.52061625 3.93717438 5.37368164 5.89345704 5.0625 10.25 C4.0725 11.735 4.0725 11.735 3.0625 13.25 C0.7525 12.92 -1.5575 12.59 -3.9375 12.25 C-3.96437279 10.43757948 -3.98383715 8.62504767 -4 6.8125 C-4.01160156 5.80316406 -4.02320313 4.79382813 -4.03515625 3.75390625 C-3.89391575 0.13249976 -3.65705299 0.31123855 0 0 Z M-0.9375 3.25 C-0.9375 5.23 -0.9375 7.21 -0.9375 9.25 C0.0525 9.745 0.0525 9.745 1.0625 10.25 C1.0625 7.94 1.0625 5.63 1.0625 3.25 C0.4025 3.25 -0.2575 3.25 -0.9375 3.25 Z " fill="#000000" transform="translate(259.9375,262.75)"/>
<path d="M0 0 C1.010625 0.0825 2.02125 0.165 3.0625 0.25 C5.0625 3.25 5.0625 3.25 5.0625 7.25 C3.0825 7.25 1.1025 7.25 -0.9375 7.25 C-0.9375 8.24 -0.9375 9.23 -0.9375 10.25 C-0.2775 10.25 0.3825 10.25 1.0625 10.25 C1.0625 9.59 1.0625 8.93 1.0625 8.25 C2.0525 8.25 3.0425 8.25 4.0625 8.25 C3.7325 9.9 3.4025 11.55 3.0625 13.25 C0.7525 12.92 -1.5575 12.59 -3.9375 12.25 C-3.96437279 10.43757948 -3.98383715 8.62504767 -4 6.8125 C-4.01160156 5.80316406 -4.02320313 4.79382813 -4.03515625 3.75390625 C-3.89391575 0.13249976 -3.65705299 0.31123855 0 0 Z " fill="#000000" transform="translate(314.9375,262.75)"/>
<path d="M0 0 C1.4540625 0.0309375 1.4540625 0.0309375 2.9375 0.0625 C4.3981285 2.70988916 4.9375 3.95698334 4.9375 7.0625 C2.9575 7.0625 0.9775 7.0625 -1.0625 7.0625 C-1.0625 8.0525 -1.0625 9.0425 -1.0625 10.0625 C-0.4025 10.0625 0.2575 10.0625 0.9375 10.0625 C0.9375 9.4025 0.9375 8.7425 0.9375 8.0625 C1.9275 8.0625 2.9175 8.0625 3.9375 8.0625 C3.6075 9.7125 3.2775 11.3625 2.9375 13.0625 C0.6275 12.7325 -1.6825 12.4025 -4.0625 12.0625 C-4.08937279 10.25007948 -4.10883715 8.43754767 -4.125 6.625 C-4.13660156 5.61566406 -4.14820313 4.60632813 -4.16015625 3.56640625 C-4.01596662 -0.13061575 -3.76355726 0.07680729 0 0 Z " fill="#000000" transform="translate(353.0625,262.9375)"/>
<path d="M0 0 C1.98 0 3.96 0 6 0 C6.33 1.32 6.66 2.64 7 4 C6.01 4.495 6.01 4.495 5 5 C5.515625 5.4125 6.03125 5.825 6.5625 6.25 C7.036875 6.8275 7.51125 7.405 8 8 C7.74853421 10.13745922 7.54074221 11.45925779 6 13 C3.5625 13.1875 3.5625 13.1875 1 13 C0.34 12.34 -0.32 11.68 -1 11 C-1 10.01 -1 9.02 -1 8 C-0.34 7.67 0.32 7.34 1 7 C0.4740625 5.824375 0.4740625 5.824375 -0.0625 4.625 C-0.371875 3.75875 -0.68125 2.8925 -1 2 C-0.67 1.34 -0.34 0.68 0 0 Z " fill="#000000" transform="translate(409,263)"/>
<path d="M0 0 C1.4540625 0.0309375 1.4540625 0.0309375 2.9375 0.0625 C3.2675 1.3825 3.5975 2.7025 3.9375 4.0625 C2.9475 4.5575 2.9475 4.5575 1.9375 5.0625 C2.5975 5.7225 3.2575 6.3825 3.9375 7.0625 C4.0625 9.6875 4.0625 9.6875 3.9375 12.0625 C1.6275 12.3925 -0.6825 12.7225 -3.0625 13.0625 C-4.0625 8.3125 -4.0625 8.3125 -4.0625 6.0625 C-4.083125 5.216875 -4.10375 4.37125 -4.125 3.5 C-4.03138354 -0.1510421 -3.71368291 0.07578945 0 0 Z M-1.0625 8.0625 C-0.0625 10.0625 -0.0625 10.0625 -0.0625 10.0625 Z " fill="#000000" transform="translate(193.0625,262.9375)"/>
<path d="M0 0 C2.33294775 -0.04241723 4.66702567 -0.04092937 7 0 C8 1 8 1 8.09765625 3.72265625 C8.08605469 4.82480469 8.07445312 5.92695313 8.0625 7.0625 C8.05347656 8.16722656 8.04445313 9.27195312 8.03515625 10.41015625 C8.02355469 11.26480469 8.01195312 12.11945313 8 13 C7.01 13 6.02 13 5 13 C4.67 10.03 4.34 7.06 4 4 C3.67 6.97 3.34 9.94 3 13 C2.01 13 1.02 13 0 13 C0 8.71 0 4.42 0 0 Z " fill="#000000" transform="translate(389,263)"/>
<path d="M0 0 C1.4540625 0.0309375 1.4540625 0.0309375 2.9375 0.0625 C3.2675 1.7125 3.5975 3.3625 3.9375 5.0625 C2.6175 4.7325 1.2975 4.4025 -0.0625 4.0625 C-0.0625 5.7125 -0.0625 7.3625 -0.0625 9.0625 C0.2675 8.4025 0.5975 7.7425 0.9375 7.0625 C1.9275 7.0625 2.9175 7.0625 3.9375 7.0625 C3.9375 8.7125 3.9375 10.3625 3.9375 12.0625 C1.0625 12.6875 1.0625 12.6875 -2.0625 13.0625 C-4.0625 11.0625 -4.0625 11.0625 -4.29296875 8.71484375 C-4.27878906 7.81894531 -4.26460938 6.92304688 -4.25 6 C-4.24355469 5.10152344 -4.23710937 4.20304687 -4.23046875 3.27734375 C-3.96732292 -0.19250934 -3.565916 0.0727738 0 0 Z " fill="#000000" transform="translate(378.0625,262.9375)"/>
<path d="M0 0 C1.32 0 2.64 0 4 0 C3.67 5.61 3.34 11.22 3 17 C1.68 17 0.36 17 -1 17 C-1.22262606 14.91814549 -1.42757926 12.83439574 -1.625 10.75 C-1.74101562 9.58984375 -1.85703125 8.4296875 -1.9765625 7.234375 C-1.99955595 4.06127909 -1.69705154 2.61682756 0 0 Z " fill="#000000" transform="translate(251,259)"/>
<path d="M0 0 C1.98 0 3.96 0 6 0 C6 1.32 6 2.64 6 4 C5.34 4 4.68 4 4 4 C4 6.97 4 9.94 4 13 C2.68 13 1.36 13 0 13 C0 8.71 0 4.42 0 0 Z " fill="#000000" transform="translate(266,263)"/>
<path d="M0 0 C1.98 0 3.96 0 6 0 C6 1.32 6 2.64 6 4 C5.34 4 4.68 4 4 4 C3.67 6.97 3.34 9.94 3 13 C2.01 13 1.02 13 0 13 C0 8.71 0 4.42 0 0 Z " fill="#000000" transform="translate(321,263)"/>
<path d="M0 0 C1.32 0 2.64 0 4 0 C4 4.29 4 8.58 4 13 C2.68 13 1.36 13 0 13 C0 8.71 0 4.42 0 0 Z " fill="#000000" transform="translate(383,263)"/>
<path d="M0 0 C0.99 0 1.98 0 3 0 C3 4.29 3 8.58 3 13 C2.01 13 1.02 13 0 13 C0 8.71 0 4.42 0 0 Z " fill="#000000" transform="translate(369,263)"/>
<path d="M0 0 C1.32 0 2.64 0 4 0 C4 0.99 4 1.98 4 3 C2.68 3 1.36 3 0 3 C0 2.01 0 1.02 0 0 Z " fill="#000000" transform="translate(383,259)"/>
<path d="M0 0 C0.99 0 1.98 0 3 0 C3 0.99 3 1.98 3 3 C2.01 3 1.02 3 0 3 C0 2.01 0 1.02 0 0 Z " fill="#000000" transform="translate(369,259)"/>
</svg>
