<?xml version="1.0" encoding="UTF-8"?>
<svg version="1.1" xmlns="http://www.w3.org/2000/svg" width="256" height="76">
<path d="M0 0 C84.48 0 168.96 0 256 0 C256 25.08 256 50.16 256 76 C171.52 76 87.04 76 0 76 C0 50.92 0 25.84 0 0 Z " fill="#FDFDFD" transform="translate(0,0)"/>
<path d="M0 0 C1.26169079 0.64426764 2.51693469 1.30250851 3.75 2 C3.75 2.99 3.75 3.98 3.75 5 C4.41 5 5.07 5 5.75 5 C9.36679079 11.10333446 10.95175892 15.89674636 9.75 23 C7.66629241 29.79208533 4.34951217 34.29921832 -1.7578125 37.94921875 C-5.83598203 39.66869775 -9.85859877 39.9816643 -14.25 40 C-14.25 40.66 -14.25 41.32 -14.25 42 C-16.23 42.99 -18.21 43.98 -20.25 45 C-19.59 42.69 -18.93 40.38 -18.25 38 C-19.301875 37.7215625 -19.301875 37.7215625 -20.375 37.4375 C-25.04120283 35.10439858 -28.11415226 31.30229071 -30.41015625 26.6484375 C-31.36986276 23.62201417 -31.51603534 21.10848882 -31.5 17.9375 C-31.50515625 16.91527344 -31.5103125 15.89304687 -31.515625 14.83984375 C-31.24703086 11.96825642 -30.61288267 10.48852281 -29.25 8 C-28.82848115 6.42841122 -28.4531166 4.84370918 -28.125 3.25 C-27.95742188 2.45078125 -27.78984375 1.6515625 -27.6171875 0.828125 C-27.49601562 0.22484375 -27.37484375 -0.3784375 -27.25 -1 C-26.59 -1 -25.93 -1 -25.25 -1 C-25.25 -0.01 -25.25 0.98 -25.25 2 C-24.1775 1.34 -23.105 0.68 -22 0 C-14.87706258 -3.52995129 -7.19156371 -3.17108321 0 0 Z " fill="#F6EFED" transform="translate(52.25,17)"/>
<path d="M0 0 C1.98 0 3.96 0 6 0 C6.33 1.65 6.66 3.3 7 5 C9.31 5 11.62 5 14 5 C14.66 7.64 15.32 10.28 16 13 C16.99 12.34 17.98 11.68 19 11 C22.1875 10.875 22.1875 10.875 25 11 C25 10.34 25 9.68 25 9 C22.69 9 20.38 9 18 9 C18.33 7.68 18.66 6.36 19 5 C24.71658336 4.54267333 27.48649253 5.47726246 32 9 C32.33 7.68 32.66 6.36 33 5 C36.33333333 5 39.66666667 5 43 5 C43 6.65 43 8.3 43 10 C41.68 10.33 40.36 10.66 39 11 C38.67 13.97 38.34 16.94 38 20 C36.35 20.33 34.7 20.66 33 21 C33.99 21.66 34.98 22.32 36 23 C36 23.99 36 24.98 36 26 C37.32 26.33 38.64 26.66 40 27 C40 29.31 40 31.62 40 34 C39.34 34 38.68 34 38 34 C38 32.02 38 30.04 38 28 C37.01 28 36.02 28 35 28 C35 30.31 35 32.62 35 35 C34.01 34.67 33.02 34.34 32 34 C32 32.02 32 30.04 32 28 C31.34 28 30.68 28 30 28 C30 30.31 30 32.62 30 35 C26.10887198 35.9691924 22.85497092 35.96648201 18.875 35.5625 C15.88640583 35.26811229 13.0039385 35 10 35 C9.34 35 8.68 35 8 35 C8 32.69 8 30.38 8 28 C7.34 28.33 6.68 28.66 6 29 C5.34444881 31.52733235 5.34444881 31.52733235 5 34 C4.34 34 3.68 34 3 34 C3 30.37 3 26.74 3 23 C4.093125 22.855625 5.18625 22.71125 6.3125 22.5625 C9.93122987 22.11711896 9.93122987 22.11711896 13 21 C13 22.65 13 24.3 13 26 C14.32 25.67 15.64 25.34 17 25 C17 24.01 17 23.02 17 22 C16.34 21.67 15.68 21.34 15 21 C15 20.67 15 20.34 15 20 C13.02 20 11.04 20 9 20 C9 16.7 9 13.4 9 10 C8.01 10 7.02 10 6 10 C6 13.3 6 16.6 6 20 C4.02 20 2.04 20 0 20 C0 13.4 0 6.8 0 0 Z " fill="#F5EDF6" transform="translate(154,20)"/>
<path d="M0 0 C8.84120172 -0.77253219 8.84120172 -0.77253219 13.1875 2.125 C15 5 15 5 15.0625 8.125 C13.85033657 11.40497163 13.10840431 12.44579785 10 14 C7.25 14.1875 7.25 14.1875 5 14 C5 14.928125 5 15.85625 5 16.8125 C5 25.25342516 4.60186487 30.87453181 0 38 C-0.66 38 -1.32 38 -2 38 C-2 36.68 -2 35.36 -2 34 C-2.804375 34.185625 -3.60875 34.37125 -4.4375 34.5625 C-5.283125 34.706875 -6.12875 34.85125 -7 35 C-8 34 -8 34 -8.0625 30.9375 C-8.041875 29.968125 -8.02125 28.99875 -8 28 C-8.66 28 -9.32 28 -10 28 C-10 30.31 -10 32.62 -10 35 C-21.52164009 35.3690205 -21.52164009 35.3690205 -27 33 C-26.67 32.401875 -26.34 31.80375 -26 31.1875 C-24.79212012 28.94613529 -24.79212012 28.94613529 -25 26 C-20.125 26.875 -20.125 26.875 -19 28 C-19 26.35 -19 24.7 -19 23 C-19.66 23 -20.32 23 -21 23 C-20.67 22.01 -20.34 21.02 -20 20 C-17.9375 19.3125 -17.9375 19.3125 -16 19 C-14.57005389 23.28983834 -14.40935014 27.49714851 -14 32 C-13.67 28.37 -13.34 24.74 -13 21 C-10.03 21 -7.06 21 -4 21 C-4 20.01 -4 19.02 -4 18 C-4.33 18.66 -4.66 19.32 -5 20 C-7.8580389 20.23816991 -10.19811145 20.42242213 -13 20 C-16.02791041 17.42627616 -16.86162709 15.84753406 -17.5 11.9375 C-17 9 -17 9 -15.625 6.5625 C-11.5188688 4.11837428 -7.55574797 5.07138935 -3 6 C-2.34 6.33 -1.68 6.66 -1 7 C-0.67 4.69 -0.34 2.38 0 0 Z " fill="#FAEDE6" transform="translate(138,20)"/>
<path d="M0 0 C1.95803507 -0.05389087 3.91648909 -0.09274217 5.875 -0.125 C7.51082031 -0.15980469 7.51082031 -0.15980469 9.1796875 -0.1953125 C12 0 12 0 14 2 C14.1953125 4.1640625 14.1953125 4.1640625 14.125 6.625 C14.10695313 7.44226562 14.08890625 8.25953125 14.0703125 9.1015625 C14.03550781 10.04128906 14.03550781 10.04128906 14 11 C14.66 10.67 15.32 10.34 16 10 C15.9175 9.0925 15.835 8.185 15.75 7.25 C16 4 16 4 17.625 1.625 C20.71186432 -0.48706506 22.3282913 -0.61195145 26 0 C28.375 2 28.375 2 30 4 C29 5 29 5 27.15234375 5.09765625 C25.1015625 5.06510417 23.05078125 5.03255208 21 5 C21 6.65 21 8.3 21 10 C23.64 10 26.28 10 29 10 C29.33 10.99 29.66 11.98 30 13 C28.68 13.33 27.36 13.66 26 14 C26 14.66 26 15.32 26 16 C24.02 16.33 22.04 16.66 20 17 C20 21.29 20 25.58 20 30 C19.01 29.67 18.02 29.34 17 29 C17 27.35 17 25.7 17 24 C15.02 23.67 13.04 23.34 11 23 C11 24.65 11 26.3 11 28 C12.65 27.67 14.3 27.34 16 27 C16 27.66 16 28.32 16 29 C12.60926276 29.9041966 9.30467897 30.14892391 5.8125 30.25 C4.52279297 30.28867187 4.52279297 30.28867187 3.20703125 30.328125 C2.47871094 30.21984375 1.75039062 30.1115625 1 30 C-1 27 -1 27 -0.625 24.3125 C-0.41875 23.549375 -0.2125 22.78625 0 22 C1.32 21.67 2.64 21.34 4 21 C3.3290863 17.88472618 3.3290863 17.88472618 0.921875 16.79296875 C-1 15 -1 15 -1.171875 11.42578125 C-1.05247458 10.05267637 -0.91104071 8.68134599 -0.75 7.3125 C-0.68425781 6.61060547 -0.61851563 5.90871094 -0.55078125 5.18554688 C-0.38598044 3.45513836 -0.19545358 1.72721476 0 0 Z " fill="#FAF4E3" transform="translate(90,25)"/>
<path d="M0 0 C5.33333333 0 10.66666667 0 16 0 C16.86625 -0.061875 17.7325 -0.12375 18.625 -0.1875 C19.40875 -0.125625 20.1925 -0.06375 21 0 C23.25727445 3.38591168 23.30277039 4.94853113 23.5 8.9375 C23.6931017 12.83332682 23.98345515 15.62553987 26 19 C23 20 23 20 20.8125 19.0625 C19.9153125 18.5365625 19.9153125 18.5365625 19 18 C18.01 18.99 17.02 19.98 16 21 C16.66 21.99 17.32 22.98 18 24 C18.66 23.01 19.32 22.02 20 21 C20.66 21 21.32 21 22 21 C21.71640113 22.4391134 21.42278601 23.87625518 21.125 25.3125 C20.96257812 26.11300781 20.80015625 26.91351563 20.6328125 27.73828125 C20 30 20 30 18 33 C17.01 33 16.02 33 15 33 C15 32.34 15 31.68 15 31 C15.66 31 16.32 31 17 31 C16.34 28.69 15.68 26.38 15 24 C14.01 24.33 13.02 24.66 12 25 C12 25.66 12 26.32 12 27 C12.66 27 13.32 27 14 27 C14 27.66 14 28.32 14 29 C11.11584117 30.44207941 8.58278472 30.09394887 5.375 30.0625 C4.18648437 30.05347656 2.99796875 30.04445313 1.7734375 30.03515625 C0.85820312 30.02355469 -0.05703125 30.01195313 -1 30 C-1.66 28.68 -2.32 27.36 -3 26 C-2.34 25.34 -1.68 24.68 -1 24 C-1.33 23.01 -1.66 22.02 -2 21 C1.96 20.505 1.96 20.505 6 20 C5.67 19.01 5.34 18.02 5 17 C5.33 16.67 5.66 16.34 6 16 C3.03 15.505 3.03 15.505 0 15 C0 10.05 0 5.1 0 0 Z " fill="#F4EAF6" transform="translate(198,25)"/>
<path d="M0 0 C0.33 0 0.66 0 1 0 C1.07476563 0.61746094 1.14953125 1.23492188 1.2265625 1.87109375 C2.51224471 10.15239978 6.10908092 15.50046638 11.375 21.875 C13.80080498 26.54000958 13.77431606 30.84782005 13 36 C11.92312211 38.69219472 10.6957697 40.61532386 9 43 C8.67 42.34 8.34 41.68 8 41 C8.33 40.01 8.66 39.02 9 38 C7.948125 37.7215625 7.948125 37.7215625 6.875 37.4375 C2.20879717 35.10439858 -0.86415226 31.30229071 -3.16015625 26.6484375 C-4.11986276 23.62201417 -4.26603534 21.10848882 -4.25 17.9375 C-4.25515625 16.91527344 -4.2603125 15.89304687 -4.265625 14.83984375 C-3.99763514 11.97471691 -3.37788547 10.47509056 -2 8 C-1.5845535 6.59466244 -1.20799564 5.17712415 -0.875 3.75 C-0.58625 2.5125 -0.2975 1.275 0 0 Z " fill="#6A2E8C" transform="translate(25,17)"/>
<path d="M0 0 C0.33 0 0.66 0 1 0 C1 3.96 1 7.92 1 12 C2.98 12 4.96 12 7 12 C7 8.7 7 5.4 7 2 C7.99 2 8.98 2 10 2 C10 5.3 10 8.6 10 12 C13.465 11.505 13.465 11.505 17 11 C17.66 13.31 18.32 15.62 19 18 C17.35 18 15.7 18 14 18 C13.67 17.01 13.34 16.02 13 15 C13.33 14.34 13.66 13.68 14 13 C13.01 13.66 12.02 14.32 11 15 C8.66800612 15.07905064 6.33167378 15.08798769 4 15 C4 18.63 4 22.26 4 26 C4.66 26.33 5.32 26.66 6 27 C5.01 27 4.02 27 3 27 C2.67 25.35 2.34 23.7 2 22 C0.35 22.33 -1.3 22.66 -3 23 C-3 24.32 -3 25.64 -3 27 C-3.99 27 -4.98 27 -6 27 C-6.33 25.35 -6.66 23.7 -7 22 C-7.33 23.65 -7.66 25.3 -8 27 C-8.66 26.67 -9.32 26.34 -10 26 C-9.67 24.35 -9.34 22.7 -9 21 C-9.66 20.67 -10.32 20.34 -11 20 C-10.67 19.34 -10.34 18.68 -10 18 C-10.66 17.67 -11.32 17.34 -12 17 C-11.34 17 -10.68 17 -10 17 C-10.34786708 15.02463255 -10.34786708 15.02463255 -11 13 C-11.66 12.67 -12.32 12.34 -13 12 C-12.01 12 -11.02 12 -10 12 C-10 10.02 -10 8.04 -10 6 C-8.906875 5.7525 -7.81375 5.505 -6.6875 5.25 C-2.89397463 3.9640592 -1.98571906 3.30953177 0 0 Z " fill="#F5EEF6" transform="translate(153,28)"/>
<path d="M0 0 C3 1 3 1 4.6875 3.4375 C7.12063141 10.04171382 6.87689287 15.78371326 4.0625 22.25 C1.16833579 27.47100646 -2.63962348 30.47027845 -8 33 C-11.5625 33.875 -11.5625 33.875 -14 34 C-13.07781968 31.167589 -12.15636674 28.371371 -11 25.625 C-9.87343973 22.89459965 -9.87343973 22.89459965 -9.3125 19.4375 C-8.11518243 14.29492291 -5.30230173 10.09167912 -2.55859375 5.63671875 C-0.89323842 3.03058275 -0.89323842 3.03058275 0 0 Z " fill="#6A328B" transform="translate(56,23)"/>
<path d="M0 0 C3.62763593 2.62424727 4.83514312 3.99254127 5.5625 8.4375 C4.91022942 12.56854698 3.61482434 14.76992287 1 18 C-2.13871188 19.56935594 -4.53855822 19.35201103 -8 19 C-10.63016161 16.8272578 -12.47336894 15.05326212 -14 12 C-14.39069343 7.85864965 -14.43382227 5.68813188 -12.1875 2.125 C-8.27130193 -1.6793067 -5.08921136 -1.22843033 0 0 Z " fill="#E0A03F" transform="translate(83,21)"/>
<path d="M0 0 C2.38369499 1.12149539 3.78347176 1.85880139 5.25 4.05859375 C5.13445309 8.44937634 3.08848733 10.85384999 0.25 14.05859375 C-1.07 13.72859375 -2.39 13.39859375 -3.75 13.05859375 C-3.75 11.07859375 -3.75 9.09859375 -3.75 7.05859375 C-6.06 7.38859375 -8.37 7.71859375 -10.75 8.05859375 C-11.41 10.36859375 -12.07 12.67859375 -12.75 15.05859375 C-17.15287778 13.71326998 -19.29758631 11.96428962 -21.75 8.05859375 C-22 5.24609375 -22 5.24609375 -21.75 3.05859375 C-15.1926897 -1.71035919 -7.76683149 -2.65881589 0 0 Z " fill="#F0941F" transform="translate(49.75,15.94140625)"/>
<path d="M0 0 C5.33333333 0 10.66666667 0 16 0 C16.86625 -0.061875 17.7325 -0.12375 18.625 -0.1875 C19.40875 -0.125625 20.1925 -0.06375 21 0 C23.35119399 3.52679099 23.21443452 5.02879485 23.125 9.1875 C23.10695312 10.27417969 23.08890625 11.36085938 23.0703125 12.48046875 C23.04710937 13.31191406 23.02390625 14.14335938 23 15 C21.02 15 19.04 15 17 15 C17 11.7 17 8.4 17 5 C16.01 5.495 16.01 5.495 15 6 C14.53348793 8.12576782 14.53348793 8.12576782 14.375 10.5625 C14.30023438 11.38878906 14.22546875 12.21507812 14.1484375 13.06640625 C14.09945312 13.70449219 14.05046875 14.34257813 14 15 C12.35 15 10.7 15 9 15 C9 11.7 9 8.4 9 5 C8.01 5.33 7.02 5.66 6 6 C5.67 8.97 5.34 11.94 5 15 C3.35 15 1.7 15 0 15 C0 10.05 0 5.1 0 0 Z " fill="#72478B" transform="translate(198,25)"/>
<path d="M0 0 C0.33 0 0.66 0 1 0 C1 1.65 1 3.3 1 5 C1.99 5.33 2.98 5.66 4 6 C4 6.66 4 7.32 4 8 C3.05125 8.20625 2.1025 8.4125 1.125 8.625 C-2.29166667 9.70833333 -2.29166667 9.70833333 -3.375 13.125 C-3.684375 14.548125 -3.684375 14.548125 -4 16 C-3.34 16 -2.68 16 -2 16 C-2 16.66 -2 17.32 -2 18 C-3.32 18 -4.64 18 -6 18 C-6 16.02 -6 14.04 -6 12 C-6.66 12 -7.32 12 -8 12 C-8 14.31 -8 16.62 -8 19 C-19.52164009 19.3690205 -19.52164009 19.3690205 -25 17 C-24.505 16.1028125 -24.505 16.1028125 -24 15.1875 C-22.79212012 12.94613529 -22.79212012 12.94613529 -23 10 C-18.125 10.875 -18.125 10.875 -17 12 C-17 10.35 -17 8.7 -17 7 C-17.66 7 -18.32 7 -19 7 C-18.67 6.01 -18.34 5.02 -18 4 C-15.9375 3.3125 -15.9375 3.3125 -14 3 C-12.57005389 7.28983834 -12.40935014 11.49714851 -12 16 C-11.67 12.37 -11.34 8.74 -11 5 C-8.03 5 -5.06 5 -2 5 C-1.34 3.35 -0.68 1.7 0 0 Z " fill="#A38EAB" transform="translate(136,36)"/>
<path d="M0 0 C1.98 0 3.96 0 6 0 C6.33 1.65 6.66 3.3 7 5 C9.31 5 11.62 5 14 5 C14 9.62 14 14.24 14 19 C12.68 19 11.36 19 10 19 C9.67 16.36 9.34 13.72 9 11 C8.01 10.67 7.02 10.34 6 10 C6 13.3 6 16.6 6 20 C4.02 20 2.04 20 0 20 C0 13.4 0 6.8 0 0 Z " fill="#8E65A7" transform="translate(154,20)"/>
<path d="M0 0 C1.9375 0.6875 1.9375 0.6875 2.9375 2.6875 C2.6075 3.6775 2.2775 4.6675 1.9375 5.6875 C2.5975 6.3475 3.2575 7.0075 3.9375 7.6875 C4.125 10.25 4.125 10.25 3.9375 12.6875 C2.9375 13.6875 2.9375 13.6875 0.375 13.75 C-0.429375 13.729375 -1.23375 13.70875 -2.0625 13.6875 C-2.0625 15.0075 -2.0625 16.3275 -2.0625 17.6875 C-3.0525 17.6875 -4.0425 17.6875 -5.0625 17.6875 C-5.3925 16.0375 -5.7225 14.3875 -6.0625 12.6875 C-6.3925 13.0175 -6.7225 13.3475 -7.0625 13.6875 C-9.39547433 13.72842937 -11.72955225 13.72991723 -14.0625 13.6875 C-14.0625 13.0275 -14.0625 12.3675 -14.0625 11.6875 C-11.0925 12.1825 -11.0925 12.1825 -8.0625 12.6875 C-9.43941962 9.93366077 -11.42970042 9.17266899 -14.0625 7.6875 C-13.83984375 5.79296875 -13.83984375 5.79296875 -13.0625 3.6875 C-11.06640625 2.67578125 -11.06640625 2.67578125 -8.625 2 C-1.089545 -0.16508258 -1.089545 -0.16508258 0 0 Z " fill="#F3F3F3" transform="translate(84.0625,40.3125)"/>
<path d="M0 0 C2.875 1.0625 2.875 1.0625 5 3 C5.56163658 6.79104692 5.2311876 9.32088642 4 12.9375 C2 15 2 15 -1.9375 15.625 C-5.19480173 15.40904629 -5.89404343 15.09006309 -8.5 12.875 C-10.25584708 9.50962644 -10.63656938 7.73984509 -10 4 C-7.19196516 -0.10405092 -4.83980844 -0.69140121 0 0 Z " fill="#DFA54B" transform="translate(131,25)"/>
<path d="M0 0 C0.33 0 0.66 0 1 0 C1 4.95 1 9.9 1 15 C2.98 15 4.96 15 7 15 C7 16.66666667 7 18.33333333 7 20 C3.04 20.495 3.04 20.495 -1 21 C-1 21.66 -1 22.32 -1 23 C0.32 23.33 1.64 23.66 3 24 C2.360625 24.2475 1.72125 24.495 1.0625 24.75 C-1.18741541 25.81562433 -1.18741541 25.81562433 -1.75 28.125 C-1.87375 29.053125 -1.87375 29.053125 -2 30 C-2.99 29.67 -3.98 29.34 -5 29 C-4.34 29 -3.68 29 -3 29 C-3.33 26.69 -3.66 24.38 -4 22 C-4.99 21.67 -5.98 21.34 -7 21 C-7 20.01 -7 19.02 -7 18 C-8.32 17.34 -9.64 16.68 -11 16 C-10 15 -10 15 -7.4375 14.9375 C-6.633125 14.958125 -5.82875 14.97875 -5 15 C-5 12.03 -5 9.06 -5 6 C-3.35 5.67 -1.7 5.34 0 5 C0 3.35 0 1.7 0 0 Z " fill="#F9F4F9" transform="translate(197,25)"/>
<path d="M0 0 C1.258125 0.33 2.51625 0.66 3.8125 1 C9.22793168 2.22450844 14.47495171 2.18588948 20 2 C20.33 3.32 20.66 4.64 21 6 C20.34 5.67 19.68 5.34 19 5 C16.9625237 4.77141886 14.91959697 4.58975722 12.875 4.4375 C11.23144531 4.31181641 11.23144531 4.31181641 9.5546875 4.18359375 C8.71164063 4.12300781 7.86859375 4.06242187 7 4 C6.86463371 6.41854446 6.76579721 8.82949783 6.6875 11.25 C6.64560547 11.93191406 6.60371094 12.61382812 6.56054688 13.31640625 C6.45252862 15.612851 6.45252862 15.612851 7 19 C9.36128056 21.51705372 9.36128056 21.51705372 12 23 C10.74458443 25.51083114 9.49936512 25.87125446 7 27 C7.33 28.98 7.66 30.96 8 33 C7.01 33 6.02 33 5 33 C5 33.99 5 34.98 5 36 C4.34 36 3.68 36 3 36 C3 36.66 3 37.32 3 38 C1.68 37.67 0.36 37.34 -1 37 C-1 35.68 -1 34.36 -1 33 C1.475 32.505 1.475 32.505 4 32 C4.20086443 28.28400809 4.1519437 27.22791555 2 24 C2 23.01 2 22.02 2 21 C0.56249809 19.31201173 0.56249809 19.31201173 -1 18 C-0.34 18 0.32 18 1 18 C1.309375 17.38125 1.61875 16.7625 1.9375 16.125 C2.625 14.75 3.3125 13.375 4 12 C4.40423599 7.71509847 4.45828448 5.67310532 2 2.0625 C1.34 1.381875 0.68 0.70125 0 0 Z " fill="#FDF9F0" transform="translate(83,21)"/>
<path d="M0 0 C9.1796875 -0.1953125 9.1796875 -0.1953125 12 0 C14 2 14 2 14.1953125 5.0390625 C14.17210938 6.22242188 14.14890625 7.40578125 14.125 8.625 C14.10695313 9.81351563 14.08890625 11.00203125 14.0703125 12.2265625 C14.04710938 13.14179687 14.02390625 14.05703125 14 15 C12.35 15 10.7 15 9 15 C9 11.7 9 8.4 9 5 C8.01 5.33 7.02 5.66 6 6 C5.67 8.97 5.34 11.94 5 15 C3.35 15 1.7 15 0 15 C0 10.05 0 5.1 0 0 Z " fill="#E1A756" transform="translate(90,25)"/>
<path d="M0 0 C6.29394813 -0.36311239 6.29394813 -0.36311239 9.1875 1.125 C11.7052748 3.72959462 11.59646732 5.61786516 11.75 9.1875 C11.80671875 10.27417969 11.8634375 11.36085938 11.921875 12.48046875 C11.96054688 13.72763672 11.96054688 13.72763672 12 15 C11.13375 14.814375 10.2675 14.62875 9.375 14.4375 C6.01973331 13.82126649 6.01973331 13.82126649 2.8125 14.625 C0 15 0 15 -1.875 13.8125 C-3 12 -3 12 -3 8 C0.4352048 5.70986347 1.985331 5.82157027 6 6 C6 5.34 6 4.68 6 4 C3.69 4 1.38 4 -1 4 C-0.67 2.68 -0.34 1.36 0 0 Z " fill="#653684" transform="translate(173,25)"/>
<path d="M0 0 C3.96 0 7.92 0 12 0 C12.33 0.99 12.66 1.98 13 3 C13.99 3.33 14.98 3.66 16 4 C15.67 4.33 15.34 4.66 15 5 C14.71948384 8.15580677 14.73457109 10.38619565 16 13.3125 C19.09727571 15.92582638 22.00230208 15.73785587 26 16 C26.33 15.01 26.66 14.02 27 13 C27.33 13.66 27.66 14.32 28 15 C27.67 15.66 27.34 16.32 27 17 C24.03 17 21.06 17 18 17 C18 20.96 18 24.92 18 29 C17.34 28.67 16.68 28.34 16 28 C15.5859375 25.27734375 15.5859375 25.27734375 15.375 21.9375 C15.30023438 20.83277344 15.22546875 19.72804688 15.1484375 18.58984375 C15.09945312 17.73519531 15.05046875 16.88054688 15 16 C13.02 16 11.04 16 9 16 C10.32 15.34 11.64 14.68 13 14 C12.67 13.34 12.34 12.68 12 12 C10.10466658 11.53476937 10.10466658 11.53476937 7.9375 11.375 C6.638125 11.25125 5.33875 11.1275 4 11 C4 9.35 4 7.7 4 6 C6.64 5.67 9.28 5.34 12 5 C11.009245 3.33358994 11.009245 3.33358994 9 2 C6.28153765 1.72654521 3.74322801 1.86508715 1 2 C0.93941406 2.62648438 0.87882812 3.25296875 0.81640625 3.8984375 C0.73261719 4.71570313 0.64882812 5.53296875 0.5625 6.375 C0.48128906 7.18710937 0.40007812 7.99921875 0.31640625 8.8359375 C0 11 0 11 -1 13 C-1.66 12.67 -2.32 12.34 -3 12 C-3 9.03 -3 6.06 -3 3 C-2.01 3 -1.02 3 0 3 C0 2.01 0 1.02 0 0 Z " fill="#FBEFCC" transform="translate(107,24)"/>
<path d="M0 0 C0.33 0 0.66 0 1 0 C1.07476563 0.61746094 1.14953125 1.23492188 1.2265625 1.87109375 C2.51224471 10.15239978 6.10908092 15.50046638 11.375 21.875 C13.80080498 26.54000958 13.77431606 30.84782005 13 36 C11.92312211 38.69219472 10.6957697 40.61532386 9 43 C8.67 42.34 8.34 41.68 8 41 C8.33 40.01 8.66 39.02 9 38 C8.21625 37.731875 7.4325 37.46375 6.625 37.1875 C4 36 4 36 2 33 C4.97 33.99 7.94 34.98 11 36 C10.85904936 34.3745692 10.71207913 32.74965949 10.5625 31.125 C10.48128906 30.22007813 10.40007813 29.31515625 10.31640625 28.3828125 C10.13010715 25.98889139 10.13010715 25.98889139 9 24 C8.01 23.34 7.02 22.68 6 22 C6.33 21.34 6.66 20.68 7 20 C6.34 20 5.68 20 5 20 C4.773125 19.360625 4.54625 18.72125 4.3125 18.0625 C3.14749104 15.72806339 3.14749104 15.72806339 0.375 15.25 C-0.40875 15.1675 -1.1925 15.085 -2 15 C-2.33 17.97 -2.66 20.94 -3 24 C-3.33 24 -3.66 24 -4 24 C-4.05423638 22.08364783 -4.09289963 20.16685075 -4.125 18.25 C-4.14820312 17.18265625 -4.17140625 16.1153125 -4.1953125 15.015625 C-3.99968675 11.99516341 -3.46144978 10.57902902 -2 8 C-1.5845535 6.59466244 -1.20799564 5.17712415 -0.875 3.75 C-0.58625 2.5125 -0.2975 1.275 0 0 Z " fill="#714888" transform="translate(25,17)"/>
<path d="M0 0 C2.64 0 5.28 0 8 0 C7.01 0.66 6.02 1.32 5 2 C4.26656572 5.06556598 4.26656572 5.06556598 4 8 C5.65 8 7.3 8 9 8 C9 6.02 9 4.04 9 2 C10.32 2 11.64 2 13 2 C13.8125 4.6875 13.8125 4.6875 14 8 C11.875 10.875 11.875 10.875 9 13 C6.1875 13.3125 6.1875 13.3125 4 13 C4 14.65 4 16.3 4 18 C2.68 18 1.36 18 0 18 C0 12.06 0 6.12 0 0 Z " fill="#63317F" transform="translate(139,21)"/>
<path d="M0 0 C1.134375 0.020625 2.26875 0.04125 3.4375 0.0625 C3.56125 1.01125 3.685 1.96 3.8125 2.9375 C4.15437177 6.14917191 4.15437177 6.14917191 6.4375 8.0625 C5.79296875 8.42988281 5.1484375 8.79726563 4.484375 9.17578125 C1.68195365 11.75892918 1.84856993 13.50512411 1.6875 17.25 C1.63078125 18.33667969 1.5740625 19.42335938 1.515625 20.54296875 C1.48984375 21.37441406 1.4640625 22.20585938 1.4375 23.0625 C0.7775 23.0625 0.1175 23.0625 -0.5625 23.0625 C-0.58828125 22.36382812 -0.6140625 21.66515625 -0.640625 20.9453125 C-0.69734375 20.03523438 -0.7540625 19.12515625 -0.8125 18.1875 C-0.85890625 17.28257813 -0.9053125 16.37765625 -0.953125 15.4453125 C-1.30684356 12.90977292 -1.30684356 12.90977292 -3.5 11.875 C-4.180625 11.606875 -4.86125 11.33875 -5.5625 11.0625 C-7.3125 8.9375 -7.3125 8.9375 -8.5625 7.0625 C-7.9025 7.0625 -7.2425 7.0625 -6.5625 7.0625 C-6.253125 6.093125 -5.94375 5.12375 -5.625 4.125 C-4.21956052 0.07402738 -4.21956052 0.07402738 0 0 Z " fill="#DCA857" transform="translate(42.5625,22.9375)"/>
<path d="M0 0 C2.375 2 2.375 2 4 4 C3 5 3 5 1.15234375 5.09765625 C-0.8984375 5.06510417 -2.94921875 5.03255208 -5 5 C-5 6.65 -5 8.3 -5 10 C-2.36 10 0.28 10 3 10 C3.33 10.99 3.66 11.98 4 13 C0.59677126 15.09429461 -2.03952054 15.33706208 -6 15 C-9 13 -9 13 -9.65234375 10.9765625 C-10.41567367 4.68170482 -10.41567367 4.68170482 -8.4375 1.4375 C-5.2987069 -0.41358311 -3.58929251 -0.59821542 0 0 Z " fill="#EA9321" transform="translate(116,25)"/>
<path d="M0 0 C2.31 0 4.62 0 7 0 C7.33 1.32 7.66 2.64 8 4 C5 5 5 5 2.8125 4.0625 C2.214375 3.711875 1.61625 3.36125 1 3 C0.01 3.99 -0.98 4.98 -2 6 C-1.01 7.485 -1.01 7.485 0 9 C0.66 8.01 1.32 7.02 2 6 C2.66 6 3.32 6 4 6 C3.71640113 7.4391134 3.42278601 8.87625518 3.125 10.3125 C2.88136719 11.51326172 2.88136719 11.51326172 2.6328125 12.73828125 C2 15 2 15 0 18 C-0.99 18 -1.98 18 -3 18 C-3 17.34 -3 16.68 -3 16 C-2.34 16 -1.68 16 -1 16 C-1.66 13.69 -2.32 11.38 -3 9 C-3.99 9.33 -4.98 9.66 -6 10 C-6 10.66 -6 11.32 -6 12 C-5.34 12 -4.68 12 -4 12 C-4 12.66 -4 13.32 -4 14 C-6.875 14.125 -6.875 14.125 -10 14 C-10.66 13.34 -11.32 12.68 -12 12 C-11.625 9.375 -11.625 9.375 -11 7 C-10.195625 6.87625 -9.39125 6.7525 -8.5625 6.625 C-7.716875 6.41875 -6.87125 6.2125 -6 6 C-5.67 5.34 -5.34 4.68 -5 4 C-3.68 4 -2.36 4 -1 4 C-0.67 2.68 -0.34 1.36 0 0 Z " fill="#FCF8FB" transform="translate(216,40)"/>
<path d="M0 0 C0.66 0.33 1.32 0.66 2 1 C1.34 1.66 0.68 2.32 0 3 C-0.46447597 7.92494167 -0.46447597 7.92494167 1.5 12.3125 C1.995 12.869375 2.49 13.42625 3 14 C3 14.66 3 15.32 3 16 C5.97 16.33 8.94 16.66 12 17 C12 17.33 12 17.66 12 18 C4.41765071 18.37290242 4.41765071 18.37290242 2.25 16.4375 C1.8375 15.963125 1.425 15.48875 1 15 C-1.13803054 15.07606836 -1.13803054 15.07606836 -3 16 C-3.33 16.66 -3.66 17.32 -4 18 C-4.66 18 -5.32 18 -6 18 C-5.01 19.32 -4.02 20.64 -3 22 C-5.68841859 24.25245881 -7.64641875 25.88213958 -11 27 C-11.33 27.66 -11.66 28.32 -12 29 C-12.99 28.67 -13.98 28.34 -15 28 C-14.66226563 27.55011719 -14.32453125 27.10023437 -13.9765625 26.63671875 C-10.06413671 20.99423184 -8.83301752 15.76360492 -8 9 C-7.67 9.66 -7.34 10.32 -7 11 C-6.01 11 -5.02 11 -4 11 C-3.67 11.66 -3.34 12.32 -3 13 C-2.95101562 12.14535156 -2.90203125 11.29070313 -2.8515625 10.41015625 C-2.77679688 9.30542969 -2.70203125 8.20070313 -2.625 7.0625 C-2.55539063 5.96035156 -2.48578125 4.85820312 -2.4140625 3.72265625 C-2.27742188 2.82417969 -2.14078125 1.92570312 -2 1 C-1.34 0.67 -0.68 0.34 0 0 Z " fill="#FCF2E2" transform="translate(70,23)"/>
<path d="M0 0 C1.32 0.33 2.64 0.66 4 1 C4 1.99 4 2.98 4 4 C4.66 4.33 5.32 4.66 6 5 C5.34 5 4.68 5 4 5 C3.90589844 5.70640625 3.81179687 6.4128125 3.71484375 7.140625 C2.87214364 10.51142545 1.42511188 12.82248528 -0.4375 15.75 C-3.56269116 20.91613233 -4.9535024 25.10155898 -6 31 C-6.66 31.66 -7.32 32.32 -8 33 C-8 32.01 -8 31.02 -8 30 C-8.66 30 -9.32 30 -10 30 C-10 29.34 -10 28.68 -10 28 C-9.34 28 -8.68 28 -8 28 C-8.13921875 26.82244141 -8.13921875 26.82244141 -8.28125 25.62109375 C-8.86731688 17.09172754 -8.86731688 17.09172754 -6.32421875 13.890625 C-4.90400802 12.7586106 -3.45533858 11.66138047 -1.98046875 10.6015625 C1.03587832 8.16230747 1.81462446 5.63021259 3 2 C2.01 1.67 1.02 1.34 0 1 C0 0.67 0 0.34 0 0 Z " fill="#F4E3D8" transform="translate(52,18)"/>
<path d="M0 0 C3.33333333 0 6.66666667 0 10 0 C10 1.65 10 3.3 10 5 C8.68 5.33 7.36 5.66 6 6 C5.67 8.97 5.34 11.94 5 15 C3.35 15 1.7 15 0 15 C0 10.05 0 5.1 0 0 Z " fill="#836195" transform="translate(187,25)"/>
<path d="M0 0 C4.75 0.875 4.75 0.875 7 2 C7.33 1.34 7.66 0.68 8 0 C9.65 0 11.3 0 13 0 C13 0.66 13 1.32 13 2 C12.34 2 11.68 2 11 2 C11 3.98 11 5.96 11 8 C11.66 8 12.32 8 13 8 C12.67 8.66 12.34 9.32 12 10 C8.04 9.67 4.08 9.34 0 9 C-0.33 7.35 -0.66 5.7 -1 4 C-0.34 3.67 0.32 3.34 1 3 C0.67 2.01 0.34 1.02 0 0 Z " fill="#826A8E" transform="translate(167,46)"/>
<path d="M0 0 C2.375 -0.1875 2.375 -0.1875 5 0 C7.35119399 3.52679099 7.21443452 5.02879485 7.125 9.1875 C7.10695312 10.27417969 7.08890625 11.36085938 7.0703125 12.48046875 C7.03550781 13.72763672 7.03550781 13.72763672 7 15 C5.02 15 3.04 15 1 15 C1 11.37 1 7.74 1 4 C0.01 4 -0.98 4 -2 4 C-1.34 2.68 -0.68 1.36 0 0 Z " fill="#774D90" transform="translate(214,25)"/>
<path d="M0 0 C-0.66 0.66 -1.32 1.32 -2 2 C-2.64767793 4.57061311 -2.64767793 4.57061311 -3 7 C-1.35 7 0.3 7 2 7 C2 4.69 2 2.38 2 0 C2.99 0.33 3.98 0.66 5 1 C5 3.31 5 5.62 5 8 C3.68 8 2.36 8 1 8 C1 8.66 1 9.32 1 10 C-2.375 10.1875 -2.375 10.1875 -6 10 C-8.29013653 6.5647952 -8.17842973 5.014669 -8 1 C-4.93251126 -0.86240388 -3.40254489 -1.2151946 0 0 Z " fill="#E49E3D" transform="translate(129,28)"/>
<path d="M0 0 C0.66 0.33 1.32 0.66 2 1 C1.57274437 3.56353377 1.16285524 5.69344896 -0.0625 8 C-1.21088963 10.44989787 -1.14853426 12.32638335 -1 15 C0.65 15 2.3 15 4 15 C3.5 16.8125 3.5 16.8125 2 19 C-1.14496215 20.59247024 -4.44551303 22 -8 22 C-7.07781968 19.167589 -6.15636674 16.371371 -5 13.625 C-3.90132217 10.74097068 -3.21859894 7.87821298 -2.5625 4.8671875 C-2 3 -2 3 0 0 Z " fill="#6A3B85" transform="translate(50,35)"/>
<path d="M0 0 C0.99 0 1.98 0 3 0 C3 4.29 3 8.58 3 13 C2.01 12.67 1.02 12.34 0 12 C0 10.35 0 8.7 0 7 C-2.97 6.505 -2.97 6.505 -6 6 C-6 7.65 -6 9.3 -6 11 C-4.35 10.67 -2.7 10.34 -1 10 C-1 10.66 -1 11.32 -1 12 C-3.375 12.625 -3.375 12.625 -6 13 C-8 11 -8 11 -8.125 7.875 C-8.08375 6.92625 -8.0425 5.9775 -8 5 C-7.34 5 -6.68 5 -6 5 C-6 4.34 -6 3.68 -6 3 C-4.02 3 -2.04 3 0 3 C0 2.01 0 1.02 0 0 Z " fill="#AD9CB7" transform="translate(107,42)"/>
<path d="M0 0 C0.94875 0.04125 1.8975 0.0825 2.875 0.125 C4.24452673 2.86405345 4.00121361 5.09587332 3.875 8.125 C3.545 8.785 3.215 9.445 2.875 10.125 C0 10.25 0 10.25 -3.125 10.125 C-5.125 8.125 -5.125 8.125 -5.375 5.125 C-5.02345647 0.90647769 -4.22997422 0.16919897 0 0 Z " fill="#F8FAE7" transform="translate(79.125,24.875)"/>
<path d="M0 0 C0.66 0.33 1.32 0.66 2 1 C1.67 1.66 1.34 2.32 1 3 C1.99 2.67 2.98 2.34 4 2 C4 5.63 4 9.26 4 13 C3.67 13 3.34 13 3 13 C2.34 11.02 1.68 9.04 1 7 C-0.32 7 -1.64 7 -3 7 C-2.01 7.66 -1.02 8.32 0 9 C-1.98 9.99 -1.98 9.99 -4 11 C-4 11.66 -4 12.32 -4 13 C-3.01 13.66 -2.02 14.32 -1 15 C-2.65 15 -4.3 15 -6 15 C-6 10.71 -6 6.42 -6 2 C-4.02 1.34 -2.04 0.68 0 0 Z " fill="#FBF4F8" transform="translate(116,40)"/>
<path d="M0 0 C3.875 1.75 3.875 1.75 5 4 C5.54724071 9.69130337 4.59333707 12.56117185 1 17 C-2.01324195 18.50662097 -4.68286377 18.17770373 -8 18 C-8.66 17.34 -9.32 16.68 -10 16 C-6.7 16 -3.4 16 0 16 C0 15.34 0 14.68 0 14 C-4.455 14.495 -4.455 14.495 -9 15 C-8.67 13.68 -8.34 12.36 -8 11 C-5.69 11.66 -3.38 12.32 -1 13 C-0.67 11.02 -0.34 9.04 0 7 C0.66 8.32 1.32 9.64 2 11 C2.16687448 8.58354218 2.16687448 8.58354218 2 6 C1.34 5.34 0.68 4.68 0 4 C0 2.68 0 1.36 0 0 Z " fill="#E3A046" transform="translate(83,22)"/>
<path d="M0 0 C2.33294775 -0.04241723 4.66702567 -0.04092937 7 0 C8 1 8 1 8.0625 4.0625 C8.041875 5.031875 8.02125 6.00125 8 7 C6.35 7.33 4.7 7.66 3 8 C3 9.32 3 10.64 3 12 C2.01 12 1.02 12 0 12 C0 8.04 0 4.08 0 0 Z " fill="#8E799C" transform="translate(147,43)"/>
<path d="M0 0 C0.99 0 1.98 0 3 0 C3 3.3 3 6.6 3 10 C6.465 9.505 6.465 9.505 10 9 C10.66 11.31 11.32 13.62 12 16 C10.35 16 8.7 16 7 16 C6.67 15.01 6.34 14.02 6 13 C6.33 12.34 6.66 11.68 7 11 C6.01 11.66 5.02 12.32 4 13 C0.3125 12.625 0.3125 12.625 -3 12 C-2.01 11.67 -1.02 11.34 0 11 C0 7.37 0 3.74 0 0 Z " fill="#FCF7FB" transform="translate(160,30)"/>
<path d="M0 0 C1.258125 0.33 2.51625 0.66 3.8125 1 C9.22793168 2.22450844 14.47495171 2.18588948 20 2 C20.33 3.32 20.66 4.64 21 6 C20.34 5.67 19.68 5.34 19 5 C16.9625237 4.77141886 14.91959697 4.58975722 12.875 4.4375 C10.93625 4.293125 8.9975 4.14875 7 4 C7 8.95 7 13.9 7 19 C6.67 18.01 6.34 17.02 6 16 C4.35 16.33 2.7 16.66 1 17 C1.7425 15.9790625 1.7425 15.9790625 2.5 14.9375 C4.36986505 11.27568094 4.50848176 9.06785405 4 5 C2.14283813 2.09190457 2.14283813 2.09190457 0 0 Z " fill="#FCF3D9" transform="translate(83,21)"/>
<path d="M0 0 C3.3 0 6.6 0 10 0 C10.99 0.99 11.98 1.98 13 3 C12.01 3 11.02 3 10 3 C10 4.98 10 6.96 10 9 C8.35 9 6.7 9 5 9 C4.95745644 7.00045254 4.95919217 4.99958364 5 3 C5.33 2.67 5.66 2.34 6 2 C4.35 1.67 2.7 1.34 1 1 C1 6.94 1 12.88 1 19 C2.32 19.33 3.64 19.66 5 20 C3.35 20 1.7 20 0 20 C0 13.4 0 6.8 0 0 Z " fill="#9F7DB1" transform="translate(138,20)"/>
<path d="M0 0 C1.98 0 3.96 0 6 0 C8 2 8 2 8.1875 4.5625 C8 7 8 7 7 8 C5.33382885 8.04063832 3.66611905 8.042721 2 8 C2 9.32 2 10.64 2 12 C1.34 12 0.68 12 0 12 C0 8.04 0 4.08 0 0 Z " fill="#694C7B" transform="translate(80,46)"/>
<path d="M0 0 C1.97909398 -0.02686553 3.95828971 -0.04633375 5.9375 -0.0625 C7.03964844 -0.07410156 8.14179688 -0.08570313 9.27734375 -0.09765625 C12 0 12 0 13 1 C13.04092937 3.33297433 13.04241723 5.66705225 13 8 C12.34 8 11.68 8 11 8 C11 6.02 11 4.04 11 2 C10.01 2 9.02 2 8 2 C8 4.31 8 6.62 8 9 C7.01 8.67 6.02 8.34 5 8 C5 6.02 5 4.04 5 2 C4.01 2.495 4.01 2.495 3 3 C2.34444881 5.52733235 2.34444881 5.52733235 2 8 C1.34 8 0.68 8 0 8 C0 5.36 0 2.72 0 0 Z " fill="#775E86" transform="translate(181,46)"/>
<path d="M0 0 C6.29394813 -0.36311239 6.29394813 -0.36311239 9.1875 1.125 C11.7052748 3.72959462 11.59646732 5.61786516 11.75 9.1875 C11.80671875 10.27417969 11.8634375 11.36085938 11.921875 12.48046875 C11.96054688 13.72763672 11.96054688 13.72763672 12 15 C10.68 14.67 9.36 14.34 8 14 C8.99 14 9.98 14 11 14 C10.34 13.67 9.68 13.34 9 13 C9 10.03 9 7.06 9 4 C8.34 4 7.68 4 7 4 C7 4.99 7 5.98 7 7 C6.34 6.67 5.68 6.34 5 6 C5.33 5.34 5.66 4.68 6 4 C3.69 4 1.38 4 -1 4 C-0.67 2.68 -0.34 1.36 0 0 Z " fill="#6D4883" transform="translate(173,25)"/>
<path d="M0 0 C0.33 0 0.66 0 1 0 C1 2.97 1 5.94 1 9 C2.32 9.66 3.64 10.32 5 11 C6.33333333 11.66666667 7.66666667 12.33333333 9 13 C8.01 13.495 8.01 13.495 7 14 C7.33 14.66 7.66 15.32 8 16 C6.66666667 17.33333333 5.33333333 18.66666667 4 20 C3 17 3 17 3 14 C2.34 13.67 1.68 13.34 1 13 C1 12.67 1 12.34 1 12 C-0.98 12 -2.96 12 -5 12 C-5 9.03 -5 6.06 -5 3 C-4.67 3 -4.34 3 -4 3 C-4 5.64 -4 8.28 -4 11 C-2.68 11 -1.36 11 0 11 C0 7.37 0 3.74 0 0 Z " fill="#D4C7D6" transform="translate(168,28)"/>
<path d="M0 0 C1.66611905 -0.042721 3.33382885 -0.04063832 5 0 C6 1 6 1 6.09765625 3.72265625 C6.08605469 4.82480469 6.07445312 5.92695313 6.0625 7.0625 C6.05347656 8.16722656 6.04445312 9.27195312 6.03515625 10.41015625 C6.02355469 11.26480469 6.01195312 12.11945312 6 13 C4.68 13 3.36 13 2 13 C1.92652344 11.93458984 1.92652344 11.93458984 1.8515625 10.84765625 C1.73941406 9.46900391 1.73941406 9.46900391 1.625 8.0625 C1.55539063 7.14597656 1.48578125 6.22945312 1.4140625 5.28515625 C1.27742187 4.53105469 1.14078125 3.77695312 1 3 C0.34 2.67 -0.32 2.34 -1 2 C-0.67 1.34 -0.34 0.68 0 0 Z " fill="#622D7E" transform="translate(162,26)"/>
<path d="M0 0 C0.66 0 1.32 0 2 0 C1.67 0.99 1.34 1.98 1 3 C1.38932856 5.14255793 1.38932856 5.14255793 2 7 C3.32 7.33 4.64 7.66 6 8 C6.66 6.35 7.32 4.7 8 3 C9.98 3 11.96 3 14 3 C14 3.66 14 4.32 14 5 C12.7934375 5.309375 12.7934375 5.309375 11.5625 5.625 C10.716875 6.07875 9.87125 6.5325 9 7 C8.10169161 10.05272465 8.10169161 10.05272465 8 13 C3.59712222 11.65467623 1.45241369 9.90569587 -1 6 C-1.3125 3.25 -1.3125 3.25 -1 1 C-0.67 0.67 -0.34 0.34 0 0 Z " fill="#E39E3D" transform="translate(29,18)"/>
<path d="M0 0 C4 1 4 1 5 2 C5.07205511 3.68608966 5.08386068 5.37500659 5.0625 7.0625 C5.05347656 7.98160156 5.04445312 8.90070312 5.03515625 9.84765625 C5.02355469 10.55792969 5.01195312 11.26820312 5 12 C3.35 12 1.7 12 0 12 C0 8.04 0 4.08 0 0 Z " fill="#6D3D88" transform="translate(207,28)"/>
<path d="M0 0 C2.375 -0.125 2.375 -0.125 5 0 C7 2 7 2 7.125 5.625 C7.08375 6.73875 7.0425 7.8525 7 9 C5.02 9 3.04 9 1 9 C0.34 7.68 -0.32 6.36 -1 5 C-0.34 4.34 0.32 3.68 1 3 C0.67 2.01 0.34 1.02 0 0 Z " fill="#8C7397" transform="translate(196,46)"/>
<path d="M0 0 C4.70588235 0.70588235 4.70588235 0.70588235 6 2 C5.71269945 4.33944736 5.38063221 6.6739143 5 9 C0.125 8.125 0.125 8.125 -1 7 C-1.125 4 -1.125 4 -1 1 C-0.67 0.67 -0.34 0.34 0 0 Z " fill="#FDF3CF" transform="translate(39,23)"/>
<path d="M0 0 C1.67542976 0.28604898 3.34385343 0.61781233 5 1 C5.33 2.32 5.66 3.64 6 5 C4.35 5 2.7 5 1 5 C1 5.66 1 6.32 1 7 C2.65 6.67 4.3 6.34 6 6 C5.01 7.485 5.01 7.485 4 9 C2.68 9 1.36 9 0 9 C-2 6 -2 6 -1.6875 3.375 C-1 1 -1 1 0 0 Z " fill="#82678E" transform="translate(91,46)"/>
<path d="M0 0 C4.875 0.875 4.875 0.875 6 2 C6.04080783 3.99958364 6.04254356 6.00045254 6 8 C3.69 8 1.38 8 -1 8 C-1 4.88742431 -0.82638376 2.89234315 0 0 Z " fill="#846A91" transform="translate(113,46)"/>
<path d="M0 0 C1.30048841 2.60097682 1.56471422 5.13955062 2 8 C4.31 8.66 6.62 9.32 9 10 C9 9.34 9 8.68 9 8 C7.68 7.67 6.36 7.34 5 7 C7.31 7 9.62 7 12 7 C12.33 7.99 12.66 8.98 13 10 C9.59677126 12.09429461 6.96047946 12.33706208 3 12 C0 10 0 10 -0.546875 7.87109375 C-0.61390625 7.06800781 -0.6809375 6.26492187 -0.75 5.4375 C-0.86601563 4.22900391 -0.86601563 4.22900391 -0.984375 2.99609375 C-0.98953125 2.33738281 -0.9946875 1.67867187 -1 1 C-0.67 0.67 -0.34 0.34 0 0 Z " fill="#DDA552" transform="translate(107,28)"/>
<path d="M0 0 C0.78375 0.04125 1.5675 0.0825 2.375 0.125 C2.375 0.785 2.375 1.445 2.375 2.125 C1.715 2.125 1.055 2.125 0.375 2.125 C0.375 4.105 0.375 6.085 0.375 8.125 C1.035 8.125 1.695 8.125 2.375 8.125 C2.045 8.785 1.715 9.445 1.375 10.125 C-0.935 9.795 -3.245 9.465 -5.625 9.125 C-4.6356383 0.22074468 -4.6356383 0.22074468 0 0 Z " fill="#DDCEE4" transform="translate(177.625,45.875)"/>
<path d="M0 0 C2.39763185 2.39763185 2.34280586 3.33273498 2.625 6.625 C2.69976562 7.44226562 2.77453125 8.25953125 2.8515625 9.1015625 C2.90054688 9.72804688 2.94953125 10.35453125 3 11 C5.64 11 8.28 11 11 11 C11 11.66 11 12.32 11 13 C7.7 13 4.4 13 1 13 C-0.99544337 8.88439805 -1.26247139 5.54950416 -1 1 C-0.67 0.67 -0.34 0.34 0 0 Z " fill="#E89424" transform="translate(72,25)"/>
<path d="M0 0 C2.51475368 3.77213052 2.44796416 5.52035842 2 10 C0.86762288 12.53554006 -0.47273135 14.66136988 -2 17 C-2.33 16.34 -2.66 15.68 -3 15 C-2.67 14.01 -2.34 13.02 -2 12 C-2.78375 11.731875 -3.5675 11.46375 -4.375 11.1875 C-7 10 -7 10 -9 7 C-6.03 7.99 -3.06 8.98 0 10 C0 6.7 0 3.4 0 0 Z " fill="#68447C" transform="translate(36,43)"/>
<path d="M0 0 C0.66 0 1.32 0 2 0 C2.33 0.99 2.66 1.98 3 3 C5.01508358 3.73323796 5.01508358 3.73323796 7 4 C7 6.64 7 9.28 7 12 C6.34 12 5.68 12 5 12 C5 9.69 5 7.38 5 5 C4.01 5.495 4.01 5.495 3 6 C2.34444881 8.52733235 2.34444881 8.52733235 2 11 C1.34 11 0.68 11 0 11 C0 7.37 0 3.74 0 0 Z " fill="#674976" transform="translate(157,43)"/>
<path d="M0 0 C1.32 0.66 2.64 1.32 4 2 C3.814375 2.78375 3.62875 3.5675 3.4375 4.375 C2.74037734 6.97089775 2.74037734 6.97089775 4 9 C3.01 9 2.02 9 1 9 C1 9.99 1 10.98 1 12 C0.34 12 -0.32 12 -1 12 C-1 12.66 -1 13.32 -1 14 C-2.32 13.67 -3.64 13.34 -5 13 C-5 11.68 -5 10.36 -5 9 C-3.35 8.67 -1.7 8.34 0 8 C0 7.236875 0 6.47375 0 5.6875 C0 3.79166667 0 1.89583333 0 0 Z " fill="#EEE0F2" transform="translate(87,45)"/>
<path d="M0 0 C0.66 0 1.32 0 2 0 C2.66 1.32 3.32 2.64 4 4 C4.33 2.68 4.66 1.36 5 0 C5.99 0 6.98 0 8 0 C7.54738642 1.43931117 7.08767021 2.87638999 6.625 4.3125 C6.36976563 5.11300781 6.11453125 5.91351563 5.8515625 6.73828125 C5 9 5 9 3 12 C2.34 12 1.68 12 1 12 C1.020625 10.948125 1.04125 9.89625 1.0625 8.8125 C1.01103198 5.67295096 0.73482813 3.03116604 0 0 Z " fill="#756083" transform="translate(135,46)"/>
<path d="M0 0 C0.99 0.99 1.98 1.98 3 3 C3.66 2.01 4.32 1.02 5 0 C5.66 0 6.32 0 7 0 C6.71640113 1.4391134 6.42278601 2.87625518 6.125 4.3125 C5.96257812 5.11300781 5.80015625 5.91351563 5.6328125 6.73828125 C5 9 5 9 3 12 C2.01 12 1.02 12 0 12 C0 11.34 0 10.68 0 10 C0.66 10 1.32 10 2 10 C1.34 6.7 0.68 3.4 0 0 Z " fill="#776486" transform="translate(213,46)"/>
<path d="M0 0 C1.67542976 0.28604898 3.34385343 0.61781233 5 1 C4.67 1.66 4.34 2.32 4 3 C2.68 2.67 1.36 2.34 0 2 C1.37691962 4.75383923 3.36720042 5.51483101 6 7 C5.67 8.32 5.34 9.64 5 11 C2.69 11 0.38 11 -2 11 C-2 10.34 -2 9.68 -2 9 C0.97 9.495 0.97 9.495 4 10 C2.62308038 7.24616077 0.63279958 6.48516899 -2 5 C-1.125 1.125 -1.125 1.125 0 0 Z " fill="#695076" transform="translate(72,43)"/>
<path d="M0 0 C1.32 0 2.64 0 4 0 C4 1.98 4 3.96 4 6 C3.67 5.34 3.34 4.68 3 4 C2.34 4 1.68 4 1 4 C1 8.62 1 13.24 1 18 C1.66 18 2.32 18 3 18 C3 15.36 3 12.72 3 10 C3.33 10 3.66 10 4 10 C4 12.97 4 15.94 4 19 C2.68 19 1.36 19 0 19 C0 12.73 0 6.46 0 0 Z " fill="#54276E" transform="translate(155,20)"/>
<path d="M0 0 C0.99 0.33 1.98 0.66 3 1 C3.33 5.29 3.66 9.58 4 14 C2.02 14.99 2.02 14.99 0 16 C-0.99 15.67 -1.98 15.34 -3 15 C-2.34 14.67 -1.68 14.34 -1 14 C-1 10.7 -1 7.4 -1 4 C-1.66 4 -2.32 4 -3 4 C-2.67 3.01 -2.34 2.02 -2 1 C-1.34 0.67 -0.68 0.34 0 0 Z " fill="#CEBFD4" transform="translate(120,39)"/>
<path d="M0 0 C1.02867188 -0.01417969 2.05734375 -0.02835938 3.1171875 -0.04296875 C6.17963488 0.19168631 8.35748861 0.89565428 11.125 2.1875 C11.125 2.8475 11.125 3.5075 11.125 4.1875 C10.135 4.1875 9.145 4.1875 8.125 4.1875 C8.125 3.5275 8.125 2.8675 8.125 2.1875 C2.185 2.5175 -3.755 2.8475 -9.875 3.1875 C-7.93696083 -0.68857834 -3.85486419 0.02403282 0 0 Z " fill="#E1AA59" transform="translate(40.875,14.8125)"/>
<path d="M0 0 C0.29296875 2.8203125 0.29296875 2.8203125 0.1875 6.125 C0.16042969 7.22070312 0.13335937 8.31640625 0.10546875 9.4453125 C0.07066406 10.28835937 0.03585938 11.13140625 0 12 C-0.33 12 -0.66 12 -1 12 C-1.3403125 10.1128125 -1.3403125 10.1128125 -1.6875 8.1875 C-2.4982907 4.83189177 -2.68510425 4.22492554 -5.625 2.125 C-6.40875 1.75375 -7.1925 1.3825 -8 1 C-8 0.34 -8 -0.32 -8 -1 C-3.375 -2.25 -3.375 -2.25 0 0 Z " fill="#DDCAE5" transform="translate(80,46)"/>
<path d="M0 0 C0.99 0.33 1.98 0.66 3 1 C2.67 1.66 2.34 2.32 2 3 C2.66 3 3.32 3 4 3 C3.67 6.3 3.34 9.6 3 13 C2.01 13 1.02 13 0 13 C0 8.71 0 4.42 0 0 Z " fill="#602E80" transform="translate(188,26)"/>
<path d="M0 0 C0.33 0.66 0.66 1.32 1 2 C0.34 2 -0.32 2 -1 2 C-1.66 3.65 -2.32 5.3 -3 7 C-4.65 6.67 -6.3 6.34 -8 6 C-8 4.68 -8 3.36 -8 2 C-4.77208445 -0.1519437 -3.71599191 -0.20086443 0 0 Z " fill="#F8921B" transform="translate(38,19)"/>
<path d="M0 0 C1.32 0.33 2.64 0.66 4 1 C4 1.99 4 2.98 4 4 C4.66 4.33 5.32 4.66 6 5 C5.34 5 4.68 5 4 5 C3.87625 5.7425 3.7525 6.485 3.625 7.25 C3.04513299 9.80141485 2.26291261 11.7267573 1 14 C-0.65 14 -2.3 14 -4 14 C-3.57847656 13.38511719 -3.15695313 12.77023438 -2.72265625 12.13671875 C-1.90087891 10.92435547 -1.90087891 10.92435547 -1.0625 9.6875 C-0.51722656 8.88699219 0.02804688 8.08648437 0.58984375 7.26171875 C2.13837326 4.9741857 2.13837326 4.9741857 3 2 C2.01 1.67 1.02 1.34 0 1 C0 0.67 0 0.34 0 0 Z " fill="#F1D8C2" transform="translate(52,18)"/>
<path d="M0 0 C2.375 2 2.375 2 4 4 C3 5 3 5 -0.5625 5.0625 C-1.696875 5.041875 -2.83125 5.02125 -4 5 C-3.67 4.01 -3.34 3.02 -3 2 C-4.65 2.33 -6.3 2.66 -8 3 C-8 2.34 -8 1.68 -8 1 C-5.15916359 -0.42041821 -3.14522722 -0.31452272 0 0 Z " fill="#E2A553" transform="translate(116,25)"/>
<path d="M0 0 C0.66 0.66 1.32 1.32 2 2 C1.34 2.66 0.68 3.32 0 4 C0 3.34 0 2.68 0 2 C-0.66 2 -1.32 2 -2 2 C-1.34 4.31 -0.68 6.62 0 9 C-0.66 9.66 -1.32 10.32 -2 11 C-4.125 10.625 -4.125 10.625 -6 10 C-5.01 10 -4.02 10 -3 10 C-3 9.34 -3 8.68 -3 8 C-3.66 8 -4.32 8 -5 8 C-4.75 5.125 -4.75 5.125 -4 2 C-1.9375 0.625 -1.9375 0.625 0 0 Z " fill="#F0E0F0" transform="translate(137,44)"/>
<path d="M0 0 C0.94875 0.04125 1.8975 0.0825 2.875 0.125 C4.22939668 2.83379335 3.94001451 5.13433268 3.875 8.125 C3.545 8.125 3.215 8.125 2.875 8.125 C2.545 5.815 2.215 3.505 1.875 1.125 C0.555 1.455 -0.765 1.785 -2.125 2.125 C-2.125 4.435 -2.125 6.745 -2.125 9.125 C-0.475 9.125 1.175 9.125 2.875 9.125 C2.875 9.455 2.875 9.785 2.875 10.125 C0 10.25 0 10.25 -3.125 10.125 C-5.125 8.125 -5.125 8.125 -5.375 5.125 C-5.02345647 0.90647769 -4.22997422 0.16919897 0 0 Z " fill="#FAD79F" transform="translate(79.125,24.875)"/>
<path d="M0 0 C0.66 0 1.32 0 2 0 C2.17015625 0.66386719 2.3403125 1.32773437 2.515625 2.01171875 C3.93131569 7.16995346 5.1901501 11.05877597 9 15 C7.35 15 5.7 15 4 15 C1.0554321 10.00703705 0.36504064 5.66442374 0 0 Z " fill="#EEDBD0" transform="translate(25,16)"/>
<path d="M0 0 C0.28875 0.598125 0.5775 1.19625 0.875 1.8125 C2.04742026 4.19327792 2.04742026 4.19327792 4 7 C3.030625 7.45375 2.06125 7.9075 1.0625 8.375 C-2.07079582 9.65786221 -2.07079582 9.65786221 -3 12 C-3.99 11.67 -4.98 11.34 -6 11 C-5.47599609 10.18595703 -5.47599609 10.18595703 -4.94140625 9.35546875 C-4.25884766 8.28232422 -4.25884766 8.28232422 -3.5625 7.1875 C-3.11003906 6.47980469 -2.65757813 5.77210937 -2.19140625 5.04296875 C-0.85913661 2.91865448 -0.85913661 2.91865448 0 0 Z " fill="#EFE5F3" transform="translate(61,40)"/>
<path d="M0 0 C0 0.66 0 1.32 0 2 C-1.65 1.67 -3.3 1.34 -5 1 C-5 2.65 -5 4.3 -5 6 C-3.35 5.67 -1.7 5.34 0 5 C0 5.66 0 6.32 0 7 C-2.375 7.625 -2.375 7.625 -5 8 C-7 6 -7 6 -7.125 2.875 C-7.08375 1.92625 -7.0425 0.9775 -7 0 C-4.3333581 -1.33332095 -2.83319697 -0.67102033 0 0 Z " fill="#725C7C" transform="translate(106,47)"/>
<path d="M0 0 C2 3 2 3 1.8125 5.3125 C0.87281219 8.42069813 -0.4707351 11.14093953 -2 14 C-3.32 13.34 -4.64 12.68 -6 12 C-5.53980469 11.60167969 -5.07960937 11.20335937 -4.60546875 10.79296875 C-2.7325678 8.70133484 -2.12610698 6.98578008 -1.3125 4.3125 C-1.06113281 3.50425781 -0.80976563 2.69601563 -0.55078125 1.86328125 C-0.36902344 1.24839844 -0.18726563 0.63351563 0 0 Z " fill="#EADFEE" transform="translate(220,46)"/>
<path d="M0 0 C-0.9375 2 -0.9375 2 -3 4 C-6.02534949 4.36475845 -8.96663814 4.22893297 -12 4 C-9.17895868 -2.24659149 -6.16171872 -0.89444304 0 0 Z " fill="#FBFCF7" transform="translate(185,41)"/>
<path d="M0 0 C0.33 0.66 0.66 1.32 1 2 C1.66 2 2.32 2 3 2 C3.33 1.34 3.66 0.68 4 0 C5.66666667 0 7.33333333 0 9 0 C8.875 1.875 8.875 1.875 8 4 C4.9375 5.25 4.9375 5.25 2 6 C1.34 5.34 0.68 4.68 0 4 C0 2.68 0 1.36 0 0 Z " fill="#9970AE" transform="translate(170,33)"/>
<path d="M0 0 C1.32 0 2.64 0 4 0 C3.67 3.3 3.34 6.6 3 10 C2.01 10 1.02 10 0 10 C0 6.7 0 3.4 0 0 Z " fill="#EC9321" transform="translate(91,28)"/>
<path d="M0 0 C1.32 0.33 2.64 0.66 4 1 C1.525 5.455 1.525 5.455 -1 10 C-1.66 10 -2.32 10 -3 10 C-3 8.02 -3 6.04 -3 4 C-2.34 4 -1.68 4 -1 4 C-0.67 2.68 -0.34 1.36 0 0 Z " fill="#F8F1F3" transform="translate(48,32)"/>
<path d="M0 0 C0.33 0 0.66 0 1 0 C1 4.62 1 9.24 1 14 C0.67 13.01 0.34 12.02 0 11 C-1.65 11.33 -3.3 11.66 -5 12 C-4.319375 10.9790625 -4.319375 10.9790625 -3.625 9.9375 C-1.83163514 6.69564814 -0.91246131 3.5796559 0 0 Z " fill="#FAE1B3" transform="translate(89,26)"/>
<path d="M0 0 C1.91541138 -0.10841951 3.83259773 -0.18578079 5.75 -0.25 C6.81734375 -0.29640625 7.8846875 -0.3428125 8.984375 -0.390625 C12 0 12 0 16 4 C10.39 3.34 4.78 2.68 -1 2 C-0.67 1.34 -0.34 0.68 0 0 Z " fill="#FEF7DC" transform="translate(36,13)"/>
<path d="M0 0 C0.33 0 0.66 0 1 0 C1 4.29 1 8.58 1 13 C0.01 13.495 0.01 13.495 -1 14 C-1.33 10.37 -1.66 6.74 -2 3 C-1.34 3 -0.68 3 0 3 C0 2.01 0 1.02 0 0 Z " fill="#EED8F6" transform="translate(186,26)"/>
<path d="M0 0 C1.32 0.66 2.64 1.32 4 2 C4 2.66 4 3.32 4 4 C3.01 4.33 2.02 4.66 1 5 C-0.20882096 7.00016466 -0.20882096 7.00016466 -1 9 C-1.99 7.02 -2.98 5.04 -4 3 C-3.01 3 -2.02 3 -1 3 C-0.67 2.01 -0.34 1.02 0 0 Z " fill="#F6EDF6" transform="translate(217,42)"/>
<path d="M0 0 C0.99 0.33 1.98 0.66 3 1 C2.67 2.32 2.34 3.64 2 5 C3.2375 5.680625 3.2375 5.680625 4.5 6.375 C5.325 6.91125 6.15 7.4475 7 8 C7 8.66 7 9.32 7 10 C1.125 9.125 1.125 9.125 0 8 C-0.14115161 5.32941149 -0.04247107 2.67567762 0 0 Z " fill="#E6D3EC" transform="translate(69,43)"/>
<path d="M0 0 C0.66 0 1.32 0 2 0 C2.98120464 3.05263664 2.98120464 4.94736336 2 8 C2.66 8 3.32 8 4 8 C4 8.66 4 9.32 4 10 C2.68 10 1.36 10 0 10 C-1.125 2.25 -1.125 2.25 0 0 Z " fill="#6B4980" transform="translate(130,44)"/>
<path d="M0 0 C-1.98 0.99 -1.98 0.99 -4 2 C-4 2.99 -4 3.98 -4 5 C-2.35 5 -0.7 5 1 5 C1 5.66 1 6.32 1 7 C-1.875 7.125 -1.875 7.125 -5 7 C-5.66 6.34 -6.32 5.68 -7 5 C-6.75 2.4375 -6.75 2.4375 -6 0 C-3.50907189 -1.24546405 -2.58919267 -0.7767578 0 0 Z " fill="#624E70" transform="translate(211,47)"/>
<path d="M0 0 C0.66 0 1.32 0 2 0 C1.49701212 4.40114397 -0.08772731 6.71195019 -3 10 C-4.32 9.67 -5.64 9.34 -7 9 C-6.67 7.68 -6.34 6.36 -6 5 C-6 5.99 -6 6.98 -6 8 C-5.01 8 -4.02 8 -3 8 C-3 7.01 -3 6.02 -3 5 C-2.34 4.67 -1.68 4.34 -1 4 C-0.34786708 1.97536745 -0.34786708 1.97536745 0 0 Z " fill="#DC9939" transform="translate(53,20)"/>
<path d="M0 0 C1.98 0.99 3.96 1.98 6 3 C5.34 3.45375 4.68 3.9075 4 4.375 C3.01 5.179375 3.01 5.179375 2 6 C2 6.66 2 7.32 2 8 C2.99 8.66 3.98 9.32 5 10 C3.35 10 1.7 10 0 10 C0 6.7 0 3.4 0 0 Z " fill="#E8D7E9" transform="translate(110,45)"/>
<path d="M0 0 C0 1.65 0 3.3 0 5 C-1.65 5.33 -3.3 5.66 -5 6 C-5 5.34 -5 4.68 -5 4 C-5.66 4 -6.32 4 -7 4 C-5.34072249 0.68144498 -3.61238217 0 0 0 Z " fill="#75528C" transform="translate(197,25)"/>
<path d="M0 0 C0.66 0.33 1.32 0.66 2 1 C2 4.96 2 8.92 2 13 C1.34 12.67 0.68 12.34 0 12 C-0.44921875 9.53125 -0.44921875 9.53125 -0.6875 6.5 C-0.77386719 5.4996875 -0.86023438 4.499375 -0.94921875 3.46875 C-0.96597656 2.6540625 -0.98273438 1.839375 -1 1 C-0.67 0.67 -0.34 0.34 0 0 Z " fill="#FDF5FE" transform="translate(123,40)"/>
<path d="M0 0 C1.65 0 3.3 0 5 0 C5 1.65 5 3.3 5 5 C3.35 5 1.7 5 0 5 C0 3.35 0 1.7 0 0 Z " fill="#FDE6BB" transform="translate(126,30)"/>
<path d="M0 0 C-1 3 -1 3 -3 4 C-3 4.99 -3 5.98 -3 7 C-4.32 6.67 -5.64 6.34 -7 6 C-6.6875 4.125 -6.6875 4.125 -6 2 C-3 0 -3 0 0 0 Z " fill="#D5C6DD" transform="translate(213,46)"/>
<path d="M0 0 C0.99 0 1.98 0 3 0 C3 1.65 3 3.3 3 5 C3.66 5 4.32 5 5 5 C5 3.35 5 1.7 5 0 C5.33 0 5.66 0 6 0 C6 1.98 6 3.96 6 6 C3.03 5.505 3.03 5.505 0 5 C0 3.35 0 1.7 0 0 Z " fill="#ECE0ED" transform="translate(178,49)"/>
<path d="M0 0 C2.31 0.33 4.62 0.66 7 1 C6.67 2.32 6.34 3.64 6 5 C6 4.01 6 3.02 6 2 C2.9254644 2.7763932 2.9254644 2.7763932 1 5 C0.01 4.67 -0.98 4.34 -2 4 C-1.34 2.68 -0.68 1.36 0 0 Z " fill="#603575" transform="translate(173,31)"/>
<path d="M0 0 C0.66 0 1.32 0 2 0 C3.90608098 3.21182149 4.22266247 5.53882603 4.125 9.25 C4.10695313 10.14203125 4.08890625 11.0340625 4.0703125 11.953125 C4.03550781 12.96632813 4.03550781 12.96632813 4 14 C3.67 14 3.34 14 3 14 C2.8046875 11.98177083 2.609375 9.96354167 2.4140625 7.9453125 C2.13625251 5.77331755 2.13625251 5.77331755 0 4 C0 2.68 0 1.36 0 0 Z " fill="#815991" transform="translate(58,26)"/>
<path d="M0 0 C0.99 0.495 0.99 0.495 2 1 C1.67 1.66 1.34 2.32 1 3 C3.31 3 5.62 3 8 3 C8 3.66 8 4.32 8 5 C5.36 5.66 2.72 6.32 0 7 C0 4.69 0 2.38 0 0 Z " fill="#CBB2D5" transform="translate(171,26)"/>
<path d="M0 0 C1.32 0.33 2.64 0.66 4 1 C3.67 1.33 3.34 1.66 3 2 C2.92851801 3.35243917 2.91600546 4.70834367 2.9375 6.0625 C2.958125 7.361875 2.97875 8.66125 3 10 C2.01 9.67 1.02 9.34 0 9 C0 6.03 0 3.06 0 0 Z " fill="#FCE5B0" transform="translate(104,27)"/>
<path d="M0 0 C1.65 0 3.3 0 5 0 C5 0.66 5 1.32 5 2 C4.01 2.495 4.01 2.495 3 3 C2.34444881 5.52733235 2.34444881 5.52733235 2 8 C1.34 8 0.68 8 0 8 C0 5.36 0 2.72 0 0 Z " fill="#705980" transform="translate(175,46)"/>
<path d="M0 0 C-0.33 0.66 -0.66 1.32 -1 2 C-2.32 1.67 -3.64 1.34 -5 1 C-4.67 1.99 -4.34 2.98 -4 4 C-5.32 4 -6.64 4 -8 4 C-8 3.34 -8 2.68 -8 2 C-9.32 1.67 -10.64 1.34 -12 1 C-7.9472484 0.01751476 -4.16138263 -0.08159574 0 0 Z " fill="#E29939" transform="translate(103,26)"/>
<path d="M0 0 C1.32 0 2.64 0 4 0 C4.33 1.98 4.66 3.96 5 6 C3.35 5.67 1.7 5.34 0 5 C0 3.35 0 1.7 0 0 Z " fill="#72428C" transform="translate(148,23)"/>
<path d="M0 0 C0.99 0 1.98 0 3 0 C3.309375 0.804375 3.61875 1.60875 3.9375 2.4375 C4.76335345 4.89080405 4.76335345 4.89080405 6 6 C6.04080783 7.99958364 6.04254356 10.00045254 6 12 C4 11 4 11 2.875 8.1875 C2 5 2 5 2 1 C1.34 0.67 0.68 0.34 0 0 Z " fill="#E6941F" transform="translate(80,22)"/>
<path d="M0 0 C1.32 0.33 2.64 0.66 4 1 C4 3.64 4 6.28 4 9 C3.34 9 2.68 9 2 9 C2 6.69 2 4.38 2 2 C1.34 2 0.68 2 0 2 C0 1.34 0 0.68 0 0 Z " fill="#6E587D" transform="translate(160,46)"/>
<path d="M0 0 C0.99 0 1.98 0 3 0 C4.16063604 4.25566547 3.76173392 7.6835078 3 12 C2.34 11.67 1.68 11.34 1 11 C1.33 8.36 1.66 5.72 2 3 C1.34 3 0.68 3 0 3 C0 2.01 0 1.02 0 0 Z " fill="#B39DBC" transform="translate(125,43)"/>
<path d="M0 0 C2.64 0 5.28 0 8 0 C7.67 0.99 7.34 1.98 7 3 C6.34 3 5.68 3 5 3 C5 3.66 5 4.32 5 5 C4.34 5 3.68 5 3 5 C3 4.01 3 3.02 3 2 C2.01 2 1.02 2 0 2 C0 1.34 0 0.68 0 0 Z " fill="#F3EAEF" transform="translate(125,41)"/>
<path d="M0 0 C0.33 0 0.66 0 1 0 C1 1.65 1 3.3 1 5 C1.99 5.33 2.98 5.66 4 6 C4 6.66 4 7.32 4 8 C1.5625 7.1875 1.5625 7.1875 -1 6 C-1.33 5.01 -1.66 4.02 -2 3 C-1.34 2.01 -0.68 1.02 0 0 Z " fill="#F7FBF1" transform="translate(136,36)"/>
<path d="M0 0 C0.66 0.66 1.32 1.32 2 2 C3.31747324 2.69748583 4.64914193 3.36959957 6 4 C3.36 4.66 0.72 5.32 -2 6 C-1.34 4.02 -0.68 2.04 0 0 Z " fill="#775488" transform="translate(44,51)"/>
<path d="M0 0 C0.66 0 1.32 0 2 0 C2.33 1.65 2.66 3.3 3 5 C0.36 4.67 -2.28 4.34 -5 4 C-5 3.34 -5 2.68 -5 2 C-3.35 2 -1.7 2 0 2 C0 1.34 0 0.68 0 0 Z " fill="#DCC2E4" transform="translate(97,49)"/>
<path d="M0 0 C-1.28062485 1.7074998 -2.61767557 3.37373596 -4 5 C-4.66 5 -5.32 5 -6 5 C-6 3.35 -6 1.7 -6 0 C-3.50907189 -1.24546405 -2.58919267 -0.7767578 0 0 Z " fill="#EA911F" transform="translate(129,28)"/>
<path d="M0 0 C0.66 0.33 1.32 0.66 2 1 C2.625 3.5625 2.625 3.5625 3 6 C2.01 6 1.02 6 0 6 C0 5.34 0 4.68 0 4 C-0.66 4 -1.32 4 -2 4 C-2.33 3.01 -2.66 2.02 -3 1 C-2.01 0.67 -1.02 0.34 0 0 Z " fill="#F7ECFA" transform="translate(212,48)"/>
<path d="M0 0 C-3 2 -3 2 -5 2 C-5.33 3.32 -5.66 4.64 -6 6 C-6.33 6 -6.66 6 -7 6 C-7 4.02 -7 2.04 -7 0 C-4.3333581 -1.33332095 -2.83319697 -0.67102033 0 0 Z " fill="#D9C5E0" transform="translate(171,48)"/>
<path d="M0 0 C1.32 0.33 2.64 0.66 4 1 C4 3.31 4 5.62 4 8 C3.34 8 2.68 8 2 8 C2 6.02 2 4.04 2 2 C1.34 2 0.68 2 0 2 C0 1.34 0 0.68 0 0 Z " fill="#68507A" transform="translate(190,46)"/>
<path d="M0 0 C0.33 0 0.66 0 1 0 C1.33 1.65 1.66 3.3 2 5 C3.32 5.33 4.64 5.66 6 6 C6 6.66 6 7.32 6 8 C3.69 7.67 1.38 7.34 -1 7 C-0.67 4.69 -0.34 2.38 0 0 Z " fill="#E59831" transform="translate(110,30)"/>
<path d="M0 0 C1.32 0 2.64 0 4 0 C4 3.3 4 6.6 4 10 C3.67 10 3.34 10 3 10 C2.690625 8.906875 2.38125 7.81375 2.0625 6.6875 C1.41662103 4.44592006 0.7376883 2.2130649 0 0 Z " fill="#EF941D" transform="translate(98,27)"/>
<path d="M0 0 C0.99 0.33 1.98 0.66 3 1 C2.67 2.32 2.34 3.64 2 5 C-0.31 5 -2.62 5 -5 5 C-5 4.34 -5 3.68 -5 3 C-2.03 3.495 -2.03 3.495 1 4 C0.67 2.68 0.34 1.36 0 0 Z " fill="#584065" transform="translate(75,49)"/>
<path d="M0 0 C0.66 0 1.32 0 2 0 C2.625 1.875 2.625 1.875 3 4 C2.34 4.66 1.68 5.32 1 6 C-1.125 5.625 -1.125 5.625 -3 5 C-2.01 5 -1.02 5 0 5 C-0.2784375 4.0409375 -0.2784375 4.0409375 -0.5625 3.0625 C-0.706875 2.381875 -0.85125 1.70125 -1 1 C-0.67 0.67 -0.34 0.34 0 0 Z " fill="#E4DAE9" transform="translate(134,49)"/>
<path d="M0 0 C1.65 0.33 3.3 0.66 5 1 C4.360625 1.4125 3.72125 1.825 3.0625 2.25 C0.79009069 4.17810487 0.39803561 5.11424181 0 8 C-0.99 7.67 -1.98 7.34 -3 7 C-2.34 7 -1.68 7 -1 7 C-0.67 4.69 -0.34 2.38 0 0 Z " fill="#EAD4EE" transform="translate(195,47)"/>
<path d="M0 0 C0.99 0.33 1.98 0.66 3 1 C3 3.31 3 5.62 3 8 C2.34 8 1.68 8 1 8 C0.67 5.36 0.34 2.72 0 0 Z " fill="#E89819" transform="translate(131,28)"/>
<path d="M0 0 C-0.66 1.32 -1.32 2.64 -2 4 C-3.32 4 -4.64 4 -6 4 C-5.67 3.01 -5.34 2.02 -5 1 C-3 0 -3 0 0 0 Z " fill="#62357C" transform="translate(54,50)"/>
<path d="M0 0 C1.32 0.33 2.64 0.66 4 1 C3.67 2.32 3.34 3.64 3 5 C2.01 4.67 1.02 4.34 0 4 C0 2.68 0 1.36 0 0 Z " fill="#EDD7F1" transform="translate(82,48)"/>
<path d="M0 0 C1.65 0.33 3.3 0.66 5 1 C4.67 1.99 4.34 2.98 4 4 C2.35 4 0.7 4 -1 4 C-0.67 2.68 -0.34 1.36 0 0 Z " fill="#F6FBFC" transform="translate(90,42)"/>
<path d="M0 0 C0.33 0 0.66 0 1 0 C1.66 2.31 2.32 4.62 3 7 C2.34 7 1.68 7 1 7 C0.67 7.66 0.34 8.32 0 9 C-0.99 7.68 -1.98 6.36 -3 5 C-2.34 5 -1.68 5 -1 5 C-0.67 3.35 -0.34 1.7 0 0 Z " fill="#E6B76D" transform="translate(37,25)"/>
<path d="M0 0 C1.65 0 3.3 0 5 0 C5 0.99 5 1.98 5 3 C3.35 3.33 1.7 3.66 0 4 C0 2.68 0 1.36 0 0 Z " fill="#FBFBF3" transform="translate(39,25)"/>
</svg>
