<?xml version="1.0" encoding="UTF-8"?>
<svg version="1.1" xmlns="http://www.w3.org/2000/svg" width="192" height="116">
<path d="M0 0 C63.36 0 126.72 0 192 0 C192 38.28 192 76.56 192 116 C128.64 116 65.28 116 0 116 C0 77.72 0 39.44 0 0 Z " fill="#FDFDFC" transform="translate(0,0)"/>
<path d="M0 0 C2.31 0 4.62 0 7 0 C7 0.66 7 1.32 7 2 C8.65 2 10.3 2 12 2 C12 2.99 12 3.98 12 5 C13.3303125 5.12375 13.3303125 5.12375 14.6875 5.25 C19.46348879 5.89775556 23.89563474 7.56295277 28.42578125 9.16015625 C37.11896008 11.20281576 44.64722762 9.67868181 53.0625 7.125 C54.01060547 6.85558594 54.95871094 6.58617188 55.93554688 6.30859375 C59.51164483 5.27913937 59.51164483 5.27913937 63 4 C63.33 3.34 63.66 2.68 64 2 C67.75920564 0.06669424 70.80924525 -0.19491883 75 0 C75 0.66 75 1.32 75 2 C74.34 2 73.68 2 73 2 C73 3.32 73 4.64 73 6 C73.99 6 74.98 6 76 6 C76 6.66 76 7.32 76 8 C75.01 8 74.02 8 73 8 C72.67 8.99 72.34 9.98 72 11 C71.01 11 70.02 11 69 11 C69 11.66 69 12.32 69 13 C48.82991992 19.64925486 34.1894044 22.6492577 14 15 C12.12828125 14.47019531 12.12828125 14.47019531 10.21875 13.9296875 C7.12350685 13.03567309 5.30928631 12.21691486 3 10 C3 9.34 3 8.68 3 8 C2.01 8 1.02 8 0 8 C0 7.34 0 6.68 0 6 C0.66 6 1.32 6 2 6 C2 4.68 2 3.36 2 2 C1.34 2 0.68 2 0 2 C0 1.34 0 0.68 0 0 Z " fill="#E34B3B" transform="translate(60,67)"/>
<path d="M0 0 C2.75159436 5.50318871 2.12228724 12.13916665 1 18 C1.7425 17.7525 1.7425 17.7525 2.5 17.5 C6.03444089 16.79311182 9.39690701 16.93994845 13 17 C12.87431641 15.78763672 12.87431641 15.78763672 12.74609375 14.55078125 C12.64425781 13.48214844 12.54242188 12.41351563 12.4375 11.3125 C12.33308594 10.25675781 12.22867188 9.20101562 12.12109375 8.11328125 C12.00722448 5.18573914 12.29151585 2.82868856 13 0 C15.46800047 1.15173355 17.04783565 2.04783565 19 4 C19.046875 6.27734375 19.046875 6.27734375 18.75 8.9375 C18.66234375 9.81277344 18.5746875 10.68804687 18.484375 11.58984375 C18 14 18 14 16 17 C18.0745356 17.1490712 18.0745356 17.1490712 20 16 C20 14.68 20 13.36 20 12 C21.32 12.66 22.64 13.32 24 14 C23.67 15.32 23.34 16.64 23 18 C21.68 18.33 20.36 18.66 19 19 C19 19.66 19 20.32 19 21 C21.97 20.67 24.94 20.34 28 20 C27.319375 20.5775 26.63875 21.155 25.9375 21.75 C24.9784375 22.86375 24.9784375 22.86375 24 24 C24.13641377 26.21858253 24.13641377 26.21858253 25 28 C24.01 28.33 23.02 28.66 22 29 C22 28.01 22 27.02 22 26 C21.52949219 26.44472656 21.05898437 26.88945313 20.57421875 27.34765625 C19.95160156 27.91355469 19.32898438 28.47945312 18.6875 29.0625 C18.07261719 29.63097656 17.45773438 30.19945313 16.82421875 30.78515625 C16.22222656 31.18605469 15.62023437 31.58695313 15 32 C14.01 31.67 13.02 31.34 12 31 C12.66 30.34 13.32 29.68 14 29 C8.96266834 27.4888005 4.11828973 28.35400227 -1 29 C0.65 29.33 2.3 29.66 4 30 C3.67 30.99 3.34 31.98 3 33 C0.21788056 32.62403791 -1.5879284 32.32681541 -3.8125 30.5625 C-5 29 -5 29 -5 27 C-3.02 27 -1.04 27 1 27 C1 26.34 1 25.68 1 25 C-1.97 25.66 -4.94 26.32 -8 27 C-7.67 27.99 -7.34 28.98 -7 30 C-8.32 29.67 -9.64 29.34 -11 29 C-10.938125 28.21625 -10.87625 27.4325 -10.8125 26.625 C-10.874375 25.75875 -10.93625 24.8925 -11 24 C-11.99 23.34 -12.98 22.68 -14 22 C-14 21.34 -14 20.68 -14 20 C-13.01 19.67 -12.02 19.34 -11 19 C-11 19.66 -11 20.32 -11 21 C-9.02 21 -7.04 21 -5 21 C-5 20.34 -5 19.68 -5 19 C-6.65 18.67 -8.3 18.34 -10 18 C-9.625 16.0625 -9.625 16.0625 -9 14 C-8.34 13.67 -7.68 13.34 -7 13 C-7 14.32 -7 15.64 -7 17 C-5.68 17.33 -4.36 17.66 -3 18 C-3.20238281 17.11957031 -3.40476562 16.23914063 -3.61328125 15.33203125 C-5.47549136 5.95856027 -5.47549136 5.95856027 -4.01953125 3.0234375 C-2.625 1.6875 -2.625 1.6875 0 0 Z " fill="#E51A25" transform="translate(91,40)"/>
<path d="M0 0 C9 0 18 0 27 0 C26.04337256 5.66323443 23.87058678 9.43213035 19.41723633 13.16479492 C16.32148813 16.79583459 16.18200084 19.7876396 16.07421875 24.36328125 C16.0369014 25.15526413 15.99958405 25.94724701 15.96113586 26.76322937 C15.84767189 29.27929173 15.76713669 31.79516259 15.6875 34.3125 C15.61610578 36.02418058 15.5425614 37.73577292 15.46679688 39.44726562 C15.28628303 43.63089831 15.13527635 47.81467025 15 52 C14.01 52 13.02 52 12 52 C10.86894075 46.79677925 10.58358899 41.68111508 10.3125 36.375 C10.25255859 35.42109375 10.19261719 34.4671875 10.13085938 33.484375 C10.08380859 32.56914063 10.03675781 31.65390625 9.98828125 30.7109375 C9.94227783 29.87868652 9.89627441 29.04643555 9.84887695 28.18896484 C10 26 10 26 12 23 C11.70241581 20.6618385 11.36760731 18.32817964 11 16 C11.4375 13.5625 11.4375 13.5625 12 12 C11.34 12 10.68 12 10 12 C9.67 10.68 9.34 9.36 9 8 C9 8.99 9 9.98 9 11 C8.67 11.66 8.34 12.32 8 13 C6 11.625 6 11.625 4 10 C4 9.34 4 8.68 4 8 C3.01 7.67 2.02 7.34 1 7 C0.67 4.69 0.34 2.38 0 0 Z " fill="#9A9B9D" transform="translate(85,5)"/>
<path d="M0 0 C2.31 0 4.62 0 7 0 C7 0.66 7 1.32 7 2 C8.65 2 10.3 2 12 2 C12 2.99 12 3.98 12 5 C13.3303125 5.12375 13.3303125 5.12375 14.6875 5.25 C19.46348879 5.89775556 23.89563474 7.56295277 28.42578125 9.16015625 C37.11896008 11.20281576 44.64722762 9.67868181 53.0625 7.125 C54.01060547 6.85558594 54.95871094 6.58617188 55.93554688 6.30859375 C59.51164483 5.27913937 59.51164483 5.27913937 63 4 C63.33 3.34 63.66 2.68 64 2 C67.75920564 0.06669424 70.80924525 -0.19491883 75 0 C75 0.66 75 1.32 75 2 C74.34 2 73.68 2 73 2 C73 3.32 73 4.64 73 6 C73.99 6 74.98 6 76 6 C76 6.66 76 7.32 76 8 C74.68 8 73.36 8 72 8 C72 6.35 72 4.7 72 3 C71.01 3 70.02 3 69 3 C69 3.66 69 4.32 69 5 C64.90411292 6.3597206 60.79722407 7.68275222 56.6875 9 C55.53958984 9.3815625 54.39167969 9.763125 53.20898438 10.15625 C42.72722142 13.4819085 34.16635645 14.60363311 24 10 C23.67 11.32 23.34 12.64 23 14 C21.35 14 19.7 14 18 14 C18 12.68 18 11.36 18 10 C18.99 9.67 19.98 9.34 21 9 C16.38 8.01 11.76 7.02 7 6 C7 7.65 7 9.3 7 11 C5.68 10.67 4.36 10.34 3 10 C3 9.34 3 8.68 3 8 C2.01 8 1.02 8 0 8 C0 7.34 0 6.68 0 6 C0.66 6 1.32 6 2 6 C2 4.68 2 3.36 2 2 C1.34 2 0.68 2 0 2 C0 1.34 0 0.68 0 0 Z " fill="#383826" transform="translate(60,67)"/>
<path d="M0 0 C0 1.98 0 3.96 0 6 C-3.3 6.33 -6.6 6.66 -10 7 C-10 6.01 -10 5.02 -10 4 C-10.99 4 -11.98 4 -13 4 C-12.505 6.475 -12.505 6.475 -12 9 C-17.06409602 10.89059585 -21.50623854 12.53597673 -27 12 C-27.66 11.67 -28.32 11.34 -29 11 C-29 10.34 -29 9.68 -29 9 C-29.99 9 -30.98 9 -32 9 C-32.33 9.66 -32.66 10.32 -33 11 C-39.05720465 12.64049293 -43.27428866 11.29807462 -49 9 C-48.0409375 8.5978125 -48.0409375 8.5978125 -47.0625 8.1875 C-44.66868314 7.11332248 -44.66868314 7.11332248 -44 4 C-42.906875 4.33 -41.81375 4.66 -40.6875 5 C-30.47499507 7.41128589 -22.44742408 5.55123163 -12.7253418 2.13476562 C-8.31766807 0.60545223 -4.74294116 -0.36660415 0 0 Z " fill="#ECE542" transform="translate(128,73)"/>
<path d="M0 0 C3.16791301 6.33582602 1.91681589 14.24377212 1 21 C0.01 21.33 -0.98 21.66 -2 22 C-2 22.66 -2 23.32 -2 24 C-9.34117647 25.34588235 -9.34117647 25.34588235 -12.5 23.6875 C-14 22 -14 22 -14 20 C-13.01 19.67 -12.02 19.34 -11 19 C-11 19.66 -11 20.32 -11 21 C-9.02 21 -7.04 21 -5 21 C-5 20.34 -5 19.68 -5 19 C-6.65 18.67 -8.3 18.34 -10 18 C-9.625 16.0625 -9.625 16.0625 -9 14 C-8.34 13.67 -7.68 13.34 -7 13 C-7 14.32 -7 15.64 -7 17 C-5.68 17.33 -4.36 17.66 -3 18 C-3.20238281 17.11957031 -3.40476562 16.23914063 -3.61328125 15.33203125 C-5.47549136 5.95856027 -5.47549136 5.95856027 -4.01953125 3.0234375 C-2.625 1.6875 -2.625 1.6875 0 0 Z " fill="#E42F3A" transform="translate(91,40)"/>
<path d="M0 0 C0.99 0.33 1.98 0.66 3 1 C3.625 3.8125 3.625 3.8125 4 7 C3.01 8.485 3.01 8.485 2 10 C1.6905671 12.74681487 1.48649831 15.41240666 1.3671875 18.16796875 C1.32562531 18.96278152 1.28406311 19.7575943 1.24124146 20.57649231 C1.11057171 23.11314644 0.99263379 25.65021119 0.875 28.1875 C0.78859868 29.90824542 0.70136908 31.62894947 0.61328125 33.34960938 C0.399243 37.56598648 0.19662043 41.78277622 0 46 C-0.99 46 -1.98 46 -3 46 C-3.74515899 42.61363691 -4.16770563 39.38056897 -4.31640625 35.91796875 C-4.35830078 34.98662109 -4.40019531 34.05527344 -4.44335938 33.09570312 C-4.48267578 32.13599609 -4.52199219 31.17628906 -4.5625 30.1875 C-4.60568359 29.20845703 -4.64886719 28.22941406 -4.69335938 27.22070312 C-4.7990226 24.81392973 -4.90112327 22.40706017 -5 20 C-4.34 20 -3.68 20 -3 20 C-2.67 21.65 -2.34 23.3 -2 25 C-1.03794912 18.62641289 -0.89344422 12.44070471 -1 6 C-0.34 6.33 0.32 6.66 1 7 C0.67 4.69 0.34 2.38 0 0 Z " fill="#D9D9D9" transform="translate(100,11)"/>
<path d="M0 0 C4.55555556 0.55555556 4.55555556 0.55555556 6 2 C6.825 2 7.65 2 8.5 2 C9.325 2 10.15 2 11 2 C12 3 12 3 12.09765625 4.84765625 C12.04882812 7.92382812 12.04882812 7.92382812 12 11 C10.02 11.33 8.04 11.66 6 12 C5 7.25 5 7.25 5 5 C4.34 4.67 3.68 4.34 3 4 C3 4.763125 3 5.52625 3 6.3125 C3 8.20833333 3 10.10416667 3 12 C-0.875 11.125 -0.875 11.125 -2 10 C-2.27314815 4.26388889 -2.27314815 4.26388889 -2 2 C-1.34 1.34 -0.68 0.68 0 0 Z " fill="#7F7F7F" transform="translate(75,95)"/>
<path d="M0 0 C1.32 0.66 2.64 1.32 4 2 C3.67 3.32 3.34 4.64 3 6 C1.68 6.33 0.36 6.66 -1 7 C-1 7.66 -1 8.32 -1 9 C3.455 8.505 3.455 8.505 8 8 C7.319375 8.5775 6.63875 9.155 5.9375 9.75 C5.298125 10.4925 4.65875 11.235 4 12 C4.13641377 14.21858253 4.13641377 14.21858253 5 16 C4.01 16.33 3.02 16.66 2 17 C2 16.01 2 15.02 2 14 C1.52949219 14.44472656 1.05898437 14.88945313 0.57421875 15.34765625 C-0.35970703 16.19650391 -0.35970703 16.19650391 -1.3125 17.0625 C-1.92738281 17.63097656 -2.54226562 18.19945313 -3.17578125 18.78515625 C-3.77777344 19.18605469 -4.37976563 19.58695313 -5 20 C-5.99 19.67 -6.98 19.34 -8 19 C-7.34 18.34 -6.68 17.68 -6 17 C-7.32 16.01 -8.64 15.02 -10 14 C-8.576875 13.1646875 -8.576875 13.1646875 -7.125 12.3125 C-3.84758812 9.88721521 -3.213962 8.74304948 -2 5 C-1.34 4.67 -0.68 4.34 0 4 C0 2.68 0 1.36 0 0 Z " fill="#E5676E" transform="translate(111,52)"/>
<path d="M0 0 C3.96 0 7.92 0 12 0 C11.0190851 4.90457451 10.05232878 7.16278668 7 11 C4.75 11.875 4.75 11.875 3 12 C2.67 9.69 2.34 7.38 2 5 C1.01 5 0.02 5 -1 5 C-0.67 3.35 -0.34 1.7 0 0 Z " fill="#A8A8AA" transform="translate(100,5)"/>
<path d="M0 0 C2.46800047 1.15173355 4.04783565 2.04783565 6 4 C6.046875 6.27734375 6.046875 6.27734375 5.75 8.9375 C5.66234375 9.81277344 5.5746875 10.68804687 5.484375 11.58984375 C5 14 5 14 3 17 C3.33 17.66 3.66 18.32 4 19 C1.36 18.67 -1.28 18.34 -4 18 C-2.68 17.67 -1.36 17.34 0 17 C-0.08378906 16.19175781 -0.16757813 15.38351563 -0.25390625 14.55078125 C-0.35574219 13.48214844 -0.45757812 12.41351563 -0.5625 11.3125 C-0.66691406 10.25675781 -0.77132812 9.20101562 -0.87890625 8.11328125 C-0.99277552 5.18573914 -0.70848415 2.82868856 0 0 Z " fill="#E53E48" transform="translate(104,40)"/>
<path d="M0 0 C2.31 0 4.62 0 7 0 C7 0.66 7 1.32 7 2 C8.65 2 10.3 2 12 2 C12 2.99 12 3.98 12 5 C12.66 5.33 13.32 5.66 14 6 C11.69 6 9.38 6 7 6 C7 7.65 7 9.3 7 11 C5.68 10.67 4.36 10.34 3 10 C3 9.34 3 8.68 3 8 C2.01 8 1.02 8 0 8 C0 7.34 0 6.68 0 6 C0.66 6 1.32 6 2 6 C2 4.68 2 3.36 2 2 C1.34 2 0.68 2 0 2 C0 1.34 0 0.68 0 0 Z " fill="#100F0A" transform="translate(60,67)"/>
<path d="M0 0 C1.75070517 0.11470137 3.50057536 0.24219028 5.25 0.375 C6.22453125 0.44460937 7.1990625 0.51421875 8.203125 0.5859375 C10.89633189 0.98465249 12.66963279 1.63507063 15 3 C14.67 4.32 14.34 5.64 14 7 C14 6.01 14 5.02 14 4 C13.01 4 12.02 4 11 4 C11 5.32 11 6.64 11 8 C5.06 7.01 5.06 7.01 -1 6 C-0.67 4.02 -0.34 2.04 0 0 Z " fill="#DFD742" transform="translate(67,73)"/>
<path d="M0 0 C0.99 0 1.98 0 3 0 C3 3.96 3 7.92 3 12 C1.02 12 -0.96 12 -3 12 C-4 11 -4 11 -4.09765625 9.15234375 C-4.06510417 7.1015625 -4.03255208 5.05078125 -4 3 C-2.68 2.67 -1.36 2.34 0 2 C0 1.34 0 0.68 0 0 Z " fill="#494949" transform="translate(55,95)"/>
<path d="M0 0 C0.99 0 1.98 0 3 0 C3.33 2.31 3.66 4.62 4 7 C2.68 7.33 1.36 7.66 0 8 C0 8.66 0 9.32 0 10 C-2.12392506 10.6700834 -4.24917524 11.33596797 -6.375 12 C-7.55835937 12.37125 -8.74171875 12.7425 -9.9609375 13.125 C-13 14 -13 14 -15 14 C-14.67 11.69 -14.34 9.38 -14 7 C-13.01 7 -12.02 7 -11 7 C-11 7.99 -11 8.98 -11 10 C-7.7 9.67 -4.4 9.34 -1 9 C-1 7.02 -1 5.04 -1 3 C-1.99 2.67 -2.98 2.34 -4 2 C-2.68 2 -1.36 2 0 2 C0 1.34 0 0.68 0 0 Z " fill="#A04232" transform="translate(129,70)"/>
<path d="M0 0 C0.66 0 1.32 0 2 0 C2.16852247 1.60397277 2.33474886 3.2081869 2.5 4.8125 C2.5928125 5.70582031 2.685625 6.59914063 2.78125 7.51953125 C3 10 3 10 3 13 C0.69 13 -1.62 13 -4 13 C-4 9.7 -4 6.4 -4 3 C-2.68 2.67 -1.36 2.34 0 2 C0 1.34 0 0.68 0 0 Z " fill="#4D4D4D" transform="translate(29,95)"/>
<path d="M0 0 C1.10497116 2.20994232 1.3746918 3.92940859 1.6875 6.375 C1.79449219 7.14585938 1.90148437 7.91671875 2.01171875 8.7109375 C1.99829168 11.33369274 1.32903087 12.76967234 0 15 C-1.32 14.67 -2.64 14.34 -4 14 C-4.6663569 10.97170479 -5.14543237 8.10601995 -5 5 C-2.5625 1.9375 -2.5625 1.9375 0 0 Z " fill="#E72733" transform="translate(91,40)"/>
<path d="M0 0 C0.66 0 1.32 0 2 0 C3.00926479 4.15626368 3.10239579 8.04365094 3.0625 12.3125 C3.05347656 13.56675781 3.04445313 14.82101563 3.03515625 16.11328125 C3.01775391 17.54220703 3.01775391 17.54220703 3 19 C2.01 19 1.02 19 0 19 C-0.88176404 15.21401311 -1.13465003 11.6966357 -1.125 7.8125 C-1.12757812 6.76707031 -1.13015625 5.72164062 -1.1328125 4.64453125 C-1 2 -1 2 0 0 Z " fill="#ACACAC" transform="translate(97,38)"/>
<path d="M0 0 C1.66611905 -0.042721 3.33382885 -0.04063832 5 0 C6 1 6 1 6.09765625 3.06640625 C6.08605469 3.89011719 6.07445313 4.71382813 6.0625 5.5625 C6.05347656 6.38878906 6.04445313 7.21507813 6.03515625 8.06640625 C6.01775391 9.02353516 6.01775391 9.02353516 6 10 C3.69 10 1.38 10 -1 10 C-1 8.02 -1 6.04 -1 4 C-0.34 3.67 0.32 3.34 1 3 C0.34 3 -0.32 3 -1 3 C-0.67 2.01 -0.34 1.02 0 0 Z " fill="#222222" transform="translate(61,97)"/>
<path d="M0 0 C2.31 0 4.62 0 7 0 C7 2.97 7 5.94 7 9 C4.69 9.33 2.38 9.66 0 10 C0 6.7 0 3.4 0 0 Z " fill="#242424" transform="translate(129,97)"/>
<path d="M0 0 C2.31 0 4.62 0 7 0 C7 2.97 7 5.94 7 9 C4.69 9.33 2.38 9.66 0 10 C0 6.7 0 3.4 0 0 Z " fill="#2D2D2D" transform="translate(89,97)"/>
<path d="M0 0 C2.375 -0.125 2.375 -0.125 5 0 C7 2 7 2 7.1953125 3.9453125 C7.13020833 5.96354167 7.06510417 7.98177083 7 10 C4.69 10 2.38 10 0 10 C-0.33 8.35 -0.66 6.7 -1 5 C-0.01 4.67 0.98 4.34 2 4 C2 5.32 2 6.64 2 8 C2.66 8 3.32 8 4 8 C3.67 6.35 3.34 4.7 3 3 C2.01 3 1.02 3 0 3 C0 2.01 0 1.02 0 0 Z " fill="#343434" transform="translate(34,97)"/>
<path d="M0 0 C2.31 0 4.62 0 7 0 C7 2.97 7 5.94 7 9 C6.34 9 5.68 9 5 9 C5 6.69 5 4.38 5 2 C4.34 2 3.68 2 3 2 C3 4.64 3 7.28 3 10 C2.01 10 1.02 10 0 10 C0 6.7 0 3.4 0 0 Z " fill="#1F1F1F" transform="translate(42,97)"/>
<path d="M0 0 C1.32 0 2.64 0 4 0 C4.33 1.65 4.66 3.3 5 5 C3.68 5 2.36 5 1 5 C1 5.99 1 6.98 1 8 C2.32 7.67 3.64 7.34 5 7 C4.67 7.99 4.34 8.98 4 10 C-0.875 9.125 -0.875 9.125 -2 8 C-2.1875 5.0625 -2.1875 5.0625 -2 2 C-1.34 1.34 -0.68 0.68 0 0 Z " fill="#2B2B2B" transform="translate(174,97)"/>
<path d="M0 0 C1.67542976 0.28604898 3.34385343 0.61781233 5 1 C5.33 2.32 5.66 3.64 6 5 C4.68 5 3.36 5 2 5 C2 5.99 2 6.98 2 8 C2.99 7.67 3.98 7.34 5 7 C4.67 7.99 4.34 8.98 4 10 C0.125 9.125 0.125 9.125 -1 8 C-1.125 4.5 -1.125 4.5 -1 1 C-0.67 0.67 -0.34 0.34 0 0 Z " fill="#282828" transform="translate(106,97)"/>
<path d="M0 0 C0 1.98 0 3.96 0 6 C-2.31 6.33 -4.62 6.66 -7 7 C-7.12375 6.195625 -7.2475 5.39125 -7.375 4.5625 C-7.684375 3.2940625 -7.684375 3.2940625 -8 2 C-8.66 1.67 -9.32 1.34 -10 1 C-6.61981469 -0.04005702 -3.5219721 -0.08004482 0 0 Z " fill="#F0EA42" transform="translate(128,73)"/>
<path d="M0 0 C0.66 0 1.32 0 2 0 C2 2.31 2 4.62 2 7 C2.66 7 3.32 7 4 7 C4 4.69 4 2.38 4 0 C4.99 0 5.98 0 7 0 C7 2.97 7 5.94 7 9 C4.69 9 2.38 9 0 9 C0 6.03 0 3.06 0 0 Z " fill="#242424" transform="translate(159,98)"/>
<path d="M0 0 C0 0.66 0 1.32 0 2 C-0.66 2 -1.32 2 -2 2 C-2 3.32 -2 4.64 -2 6 C-1.01 6 -0.02 6 1 6 C1 6.66 1 7.32 1 8 C-0.32 8 -1.64 8 -3 8 C-3 6.35 -3 4.7 -3 3 C-3.99 3 -4.98 3 -6 3 C-6 3.66 -6 4.32 -6 5 C-8.64 5.33 -11.28 5.66 -14 6 C-10.45176692 0.39752671 -6.3872428 -0.29708106 0 0 Z " fill="#211D16" transform="translate(135,67)"/>
<path d="M0 0 C0.99 0 1.98 0 3 0 C3 2.97 3 5.94 3 9 C3.66 9 4.32 9 5 9 C5 6.03 5 3.06 5 0 C5.33 0 5.66 0 6 0 C6 3.3 6 6.6 6 10 C4.34385343 10.38218767 2.67542976 10.71395102 1 11 C0 10 0 10 -0.09765625 7.71484375 C-0.08605469 6.79832031 -0.07445313 5.88179688 -0.0625 4.9375 C-0.05347656 4.01839844 -0.04445313 3.09929687 -0.03515625 2.15234375 C-0.02355469 1.44207031 -0.01195313 0.73179688 0 0 Z " fill="#181818" transform="translate(17,96)"/>
<path d="M0 0 C-2.21928194 2.90802461 -3.92969143 4.95312762 -7 7 C-7.99 6.67 -8.98 6.34 -10 6 C-9.34 5.34 -8.68 4.68 -8 4 C-9.32 3.01 -10.64 2.02 -12 1 C-8.00439392 -1.83022097 -4.57262677 -0.76210446 0 0 Z " fill="#E88288" transform="translate(113,65)"/>
<path d="M0 0 C2.31 0 4.62 0 7 0 C5.68 0.33 4.36 0.66 3 1 C3 1.99 3 2.98 3 4 C3.99 4 4.98 4 6 4 C6 6.31 6 8.62 6 11 C5.01 10.67 4.02 10.34 3 10 C3 9.34 3 8.68 3 8 C2.01 8 1.02 8 0 8 C0 7.34 0 6.68 0 6 C0.66 6 1.32 6 2 6 C2 4.68 2 3.36 2 2 C1.34 2 0.68 2 0 2 C0 1.34 0 0.68 0 0 Z " fill="#A47E3D" transform="translate(60,67)"/>
<path d="M0 0 C1.32 0.33 2.64 0.66 4 1 C4.19392201 6.52677733 3.7479503 10.75614911 2 16 C1.67 16 1.34 16 1 16 C0.12109375 9.84765625 0.12109375 9.84765625 0 8 C0.33 7.67 0.66 7.34 1 7 C0.71269945 4.66055264 0.38063221 2.3260857 0 0 Z " fill="#AAAAAA" transform="translate(96,21)"/>
<path d="M0 0 C0.66 0 1.32 0 2 0 C2 1.32 2 2.64 2 4 C2.99 4.33 3.98 4.66 5 5 C4.34 5 3.68 5 3 5 C3.99 6.485 3.99 6.485 5 8 C4.875 10.5625 4.875 10.5625 4 13 C2.02 13.99 2.02 13.99 0 15 C0 10.05 0 5.1 0 0 Z " fill="#838383" transform="translate(97,6)"/>
<path d="M0 0 C0.66 0 1.32 0 2 0 C2 2.64 2 5.28 2 8 C0.02 8.33 -1.96 8.66 -4 9 C-4.33 7.35 -4.66 5.7 -5 4 C-4.01 3.67 -3.02 3.34 -2 3 C-2 4.32 -2 5.64 -2 7 C-1.34 7 -0.68 7 0 7 C-0.2784375 5.824375 -0.2784375 5.824375 -0.5625 4.625 C-1 2 -1 2 0 0 Z " fill="#232323" transform="translate(85,98)"/>
<path d="M0 0 C0.99 0 1.98 0 3 0 C3 3.96 3 7.92 3 12 C2.01 12 1.02 12 0 12 C0 8.04 0 4.08 0 0 Z " fill="#2B2B2B" transform="translate(149,95)"/>
<path d="M0 0 C1.32 0 2.64 0 4 0 C4 1.32 4 2.64 4 4 C4.30404678 5.67225729 4.63128912 7.34080104 5 9 C3.35 9.33 1.7 9.66 0 10 C0.2784375 9.0409375 0.2784375 9.0409375 0.5625 8.0625 C0.706875 7.381875 0.85125 6.70125 1 6 C0.67 5.67 0.34 5.34 0 5 C-0.04063832 3.33382885 -0.042721 1.66611905 0 0 Z " fill="#333333" transform="translate(138,97)"/>
<path d="M0 0 C0 0.33 0 0.66 0 1 C-3.3 1.33 -6.6 1.66 -10 2 C-8.35 2.33 -6.7 2.66 -5 3 C-5.33 3.99 -5.66 4.98 -6 6 C-8.78211944 5.62403791 -10.5879284 5.32681541 -12.8125 3.5625 C-14 2 -14 2 -14 0 C-8.97703996 -1.13016601 -5.02125926 -0.77916092 0 0 Z " fill="#E1424C" transform="translate(100,67)"/>
<path d="M0 0 C0.66 0 1.32 0 2 0 C2 2.97 2 5.94 2 9 C2.99 8.67 3.98 8.34 5 8 C4.67 8.99 4.34 9.98 4 11 C0.125 10.125 0.125 10.125 -1 9 C-1.1328125 7.1875 -1.1328125 7.1875 -1.125 5 C-1.12757812 4.278125 -1.13015625 3.55625 -1.1328125 2.8125 C-1 1 -1 1 0 0 Z " fill="#191919" transform="translate(74,96)"/>
<path d="M0 0 C0.99 0 1.98 0 3 0 C3.33 2.31 3.66 4.62 4 7 C2.35 7.33 0.7 7.66 -1 8 C-1 6.35 -1 4.7 -1 3 C-1.99 2.67 -2.98 2.34 -4 2 C-2.68 2 -1.36 2 0 2 C0 1.34 0 0.68 0 0 Z " fill="#A7923D" transform="translate(129,70)"/>
<path d="M0 0 C1.65 0 3.3 0 5 0 C5 0.66 5 1.32 5 2 C4.34 2 3.68 2 3 2 C3 4.64 3 7.28 3 10 C2.01 10 1.02 10 0 10 C0 6.7 0 3.4 0 0 Z " fill="#262626" transform="translate(113,97)"/>
<path d="M0 0 C0.33 0 0.66 0 1 0 C1 3.96 1 7.92 1 12 C0.01 12 -0.98 12 -2 12 C-2.05395478 10.37536158 -2.09277195 8.75021459 -2.125 7.125 C-2.14820313 6.22007813 -2.17140625 5.31515625 -2.1953125 4.3828125 C-2 2 -2 2 0 0 Z " fill="#202020" transform="translate(146,95)"/>
<path d="M0 0 C0.66 0 1.32 0 2 0 C2.33 3.63 2.66 7.26 3 11 C1.68 10.67 0.36 10.34 -1 10 C-1.02689216 8.52093108 -1.04634621 7.04172517 -1.0625 5.5625 C-1.07410156 4.73878906 -1.08570313 3.91507812 -1.09765625 3.06640625 C-1 1 -1 1 0 0 Z " fill="#272727" transform="translate(168,96)"/>
<path d="M0 0 C1.65 0 3.3 0 5 0 C4.01 0.495 4.01 0.495 3 1 C3 1.66 3 2.32 3 3 C4.32 3.66 5.64 4.32 7 5 C5.37536158 5.05395478 3.75021459 5.09277195 2.125 5.125 C1.22007813 5.14820312 0.31515625 5.17140625 -0.6171875 5.1953125 C-3 5 -3 5 -5 3 C-3.68 3 -2.36 3 -1 3 C-0.67 2.01 -0.34 1.02 0 0 Z " fill="#87802D" transform="translate(96,81)"/>
<path d="M0 0 C0.33 0.66 0.66 1.32 1 2 C2.11375 1.938125 3.2275 1.87625 4.375 1.8125 C6.169375 1.9053125 6.169375 1.9053125 8 2 C8.99 3.485 8.99 3.485 10 5 C2.65882353 6.34588235 2.65882353 6.34588235 -0.5 4.6875 C-2 3 -2 3 -2 1 C-1.34 0.67 -0.68 0.34 0 0 Z " fill="#E46B71" transform="translate(79,59)"/>
<path d="M0 0 C1.67542976 0.28604898 3.34385343 0.61781233 5 1 C5 1.66 5 2.32 5 3 C4.34 3 3.68 3 3 3 C2.67 4.98 2.34 6.96 2 9 C1.01 8.67 0.02 8.34 -1 8 C-1.04241723 5.66705225 -1.04092937 3.33297433 -1 1 C-0.67 0.67 -0.34 0.34 0 0 Z " fill="#2E2E2E" transform="translate(99,97)"/>
<path d="M0 0 C0.66 0.33 1.32 0.66 2 1 C2 4.3 2 7.6 2 11 C1.01 11 0.02 11 -1 11 C-1.02688151 9.35425434 -1.04634123 7.70838587 -1.0625 6.0625 C-1.07410156 5.14597656 -1.08570313 4.22945313 -1.09765625 3.28515625 C-1 1 -1 1 0 0 Z " fill="#252525" transform="translate(155,96)"/>
<path d="M0 0 C0.99 0 1.98 0 3 0 C3 2.66666667 3 5.33333333 3 8 C0.36 7.67 -2.28 7.34 -5 7 C-3.68 6.67 -2.36 6.34 -1 6 C-1.020625 5.195625 -1.04125 4.39125 -1.0625 3.5625 C-1 1 -1 1 0 0 Z " fill="#E64F57" transform="translate(105,51)"/>
<path d="M0 0 C0.99 0 1.98 0 3 0 C3 3.3 3 6.6 3 10 C2.01 10 1.02 10 0 10 C0 6.7 0 3.4 0 0 Z " fill="#040404" transform="translate(124,96)"/>
<path d="M0 0 C0.33 0 0.66 0 1 0 C1 3.96 1 7.92 1 12 C0.01 12 -0.98 12 -2 12 C-2.33 9.03 -2.66 6.06 -3 3 C-2.67 3.66 -2.34 4.32 -2 5 C-1.34 5 -0.68 5 0 5 C0 3.35 0 1.7 0 0 Z " fill="#B3B3B3" transform="translate(99,45)"/>
<path d="M0 0 C0.66 0.66 1.32 1.32 2 2 C0.03177114 3.96822886 -3.34808709 3.66248381 -6 4 C-5.67 4.99 -5.34 5.98 -5 7 C-6.32 6.67 -7.64 6.34 -9 6 C-8.125 2.125 -8.125 2.125 -7 1 C-3.5625 0.3125 -3.5625 0.3125 0 0 Z " fill="#E33D48" transform="translate(89,63)"/>
<path d="M0 0 C1.43088528 2.86177057 0.59991697 4.93375773 0 8 C-1.32 8.33 -2.64 8.66 -4 9 C-4.8125 7.3125 -4.8125 7.3125 -5 5 C-2.5625 2.25 -2.5625 2.25 0 0 Z " fill="#E53C47" transform="translate(91,40)"/>
<path d="M0 0 C0.99 0 1.98 0 3 0 C3 2.97 3 5.94 3 9 C2.01 9 1.02 9 0 9 C0 6.03 0 3.06 0 0 Z " fill="#1A1A1A" transform="translate(89,98)"/>
<path d="M0 0 C1.98 0.495 1.98 0.495 4 1 C3.67 2.98 3.34 4.96 3 7 C1.68 7.33 0.36 7.66 -1 8 C-0.67 5.36 -0.34 2.72 0 0 Z " fill="#B2B2B2" transform="translate(101,99)"/>
<path d="M0 0 C1.32 0 2.64 0 4 0 C4 1.32 4 2.64 4 4 C4.99 4.66 5.98 5.32 7 6 C4.69 6 2.38 6 0 6 C0 4.02 0 2.04 0 0 Z " fill="#535353" transform="translate(60,101)"/>
<path d="M0 0 C0.66 0.33 1.32 0.66 2 1 C1.67 2.32 1.34 3.64 1 5 C1.99 4.67 2.98 4.34 4 4 C3.67 5.65 3.34 7.3 3 9 C1.0625 8.3125 1.0625 8.3125 -1 7 C-1.875 4.5 -1.875 4.5 -2 2 C-1.34 1.34 -0.68 0.68 0 0 Z " fill="#D2D2D2" transform="translate(94,12)"/>
<path d="M0 0 C0.66 1.32 1.32 2.64 2 4 C3.32 3.34 4.64 2.68 6 2 C5.67 2.99 5.34 3.98 5 5 C4.01 5 3.02 5 2 5 C2 6.65 2 8.3 2 10 C1.01 10.495 1.01 10.495 0 11 C0 7.37 0 3.74 0 0 Z " fill="#C6C6C6" transform="translate(58,96)"/>
<path d="M0 0 C0 0.66 0 1.32 0 2 C0.66 2 1.32 2 2 2 C1.34 3.65 0.68 5.3 0 7 C-0.33 6.34 -0.66 5.68 -1 5 C-1.99 4.67 -2.98 4.34 -4 4 C-4.33 3.01 -4.66 2.02 -5 1 C-2 0 -2 0 0 0 Z " fill="#A7A7A9" transform="translate(90,8)"/>
<path d="M0 0 C0.99 0 1.98 0 3 0 C3 2.64 3 5.28 3 8 C2.01 8 1.02 8 0 8 C0 5.36 0 2.72 0 0 Z " fill="#101010" transform="translate(51,98)"/>
<path d="M0 0 C0.33 1.65 0.66 3.3 1 5 C0.01 5 -0.98 5 -2 5 C-2 4.01 -2 3.02 -2 2 C-2.99 2 -3.98 2 -5 2 C-5.33 3.32 -5.66 4.64 -6 6 C-6 4.68 -6 3.36 -6 2 C-6.66 1.67 -7.32 1.34 -8 1 C-5.07175348 0.02391783 -3.04386724 -0.08226668 0 0 Z " fill="#CAC740" transform="translate(120,75)"/>
<path d="M0 0 C0.66 0 1.32 0 2 0 C2.66 2.31 3.32 4.62 4 7 C3.01 7.66 2.02 8.32 1 9 C0.01 8.67 -0.98 8.34 -2 8 C-1.34 8 -0.68 8 0 8 C0 5.36 0 2.72 0 0 Z " fill="#B9B9B9" transform="translate(136,98)"/>
<path d="M0 0 C0.33 0.66 0.66 1.32 1 2 C3.01669827 3.13350534 3.01669827 3.13350534 5 4 C4.34 5.65 3.68 7.3 3 9 C2.01 8.67 1.02 8.34 0 8 C0 5.36 0 2.72 0 0 Z " fill="#EBEBEB" transform="translate(77,97)"/>
<path d="M0 0 C0.66 0 1.32 0 2 0 C4.32590854 3.63423209 4.16265833 6.77088331 4 11 C3.01 11.495 3.01 11.495 2 12 C0.78306124 9.56612247 0.68040104 7.58161154 0.4375 4.875 C0.35371094 3.96492188 0.26992187 3.05484375 0.18359375 2.1171875 C0.12300781 1.41851562 0.06242188 0.71984375 0 0 Z " fill="#CECECE" transform="translate(169,95)"/>
<path d="M0 0 C0.33 0 0.66 0 1 0 C1 3.3 1 6.6 1 10 C-1.475 9.01 -1.475 9.01 -4 8 C-4 7.01 -4 6.02 -4 5 C-2.68 5 -1.36 5 0 5 C0 3.35 0 1.7 0 0 Z " fill="#E2E2E2" transform="translate(112,97)"/>
<path d="M0 0 C2.475 0.495 2.475 0.495 5 1 C5.33 2.32 5.66 3.64 6 5 C4.35 4.67 2.7 4.34 1 4 C0.67 2.68 0.34 1.36 0 0 Z " fill="#595959" transform="translate(106,97)"/>
<path d="M0 0 C0.33 0.66 0.66 1.32 1 2 C2.32 1.67 3.64 1.34 5 1 C5 2.98 5 4.96 5 7 C4.34 7 3.68 7 3 7 C3 5.68 3 4.36 3 3 C1.35 3.66 -0.3 4.32 -2 5 C-1.34 3.35 -0.68 1.7 0 0 Z " fill="#B6B6B6" transform="translate(33,98)"/>
<path d="M0 0 C0.66 0 1.32 0 2 0 C2 2.31 2 4.62 2 7 C2.66 7.33 3.32 7.66 4 8 C2.68 8.33 1.36 8.66 0 9 C0 6.03 0 3.06 0 0 Z " fill="#121212" transform="translate(159,98)"/>
<path d="M0 0 C2.31 0.33 4.62 0.66 7 1 C4.25 4.875 4.25 4.875 2 6 C0 3 0 3 0 0 Z " fill="#F2C4C6" transform="translate(100,67)"/>
<path d="M0 0 C3.3 0 6.6 0 10 0 C10 1.32 10 2.64 10 4 C9.278125 3.67 8.55625 3.34 7.8125 3 C4.98302573 1.99396471 2.97104534 1.83022598 0 2 C0 1.34 0 0.68 0 0 Z " fill="#8F9094" transform="translate(101,6)"/>
<path d="M0 0 C-1.0625 1.5 -1.0625 1.5 -3 3 C-6.6875 3.1875 -6.6875 3.1875 -10 3 C-9 1 -9 1 -7.25 0.375 C-4.79549443 -0.03408426 -2.4840589 -0.06900164 0 0 Z " fill="#E23F49" transform="translate(119,60)"/>
<path d="M0 0 C2.31 0.33 4.62 0.66 7 1 C7 1.99 7 2.98 7 4 C4.69 4 2.38 4 0 4 C0 2.68 0 1.36 0 0 Z " fill="#272727" transform="translate(25,104)"/>
<path d="M0 0 C0.66 0 1.32 0 2 0 C2 1.32 2 2.64 2 4 C2.66 4.33 3.32 4.66 4 5 C2.68 5.33 1.36 5.66 0 6 C-0.38218767 4.34385343 -0.71395102 2.67542976 -1 1 C-0.67 0.67 -0.34 0.34 0 0 Z " fill="#282828" transform="translate(34,101)"/>
<path d="M0 0 C1.32 0 2.64 0 4 0 C4.33 1.65 4.66 3.3 5 5 C3.68 5 2.36 5 1 5 C0.67 3.35 0.34 1.7 0 0 Z " fill="#565656" transform="translate(174,97)"/>
<path d="M0 0 C1.32 0.66 2.64 1.32 4 2 C1.6875 4.0625 1.6875 4.0625 -1 6 C-1.99 5.67 -2.98 5.34 -4 5 C-2.68 4.34 -1.36 3.68 0 3 C0 2.01 0 1.02 0 0 Z " fill="#E3343F" transform="translate(107,66)"/>
<path d="M0 0 C2.97 0 5.94 0 9 0 C9.33 1.32 9.66 2.64 10 4 C9.01 4.33 8.02 4.66 7 5 C7 3.68 7 2.36 7 1 C4.69 1 2.38 1 0 1 C0 0.67 0 0.34 0 0 Z " fill="#DF2935" transform="translate(106,64)"/>
<path d="M0 0 C1.32 0.33 2.64 0.66 4 1 C3.67 3.31 3.34 5.62 3 8 C2.34 7.67 1.68 7.34 1 7 C0.59270772 4.67843403 0.25561323 2.3431213 0 0 Z " fill="#A2A2A2" transform="translate(96,21)"/>
<path d="M0 0 C3.3 0 6.6 0 10 0 C10 0.33 10 0.66 10 1 C6.7 1.66 3.4 2.32 0 3 C0 2.01 0 1.02 0 0 Z " fill="#8E8F93" transform="translate(85,6)"/>
<path d="M0 0 C0 2.97 0 5.94 0 9 C-1.54571278 6.68143083 -2.79618552 4.49361571 -4 2 C-1 0 -1 0 0 0 Z " fill="#D4D4D4" transform="translate(144,97)"/>
<path d="M0 0 C0.66 0 1.32 0 2 0 C2 2.64 2 5.28 2 8 C1.34 8 0.68 8 0 8 C-1.125 2.25 -1.125 2.25 0 0 Z " fill="#030303" transform="translate(85,98)"/>
<path d="M0 0 C1.32 0 2.64 0 4 0 C4 1.65 4 3.3 4 5 C2.68 4.67 1.36 4.34 0 4 C0 2.68 0 1.36 0 0 Z " fill="#E66268" transform="translate(88,54)"/>
</svg>
